<svg xmlns="http://www.w3.org/2000/svg" viewBox="0 0 300 300"><defs><style>.cls-1{fill:#e3daec;}.cls-2,.cls-3,.cls-4,.cls-5{fill:none;stroke:#1979be;}.cls-2,.cls-3,.cls-4{stroke-miterlimit:10;}.cls-2,.cls-3,.cls-5{strokeWidth:7px;}.cls-3,.cls-4,.cls-5{strokeLinecap:round;}.cls-4{strokeWidth:9px;}.cls-5{strokeLinejoin:round;}</style></defs><g id="Layer_8" data-name="Layer 8"><circle class="cls-1" cx="223.61" cy="136.28" r="58.22"/><ellipse class="cls-2" cx="138.38" cy="69.88" rx="90.8" ry="22.25"/><line class="cls-3" x1="47.97" y1="71.93" x2="47.58" y2="147.26"/><line class="cls-3" x1="228.99" y1="71.28" x2="229.17" y2="147.57"/><path class="cls-2" d="M47.77,129.31S138.43,166,229.08,128.1"/><line class="cls-2" x1="21.33" y1="74.88" x2="21.33" y2="31.9"/><line class="cls-2" x1="60.16" y1="34.91" x2="18.16" y2="34.91"/><line class="cls-2" x1="252.96" y1="74.88" x2="252.96" y2="31.9"/><line class="cls-2" x1="214.13" y1="34.91" x2="256.12" y2="34.91"/><line class="cls-2" x1="21.33" y1="225.12" x2="21.33" y2="268.1"/><line class="cls-2" x1="60.16" y1="265.09" x2="18.16" y2="265.09"/><line class="cls-2" x1="252.96" y1="225.12" x2="252.96" y2="268.1"/><line class="cls-2" x1="214.13" y1="265.09" x2="256.12" y2="265.09"/><line class="cls-3" x1="27.91" y1="166.89" x2="249.75" y2="166.89"/><path class="cls-4" d="M46.82,169.46v63.25s17.1,21,89.74,20.43c0,0,69.31,2.12,91.1-18.16"/><line class="cls-5" x1="229.08" y1="234.98" x2="229.08" y2="168.85"/><path class="cls-4" d="M46.82,185.27s85.09,37.83,180.84,0"/></g></svg>