<svg xmlns="http://www.w3.org/2000/svg" viewBox="0 0 300 300"><defs><style>.cls-1{fill:#e0daec;}.cls-2,.cls-4{fill:none;stroke:#1979be;stroke-miterlimit:10;strokeWidth:7px;}.cls-2{strokeLinecap:round;}.cls-3{fill:#1979be;}</style></defs><g id="Layer_9" data-name="Layer 9"><circle class="cls-1" cx="222.21" cy="140.99" r="57.91"/><path class="cls-2" d="M153.06,269.72H77.79a17.06,17.06,0,0,1-17.06-17.06V90.52A17.07,17.07,0,0,1,77.79,73.45H201a17.07,17.07,0,0,1,17.07,17.07V205"/><line class="cls-2" x1="218.05" y1="204.96" x2="153.06" y2="269.72"/><path class="cls-2" d="M154.16,266.85V227.06a20.13,20.13,0,0,1,20.13-20.13h40.26"/><path class="cls-2" d="M109.74,92.93h-18a8.21,8.21,0,0,0-8.21,8.2v36.22"/><circle class="cls-3" cx="83.16" cy="155.79" r="4.76"/><path class="cls-4" d="M61.31,248.5a19,19,0,0,1-19-19V71.41a19,19,0,0,1,19-19H179.17a19,19,0,0,1,19,19"/><path class="cls-4" d="M38.85,226.33a19,19,0,0,1-19-19V49.24a19,19,0,0,1,19-19H156.71a19,19,0,0,1,19,19"/></g></svg>