<svg xmlns="http://www.w3.org/2000/svg" viewBox="0 0 300 300"><defs><style>.cls-1{fill:#e5deee;}.cls-2,.cls-3,.cls-4{fill:none;stroke:#1e80c0;stroke-miterlimit:10;}.cls-2,.cls-3{strokeWidth:7px;}.cls-3{strokeLinecap:round;}.cls-4{strokeWidth:5px;}</style></defs><g id="Layer_10" data-name="Layer 10"><circle class="cls-1" cx="226.08" cy="193" r="54.53"/><rect class="cls-2" x="236.04" y="41.14" width="43.22" height="83.96"/><path class="cls-2" d="M218.65,53h15.74a0,0,0,0,1,0,0v66.34a0,0,0,0,1,0,0H222.61A11.62,11.62,0,0,1,211,107.7V60.64A7.66,7.66,0,0,1,218.65,53Z"/><path class="cls-3" d="M209.2,64.75S195.57,60,169.3,35.13a19.58,19.58,0,0,0-13.47-5.34H98.41a11.06,11.06,0,0,0-11,9.2,10.34,10.34,0,0,0,0,3.09A10.54,10.54,0,0,0,97.92,50.7h45.25a11.67,11.67,0,0,1,8.52,3.7l17.77,19"/><path class="cls-3" d="M188.59,97.31H178.45A22.42,22.42,0,0,1,163,91.1L135.4,64.75s-7.77-9,1.49-14"/><rect class="cls-2" x="19.39" y="174.9" width="43.22" height="83.96" transform="translate(81.99 433.76) rotate(180)"/><path class="cls-2" d="M71.92,180.68H87.66a0,0,0,0,1,0,0V247a0,0,0,0,1,0,0H75.88A11.62,11.62,0,0,1,64.26,235.4V188.34a7.66,7.66,0,0,1,7.66-7.66Z" transform="translate(151.91 427.7) rotate(180)"/><path class="cls-3" d="M89.45,235.25s13.63,4.72,39.9,29.62a19.6,19.6,0,0,0,13.47,5.34h57.42a11.06,11.06,0,0,0,11-9.2,10.34,10.34,0,0,0,0-3.09,10.54,10.54,0,0,0-10.53-8.62H155.48a11.67,11.67,0,0,1-8.52-3.7l-17.77-19"/><path class="cls-3" d="M110.07,202.69H120.2a22.4,22.4,0,0,1,15.49,6.21l27.56,26.35s7.77,9-1.49,14.05"/><path class="cls-3" d="M142.78,157.69a29.66,29.66,0,1,1,14.92-14.62"/><circle class="cls-4" cx="130.83" cy="130.74" r="12.33"/><path class="cls-3" d="M158.53,143.91l34.72,36.18c6.39,6.68,5.83,13,1.64,17h0c-4.19,4-10.43,4.19-16.83-2.49l-34.72-36.19"/><path class="cls-3" d="M159.45,178.81c0,.22-7.91,7-7.91,7l13.52,15,9.26-8.06"/><path class="cls-3" d="M99.4,69.53S54.73,100.3,55.62,145.87"/><path class="cls-3" d="M246,154.23s7.62,46.17-45.41,77.54"/></g></svg>