<svg xmlns="http://www.w3.org/2000/svg" viewBox="0 0 300 300"><defs><style>.cls-1{fill:#dcd7ec;}.cls-2,.cls-4,.cls-5,.cls-6{fill:none;stroke:#1d7ebc;}.cls-2,.cls-5,.cls-6{strokeLinecap:round;}.cls-2{strokeLinejoin:round;}.cls-2,.cls-6{strokeWidth:8px;}.cls-3{fill:#1d7ebc;}.cls-4,.cls-5,.cls-6{stroke-miterlimit:10;}.cls-4,.cls-5{strokeWidth:7px;}</style></defs><g id="Layer_18" data-name="Layer 18"><circle class="cls-1" cx="223.92" cy="160.86" r="57.02"/><line class="cls-2" x1="51.86" y1="67.66" x2="133.84" y2="104.27"/><line class="cls-2" x1="135.12" y1="29.52" x2="51.86" y2="67.66"/><line class="cls-2" x1="60.8" y1="154.31" x2="51.86" y2="67.66"/><line class="cls-2" x1="134.69" y1="193.71" x2="60.8" y2="154.31"/><line class="cls-2" x1="133.84" y1="104.27" x2="134.69" y2="193.71"/><line class="cls-2" x1="216.68" y1="69.34" x2="133.84" y2="104.27"/><line class="cls-2" x1="210.08" y1="152.4" x2="134.69" y2="193.71"/><line class="cls-2" x1="216.68" y1="69.34" x2="210.08" y2="152.4"/><line class="cls-2" x1="135.12" y1="29.52" x2="216.68" y2="69.34"/><line class="cls-2" x1="96.39" y1="47.26" x2="90.18" y2="36.12"/><line class="cls-2" x1="78.9" y1="53.37" x2="65.06" y2="36.55"/><line class="cls-2" x1="173.67" y1="45.92" x2="179.63" y2="35.05"/><line class="cls-2" x1="189.13" y1="55.89" x2="204.76" y2="35.27"/><line class="cls-2" x1="19.69" y1="67.85" x2="19.06" y2="124.07"/><line class="cls-2" x1="36.09" y1="118.11" x2="35.45" y2="148.99"/><line class="cls-2" x1="233.08" y1="117.9" x2="233.29" y2="148.99"/><circle class="cls-3" cx="135.07" cy="265.21" r="5.27"/><path class="cls-4" d="M196.61,159.32c16.84,8.39,27.31,20.17,27.31,33.22,0,25.46-39.9,46.1-89.12,46.1S45.68,218,45.68,192.54c0-12.68,9.88-24.15,25.88-32.49"/><path class="cls-5" d="M180.55,258.09c27.21-8.22,45.6-23.8,45.6-41.08,0,0-.72-10.79-4.9-11.83"/><path class="cls-5" d="M50.7,208.76c-4.54-.37-5,8.25-5,8.25,0,17.07,18,32.48,44.62,40.78"/><line class="cls-6" x1="250.26" y1="69.03" x2="250" y2="125.26"/></g></svg>