<svg xmlns="http://www.w3.org/2000/svg" viewBox="0 0 300 300"><defs><style>.cls-1{fill:#deddef;}.cls-2,.cls-4{fill:none;stroke:#1d7ebc;strokeLinecap:round;stroke-miterlimit:10;}.cls-2{strokeWidth:7px;}.cls-3{fill:#1d7ebc;}.cls-4{strokeWidth:8px;}</style></defs><g id="Layer_19" data-name="Layer 19"><circle class="cls-1" cx="232.82" cy="95.65" r="49.21"/><path class="cls-2" d="M100.41,186.92,93.06,90.49A12.64,12.64,0,0,1,104.79,77h0a12.63,12.63,0,0,1,13.48,11.74l4.36,67.43"/><path class="cls-2" d="M123.13,155.88l.94-86.69a12.64,12.64,0,0,1,13-12.29h0a12.64,12.64,0,0,1,12.29,13l-2.14,89.54"/><path class="cls-2" d="M147,159l6.58-77.45a12.65,12.65,0,0,1,13.75-11.42h0a12.63,12.63,0,0,1,11.42,13.75l-8,89.21"/><path class="cls-2" d="M96.67,161.81s-22.79,4.12-22.88,21,9.38,45.95,42.13,68.55"/><path class="cls-2" d="M173,148.29s22.13-13.77,21.11,19.42-4.6,55.41-8.94,69.19"/><circle class="cls-3" cx="178.85" cy="249.96" r="3.61"/><line class="cls-4" x1="17.97" y1="96.63" x2="59.33" y2="96.89"/><line class="cls-4" x1="34.63" y1="79.76" x2="17.97" y2="96.63"/><line class="cls-4" x1="34.92" y1="113.55" x2="17.97" y2="96.63"/><line class="cls-4" x1="208.12" y1="96.76" x2="247.57" y2="96.76"/><line class="cls-4" x1="233.59" y1="114.41" x2="247.57" y2="96.76"/><line class="cls-4" x1="232.82" y1="79.18" x2="247.57" y2="96.76"/></g></svg>