<svg xmlns="http://www.w3.org/2000/svg" viewBox="0 0 300 300"><defs><style>.cls-1{fill:#dfd7ea;}.cls-2,.cls-3,.cls-4{fill:none;stroke:#1d7ebc;stroke-miterlimit:10;}.cls-2{strokeWidth:9px;}.cls-3,.cls-4{strokeWidth:7px;}.cls-4{strokeLinecap:round;}</style></defs><g id="Layer_20" data-name="Layer 20"><circle class="cls-1" cx="194.58" cy="156.18" r="60.73"/><path class="cls-2" d="M242.76,150.07h-166a25.56,25.56,0,0,0-16.72,6.18c-10,8.59-21.75,9.28-27.43,4.49-8.52-7.19-6.05-37.84-6.05-49.87V63a39.2,39.2,0,0,1,39.2-39.2h177A39.2,39.2,0,0,1,282,63v47.85A39.2,39.2,0,0,1,242.76,150.07Z"/><path class="cls-3" d="M117,62.11l7.52,15.23A2,2,0,0,0,126,78.42l16.81,2.44a2,2,0,0,1,1.09,3.38L131.75,96.1a2,2,0,0,0-.57,1.75l2.87,16.74a2,2,0,0,1-2.87,2.08l-15-7.9a2,2,0,0,0-1.84,0l-15,7.9a2,2,0,0,1-2.87-2.08l2.87-16.74a2,2,0,0,0-.57-1.75L86.54,84.24a2,2,0,0,1,1.1-3.38l14.87-2.16a5.69,5.69,0,0,0,4.29-3.12l6.65-13.47A2,2,0,0,1,117,62.11Z"/><path class="cls-3" d="M197.16,62.11l7.52,15.23a2,2,0,0,0,1.49,1.08L223,80.86a2,2,0,0,1,1.1,3.38L211.91,96.1a2,2,0,0,0-.57,1.75l2.87,16.74a2,2,0,0,1-2.87,2.08l-15-7.9a2,2,0,0,0-1.84,0l-15,7.9a2,2,0,0,1-2.87-2.08l2.87-16.74a2,2,0,0,0-.57-1.75L166.7,84.24a2,2,0,0,1,1.09-3.38l14.87-2.16a5.69,5.69,0,0,0,4.3-3.12l6.65-13.47A2,2,0,0,1,197.16,62.11Z"/><circle class="cls-3" cx="77.26" cy="213.9" r="16.11"/><path class="cls-4" d="M75.77,182.94c1-.07,2-.1,3-.1a46.33,46.33,0,1,1-16.22,2.91"/><path class="cls-4" d="M38.61,248.37S60,225.62,76.23,230"/><path class="cls-4" d="M85.15,227.94s24.16,9.26,32.73,24.68"/></g></svg>