<svg id="Layer_1" data-name="Layer 1" xmlns="http://www.w3.org/2000/svg" viewBox="0 0 300 300"><defs><style>.cls-1{fill:#1e72ba;}.cls-2{fill:#e0d9eb;}</style></defs><path class="cls-1" d="M149.56,25.36a24.54,24.54,0,1,0,24.55,24.53A24.54,24.54,0,0,0,149.56,25.36Zm0,42a17.51,17.51,0,1,1,17.5-17.51A17.5,17.5,0,0,1,149.56,67.4Z"/><path class="cls-1" d="M186.21,102.49h-7.54A20.75,20.75,0,0,0,158,83.09H141.17a20.76,20.76,0,0,0-20.71,19.4h-7.54A26.1,26.1,0,0,1,139,76.38h21.09A26.1,26.1,0,0,1,186.21,102.49Z"/><path class="cls-1" d="M149.56,197.51a24.55,24.55,0,1,0,24.55,24.54A24.54,24.54,0,0,0,149.56,197.51Zm0,42.05a17.51,17.51,0,1,1,17.5-17.51A17.5,17.5,0,0,1,149.56,239.56Z"/><path class="cls-1" d="M186.21,274.64h-7.54A20.75,20.75,0,0,0,158,255.25H141.17a20.75,20.75,0,0,0-20.71,19.39h-7.54a26.1,26.1,0,0,1,26.1-26.1h21.09A26.1,26.1,0,0,1,186.21,274.64Z"/><path class="cls-1" d="M52.22,117.16A24.55,24.55,0,1,0,76.77,141.7,24.54,24.54,0,0,0,52.22,117.16Zm0,42a17.5,17.5,0,1,1,17.5-17.5A17.51,17.51,0,0,1,52.22,159.2Z"/><path class="cls-1" d="M88.87,194.29H81.33A20.76,20.76,0,0,0,60.61,174.9H43.83a20.76,20.76,0,0,0-20.72,19.39H15.57a26.11,26.11,0,0,1,26.11-26.1H62.77A26.11,26.11,0,0,1,88.87,194.29Z"/><path class="cls-1" d="M247.77,117.16a24.55,24.55,0,1,0,24.55,24.54A24.54,24.54,0,0,0,247.77,117.16Zm0,42a17.5,17.5,0,1,1,17.5-17.5A17.5,17.5,0,0,1,247.77,159.2Z"/><path class="cls-1" d="M284.43,194.29h-7.54a20.76,20.76,0,0,0-20.72-19.39H239.39a20.76,20.76,0,0,0-20.72,19.39h-7.54a26.11,26.11,0,0,1,26.1-26.1h21.09A26.11,26.11,0,0,1,284.43,194.29Z"/><path class="cls-1" d="M43,109.07H53.48a107.21,107.21,0,0,1,49.71-49.52V49.06A116.73,116.73,0,0,0,43,109.07Zm202.68,0h10.52A116.69,116.69,0,0,0,195,48.68V59.13A107.3,107.3,0,0,1,245.64,109.07ZM195,252.55V263a116.8,116.8,0,0,0,59.39-56.61H243.7A107.34,107.34,0,0,1,195,252.55ZM55.41,206.39H44.7a116.76,116.76,0,0,0,58.49,56.23V252.13A107.29,107.29,0,0,1,55.41,206.39Z"/><circle class="cls-2" cx="149.56" cy="155.84" r="25.83"/></svg>