<svg xmlns="http://www.w3.org/2000/svg" viewBox="0 0 300 300"><defs><style>.cls-1{fill:#e0d9eb;}.cls-2,.cls-4{fill:none;stroke:#1e72ba;stroke-miterlimit:10;}.cls-2{strokeWidth:6px;}.cls-3{fill:#1e72ba;}.cls-4{strokeWidth:5px;}</style></defs><g id="Layer_2" data-name="Layer 2"><circle class="cls-1" cx="109.97" cy="132.32" r="53.63"/><rect class="cls-2" x="19.25" y="186.55" width="27.74" height="86.57"/><rect class="cls-2" x="46.99" y="186.55" width="27.74" height="86.57"/><rect class="cls-2" x="97.88" y="186.55" width="27.74" height="84.61" transform="translate(-97.7 83.96) rotate(-29.3)"/><path class="cls-2" d="M178.1,249.15h92.28a0,0,0,0,1,0,0v24a0,0,0,0,1,0,0H156.17a0,0,0,0,1,0,0v-2a21.93,21.93,0,0,1,21.93-21.93Z"/><rect class="cls-3" x="237.06" y="143.84" width="8.1" height="127.29"/><rect class="cls-3" x="173.27" y="26.88" width="43.27" height="8.79"/><polygon class="cls-3" points="173.27 26.88 155.11 50.83 162.81 55.74 178.22 34.97 173.27 26.88"/><path class="cls-3" d="M185.9,28.83l2.79,3.56s-6.49-1.26-6.07-1.78A17.86,17.86,0,0,1,185.9,28.83Z"/><polygon class="cls-3" points="209.98 34.83 233.43 119.97 241.1 117.74 216.54 26.88 209.98 34.83"/><circle class="cls-3" cx="239.65" cy="132.32" r="16.8"/><path class="cls-4" d="M92.32,81.73l70.62,43.55s37.13-38.66-5-70.28C157.92,55,114.93,30.65,92.32,81.73Z"/><path class="cls-2" d="M144.15,115.45a19.26,19.26,0,1,1-32.9-20"/></g></svg>