<svg xmlns="http://www.w3.org/2000/svg" viewBox="0 0 300 300"><defs><style>.cls-1{fill:#dedaed;}.cls-2{fill:none;stroke:#1e72ba;stroke-miterlimit:10;strokeWidth:6px;}.cls-3{fill:#1e72ba;}.cls-4{fill:#1074bb;}</style></defs><g id="Layer_3" data-name="Layer 3"><circle class="cls-1" cx="240.95" cy="123.22" r="55.8"/><path class="cls-2" d="M186.83,57.15s-12.92-27.85-43.17-13c0,0-13.86,6.17-15.69,21.76A28,28,0,0,0,135.5,88l49.87,53.58,48.24-50.16C246.56,78,245.28,56,230.37,44.76c-.42-.31-.85-.62-1.3-.93C229.07,43.83,201.89,29.7,186.83,57.15Z"/><path class="cls-2" d="M142.15,93.7H159l11.75-23.19,13,31.08,10-21.58L199.5,94.5H215"/><rect class="cls-2" x="58.23" y="173.79" width="41.55" height="100.93" rx="6.19" transform="translate(-133.55 117.72) rotate(-43.97)"/><circle class="cls-2" cx="100.82" cy="248.93" r="4.33"/><path class="cls-2" d="M70,183.45s20.89-23.89,35.28-25.19c12.89-1.16,25.13,2.24,39.57,9.5a25.76,25.76,0,0,0,11.35,2.74l32.46.23a10.31,10.31,0,0,1,5.18,1.36,7.36,7.36,0,0,1,3.59,4.76s1.27,6.94-1.57,12.63a11.53,11.53,0,0,1-10.37,6.26h-38"/><path class="cls-2" d="M198.86,175.15s12.19-3.7,19.29-11.19l19.44-20.51a12,12,0,0,1,9-3.79,10.05,10.05,0,0,1,5.9,2c5,3.85,10.79,9.75,5.59,17.94,0,0-39.71,45.41-54.86,54.33-1.06.63-2.08,1.32-3.07,2.05-3.13,2.3-12.69,7.16-35.31,4.29,0,0-26.49-3.64-35.38,4s-10.89,9.87-10.89,9.87"/><polyline class="cls-2" points="56.54 74.76 56.54 50.38 75.63 50.38 75.63 74.76"/><polyline class="cls-2" points="59.67 74.76 31.86 74.76 31.86 94.05 56.54 94.05"/><polyline class="cls-2" points="75.56 94.09 99.94 94.09 99.94 75 75.56 75"/><polyline class="cls-2" points="75.56 90.97 75.56 118.78 56.27 118.78 56.27 94.09"/><rect class="cls-3" x="55.61" y="90.9" width="3.79" height="4.03"/><rect class="cls-3" x="72.48" y="74.48" width="3.39" height="3.66"/><circle class="cls-4" cx="100.82" cy="249.14" r="2.06"/></g></svg>