<svg xmlns="http://www.w3.org/2000/svg" viewBox="0 0 300 300"><defs><style>.cls-1{fill:#dddbee;}.cls-2,.cls-4,.cls-6{fill:none;stroke-miterlimit:10;}.cls-2,.cls-4{stroke:#1e72ba;}.cls-2,.cls-6{strokeWidth:6px;}.cls-3{fill:#1e72ba;}.cls-4{strokeWidth:7px;}.cls-5{font-size:55.96px;fill:#1074bb;font-family:LeagueSpartan-Bold, League Spartan;font-weight:700;}.cls-6{stroke:#1074bb;}</style></defs><g id="Layer_4" data-name="Layer 4"><circle class="cls-1" cx="207.24" cy="172.48" r="51.05"/><path class="cls-2" d="M110,203.66a8.11,8.11,0,0,1-8.11-8.11V28.42A8.11,8.11,0,0,1,110,20.31h71.54a8.11,8.11,0,0,1,8.11,8.11v74.46"/><line class="cls-2" x1="189.21" y1="92.54" x2="104.6" y2="92.54"/><circle class="cls-3" cx="118.92" cy="38.83" r="5.16"/><circle class="cls-3" cx="118.92" cy="56.53" r="5.16"/><circle class="cls-3" cx="118.92" cy="74.24" r="5.16"/><line class="cls-2" x1="109.74" y1="203.66" x2="146.96" y2="203.66"/><path class="cls-3" d="M186.33,102.86v5.48a14.38,14.38,0,0,1,6.57-3.2v-2.28Z"/><path class="cls-3" d="M147,200.25h2.35s2.47,5.62,3.85,6.77l-6.2.06Z"/><circle class="cls-4" cx="207.53" cy="171.45" r="52.78"/><text class="cls-5" transform="translate(170.13 188.22) scale(1.15 1)">{ }</text><rect class="cls-6" x="104.6" y="249.39" width="90.04" height="30.3" rx="9.67"/><line class="cls-6" x1="150.06" y1="247.39" x2="150.06" y2="217.13"/><line class="cls-6" x1="104.09" y1="264.54" x2="17.34" y2="264.54"/><line class="cls-6" x1="196.05" y1="264.54" x2="282.66" y2="264.54"/></g></svg>