<?xml version="1.0" encoding="UTF-8"?><svg id="a" xmlns="http://www.w3.org/2000/svg" viewBox="0 0 500 500"><defs><style>.b{stroke:#0D0E10;stroke-miterlimit:10;strokeLinecap:round;strokeLinejoin:round;}.b,.c{fill:none;}.b,.c,.d{strokeWidth:20px;}.c,.d{stroke:#a2a7ae;strokeLinecap:round;strokeLinejoin:round;}.d{fill:#fff;}</style></defs><g><polygon class="b" points="38.67 128.57 252.73 250.15 465.07 128.57 251.87 6.99 38.67 128.57"/><polygon class="b" points="38.67 371.73 252.19 493.01 465.59 371.91 251.87 250.15 38.67 371.73"/><line class="b" x1="38.67" y1="128.57" x2="38.67" y2="371.73"/><line class="b" x1="465.07" y1="128.57" x2="465.59" y2="371.58"/><line class="b" x1="252.19" y1="255.08" x2="252.19" y2="487.54"/><line class="b" x1="252.19" y1="13.62" x2="252.19" y2="247.37"/></g><polyline class="c" points="109.36 88.26 38.67 128.57 112.02 170.23"/><line class="d" x1="38.67" y1="208.12" x2="38.67" y2="131.45"/><polyline class="c" points="320.96 46.39 252.19 7.17 252.19 90.14"/><line class="d" x1="185.28" y1="44.96" x2="251.87" y2="6.99"/><polyline class="c" points="393.08 169.79 465.07 128.57 465.23 205.79"/><line class="d" x1="398.94" y1="90.86" x2="464.78" y2="128.41"/><polyline class="c" points="397.89 410.33 465.59 371.91 395.97 332.33"/><line class="d" x1="465.42" y1="295.35" x2="465.59" y2="371.58"/><polyline class="c" points="190.67 458.07 252.19 493.01 252.19 419.53"/><line class="d" x1="316.21" y1="456.54" x2="253.32" y2="492.37"/><polyline class="c" points="38.67 299.95 38.67 371.73 109.49 331.35"/><line class="d" x1="109.49" y1="411.96" x2="38.67" y2="371.73"/><polyline class="c" points="181.01 209.42 252.69 250.15 324.6 209"/><line class="c" x1="252.19" y1="321.83" x2="252.13" y2="250.15"/></svg>