<svg version="1.2" xmlns="http://www.w3.org/2000/svg" xmlns:xlink="http://www.w3.org/1999/xlink" overflow="visible" preserveAspectRatio="none" viewBox="0 0 17.62570888468815 4.804511278195491" width="17.62570888468815" height="4.804511278195491"><g transform="translate(0, 0)"><defs><path id="path-167810784484860" d="M11.659735349716488 27.81203007518799 C11.659735349716488 27.81203007518799 13.678638941398916 31.285714285714302 13.678638941398916 31.285714285714302 C13.678638941398916 31.285714285714302 13.678638941398916 31.285714285714302 13.678638941398916 31.285714285714302 C14.086956521739179 32.07518796992483 14.903591682419714 32.61654135338348 15.833648393194764 32.61654135338348 C15.833648393194764 32.61654135338348 15.833648393194764 32.61654135338348 15.833648393194764 32.61654135338348 C15.833648393194764 32.61654135338348 15.833648393194764 32.61654135338348 15.833648393194764 32.61654135338348 C15.833648393194764 32.61654135338348 29.28544423440464 32.61654135338348 29.28544423440464 32.61654135338348 C29.28544423440464 32.61654135338348 26.495274102079488 27.81203007518799 26.495274102079488 27.81203007518799 C26.495274102079488 27.81203007518799 11.659735349716488 27.81203007518799 11.659735349716488 27.81203007518799 Z" vector-effect="non-scaling-stroke"/></defs><g transform="translate(-11.659735349716488, -27.81203007518799)"><path style="strokeWidth: 0; strokeLinecap: butt; strokeLinejoin: miter; fill: rgb(0, 0, 0);" d="M11.659735349716488 27.81203007518799 C11.659735349716488 27.81203007518799 13.678638941398916 31.285714285714302 13.678638941398916 31.285714285714302 C13.678638941398916 31.285714285714302 13.678638941398916 31.285714285714302 13.678638941398916 31.285714285714302 C14.086956521739179 32.07518796992483 14.903591682419714 32.61654135338348 15.833648393194764 32.61654135338348 C15.833648393194764 32.61654135338348 15.833648393194764 32.61654135338348 15.833648393194764 32.61654135338348 C15.833648393194764 32.61654135338348 15.833648393194764 32.61654135338348 15.833648393194764 32.61654135338348 C15.833648393194764 32.61654135338348 29.28544423440464 32.61654135338348 29.28544423440464 32.61654135338348 C29.28544423440464 32.61654135338348 26.495274102079488 27.81203007518799 26.495274102079488 27.81203007518799 C26.495274102079488 27.81203007518799 11.659735349716488 27.81203007518799 11.659735349716488 27.81203007518799 Z" vector-effect="non-scaling-stroke"/></g></g></svg>