<svg xmlns="http://www.w3.org/2000/svg" viewBox="0 0 300 300"><defs><style>.cls-1,.cls-2{fill:none;stroke:#0976bc;stroke-miterlimit:10;strokeWidth:14px;}.cls-2{strokeLinecap:round;}</style></defs><g id="Layer_9" data-name="Layer 9"><path class="cls-1" d="M280.63,145.91h-122A25.65,25.65,0,0,1,133,120.26h0A25.66,25.66,0,0,1,158.65,94.6h122a4.34,4.34,0,0,1,4.33,4h0a279.55,279.55,0,0,1,0,43.31h0A4.34,4.34,0,0,1,280.63,145.91Z"/><path class="cls-1" d="M161.82,142.27a24.73,24.73,0,0,1-19.22,24.38L53,187.08a29.17,29.17,0,0,1-35.65-28.44V81.15A29.16,29.16,0,0,1,53.21,52.77l93.41,22.09a19,19,0,0,1,14.61,18.25l0,1.49"/><path class="cls-2" d="M78.2,211.89H66.94A14.14,14.14,0,0,1,52.8,197.76v-9.27"/><path class="cls-2" d="M261.16,170.87s-19,33.13-5,99.39"/><path class="cls-2" d="M61.63,241.15s.19,33.89,33.51,26.42c0,0,68.93-14.55,72.76-42.7"/><line class="cls-2" x1="129.78" y1="256.9" x2="134.39" y2="281.74"/><path class="cls-2" d="M100.56,29.08S221.33-34.6,269.2,89.26"/></g></svg>