<svg xmlns="http://www.w3.org/2000/svg" viewBox="0 0 300 300"><defs><style>.cls-1{fill:#0976bc;}</style></defs><g id="Layer_8" data-name="Layer 8"><path class="cls-1" d="M164.7,22.27h0c0,.45,0,.89,0,1.34"/><path class="cls-1" d="M164.71,118.78h0c0-.2,0-.41,0-.61"/><path class="cls-1" d="M208.16,67.39h0a3.12,3.12,0,0,1,.09,6l-.09,0a42.48,42.48,0,0,0-39.43,39.43h0a3.13,3.13,0,0,1-6.07,0h0A42.46,42.46,0,0,0,123.24,73.6h0a3.21,3.21,0,0,1,0-6.2h0A42.46,42.46,0,0,0,162.67,28h0a3.13,3.13,0,0,1,6.06,0l.21.79C169.49,52.12,189.82,65.26,208.16,67.39Z"/><path class="cls-1" d="M178.3,196.51h0a5.54,5.54,0,0,1,.16,10.73l-.16,0a75.42,75.42,0,0,0-70,70h0a5.57,5.57,0,0,1-10.79,0h0a75.42,75.42,0,0,0-70-69.77h-.06a5.69,5.69,0,0,1,.06-11h0a75.43,75.43,0,0,0,70-70h0a5.56,5.56,0,0,1,10.77,0l.36,1.39C109.62,169.38,145.73,192.72,178.3,196.51Z"/><path class="cls-1" d="M274.74,160.32h0a2.28,2.28,0,0,1,.07,4.42h-.07a31,31,0,0,0-28.81,28.82h0a2.3,2.3,0,0,1-4.45,0h0a31,31,0,0,0-28.81-28.71h0a2.34,2.34,0,0,1,0-4.53h0a31,31,0,0,0,28.82-28.82h0a2.3,2.3,0,0,1,4.44,0l.14.58C246.48,149.16,261.34,158.76,274.74,160.32Z"/></g></svg>