<svg id="a" xmlns="http://www.w3.org/2000/svg" viewBox="0 0 500 500"><defs><style>.b{fill:#fff;strokeLinecap:round;strokeLinejoin:round;}.b,.c{stroke:#fff;strokeWidth:5.87px;}.c{fill:none;stroke-miterlimit:10;}</style></defs><polygon class="b" points="68.46 232.42 80.53 211.86 89.51 233.95 112.79 239.07 94.56 254.43 96.88 278.16 76.64 265.57 54.8 275.11 60.51 251.97 44.68 234.14 68.46 232.42"/><polygon class="b" points="156.25 232.42 168.32 211.86 177.3 233.95 200.58 239.07 182.35 254.43 184.68 278.16 164.43 265.57 142.59 275.11 148.3 251.97 132.48 234.14 156.25 232.42"/><polygon class="b" points="244.04 232.42 256.11 211.86 265.09 233.95 288.37 239.07 270.14 254.43 272.47 278.16 252.22 265.57 230.38 275.11 236.09 251.97 220.27 234.14 244.04 232.42"/><polygon class="b" points="331.83 232.42 343.9 211.86 352.88 233.95 376.16 239.07 357.93 254.43 360.26 278.16 340.01 265.57 318.17 275.11 323.88 251.97 308.06 234.14 331.83 232.42"/><path class="c" d="M419.77,232.18l11.36-19.35c.23-.39,.81-.35,.98,.07l8.45,20.79c.07,.17,.21,.29,.39,.33l21.92,4.82c.44,.1,.58,.66,.24,.95l-17.16,14.46c-.14,.12-.21,.29-.19,.47l2.19,22.33c.04,.45-.45,.76-.83,.52l-19.06-11.85c-.15-.1-.34-.11-.51-.04l-20.56,8.98c-.42,.18-.86-.19-.75-.63l5.38-21.79c.04-.17,0-.36-.12-.49l-14.9-16.78c-.3-.34-.08-.88,.37-.91l22.38-1.62c.18-.01,.34-.11,.43-.27Z"/></svg>