<svg id="Layer_3" data-name="Layer 3" xmlns="http://www.w3.org/2000/svg" viewBox="0 0 300 300"><defs><style>.cls-1{fill:none;stroke:#1375bc;stroke-miterlimit:10;strokeWidth:11px;}</style></defs><path class="cls-1" d="M261,245.64h-70.9a23.08,23.08,0,0,1-20.87-13.24l-11.64-24.73a7.61,7.61,0,0,0-13.78,0L132.13,232.4a23.08,23.08,0,0,1-20.87,13.24H40.36a22.73,22.73,0,0,1-22.72-22.73V101.13A22.73,22.73,0,0,1,40.36,78.4H261a22.73,22.73,0,0,1,22.72,22.73V222.91A22.73,22.73,0,0,1,261,245.64Z"/><line class="cls-1" x1="134.35" y1="227.68" x2="167.55" y2="227.68"/><path class="cls-1" d="M38.32,78.4V75.47A21.58,21.58,0,0,1,59.89,53.89h182.3a21.58,21.58,0,0,1,21.58,21.58V78.4"/><circle class="cls-1" cx="87.62" cy="164.81" r="32.09"/><circle class="cls-1" cx="214.62" cy="164.81" r="32.09"/></svg>