<svg xmlns="http://www.w3.org/2000/svg" viewBox="0 0 300 300"><defs><style>.cls-1{fill:#0976bc;}</style></defs><g id="Layer_5" data-name="Layer 5"><path class="cls-1" d="M296.43,121.23s1-11.17-36.51-12.32c0,0-61.53-3.57-81.83,5.81-16,7.4-19.86,8.84-24.3,9.41a31.24,31.24,0,0,1-7.73,0c-4.44-.57-8.3-2-24.31-9.41-20.3-9.38-81.83-5.81-81.83-5.81C2.39,110.06,3.41,121.23,3.41,121.23s-1,15.9.38,17.17,4.86,7.15,4.86,7.15c1.14,12,7.14,34.6,7.14,34.6,8.05,24,53,22.47,53,22.47,29.36-.39,41.62-8.43,41.62-8.43C129.28,186.4,138.6,150,138.6,150c1.15-8.6,6.24-9.69,9.22-9.57H152c3-.12,8.07,1,9.22,9.57,0,0,9.32,36.4,28.21,44.19,0,0,12.26,8,41.62,8.43,0,0,44.93,1.53,53-22.47,0,0,5.84-22,7.14-34.6,0,0,3.45-5.87,4.86-7.15S296.43,121.23,296.43,121.23Zm-287.56,9v-5.41L16,127.31Zm119,10.44c-2,14.63-7.86,27.77-16.88,37.26a48.19,48.19,0,0,1-35.68,15.3H61.8a45.38,45.38,0,0,1-10-1C34,188.24,22,174.11,20.65,155.13V144.25a25,25,0,0,1,25-25H76.43C77.52,119.22,130.69,117.85,127.88,140.67Zm151.31,14.46c0,19.29-14.51,34.11-33,37.47a43.29,43.29,0,0,1-7.8.63h-7.28A82.88,82.88,0,0,1,214,191.48c-11.54-2.43-18.05-6.08-25.16-13.55-9-9.49-14.9-22.63-16.88-37.26-2.81-22.82,50.36-21.45,51.45-21.45h30.75a25,25,0,0,1,25,25Zm11.73-24.94L284,127.33l6.93-2.24Z"/></g></svg>