<svg xmlns="http://www.w3.org/2000/svg" width="27" height="27" viewBox="0 0 27 27" fill="none">
  <path
    d="M24.1851 16.5017C23.5883 14.8809 22.7187 13.374 21.6139 12.0464V9.02082C21.6131 8.34442 21.344 7.69594 20.8657 7.21767C20.3874 6.7394 19.7389 6.47039 19.0625 6.46966H15.6813C15.7453 6.30032 15.7788 6.12103 15.7804 5.94002C15.7799 5.52805 15.616 5.13309 15.3247 4.8418C15.0333 4.5505 14.6384 4.38667 14.2264 4.38624C13.9751 4.38801 13.7281 4.45151 13.5071 4.57116C13.2707 4.44399 13.0054 4.38041 12.7371 4.38665C12.4688 4.39289 12.2068 4.46873 11.9766 4.60675C11.7465 4.74477 11.5561 4.94022 11.4242 5.17395C11.2924 5.40767 11.2235 5.67166 11.2243 5.94002C11.2278 6.12137 11.2633 6.30068 11.3292 6.46966H7.9422C7.2658 6.47039 6.6173 6.7394 6.13899 7.21767C5.66068 7.69594 5.39162 8.34442 5.39084 9.02082V12.0463C4.28595 13.374 3.41635 14.881 2.81964 16.5019C2.27691 17.9926 1.66199 19.6823 2.51932 21.2111C2.74591 21.6107 3.04736 21.9629 3.4072 22.2485C4.14008 22.8193 5.04518 23.1241 5.97403 23.1128H21.0307C21.9595 23.1241 22.8646 22.8193 23.5975 22.2485C23.9573 21.963 24.2587 21.6108 24.4854 21.2113C25.3427 19.6823 24.7278 17.9926 24.1851 16.5017ZM14.9679 5.94005C14.9679 6.08665 14.9244 6.22996 14.8429 6.35186C14.7615 6.47376 14.6457 6.56878 14.5103 6.62489C14.3749 6.681 14.2258 6.69569 14.082 6.6671C13.9382 6.63852 13.8062 6.56794 13.7025 6.46428C13.5988 6.36063 13.5282 6.22857 13.4996 6.08478C13.4709 5.941 13.4856 5.79196 13.5417 5.6565C13.5977 5.52105 13.6927 5.40526 13.8146 5.32378C13.9365 5.2423 14.0798 5.1988 14.2264 5.19876C14.4229 5.19895 14.6114 5.2771 14.7504 5.41607C14.8894 5.55504 14.9676 5.74349 14.9679 5.94005ZM12.0368 5.94005C12.037 5.74347 12.1152 5.55501 12.2542 5.41603C12.3933 5.27705 12.5817 5.19891 12.7783 5.19876C12.8064 5.20188 12.8343 5.20664 12.8618 5.21302C12.7554 5.40299 12.6921 5.61409 12.6766 5.8313C12.661 6.04851 12.6935 6.26648 12.7718 6.46968H12.2664C12.1946 6.4013 12.1373 6.31918 12.0978 6.22818C12.0584 6.13719 12.0376 6.03922 12.0368 5.94005ZM6.20334 9.02082C6.20387 8.55983 6.38725 8.11787 6.71324 7.79192C7.03923 7.46597 7.48121 7.28264 7.9422 7.28216H13.4575C13.6901 7.42081 13.9558 7.49401 14.2265 7.49401C14.4973 7.49401 14.763 7.42081 14.9955 7.28216H19.0625C19.5235 7.28264 19.9655 7.46597 20.2915 7.79192C20.6174 8.11787 20.8008 8.55983 20.8014 9.02082V11.136C20.6975 11.027 20.597 10.9162 20.4895 10.8091C20.4418 10.7622 20.4143 10.6985 20.413 10.6315V9.70835C20.4124 9.20021 20.2103 8.71304 19.851 8.35373C19.4917 7.99442 19.0045 7.79231 18.4964 7.79176H8.50832C8.00017 7.79231 7.513 7.99441 7.15369 8.35372C6.79438 8.71303 6.59227 9.20021 6.59172 9.70835V10.6316C6.59041 10.6984 6.56292 10.7621 6.51515 10.8089C6.40764 10.916 6.30722 11.0268 6.20332 11.1358L6.20334 9.02082ZM23.7768 20.814C23.6009 21.1229 23.3671 21.395 23.0881 21.6154C22.4997 22.0702 21.7743 22.3117 21.0307 22.3003H5.97403C5.23042 22.3117 4.50499 22.0702 3.9166 21.6154C3.63756 21.395 3.4037 21.1228 3.22788 20.8138C2.55305 19.6099 3.07673 18.1712 3.58294 16.7798C4.33977 14.7449 5.53695 12.9023 7.08884 11.3839C7.28899 11.1845 7.40234 10.9141 7.40424 10.6316V9.70835C7.40454 9.41562 7.52096 9.13497 7.72795 8.92798C7.93494 8.72099 8.21559 8.60457 8.50832 8.60426H18.4964C18.7891 8.60456 19.0698 8.72098 19.2768 8.92798C19.4837 9.13497 19.6002 9.41562 19.6005 9.70835V10.6316C19.6024 10.9142 19.7157 11.1846 19.9159 11.3842C21.4677 12.9024 22.6649 14.7448 23.4218 16.7796C23.928 18.1712 24.4517 19.6099 23.7768 20.814Z"
    fill="#fff" />
</svg>