<svg width="32" height="32" viewBox="0 0 32 32" fill="none" xmlns="http://www.w3.org/2000/svg">
<g id="Layer_1" clip-path="url(#clip0_3822_103)">
<g id="Group">
<g id="Group_2">
<path id="Vector" d="M24.9922 8.56911C24.9922 6.01286 22.9126 3.93311 20.3564 3.93311C17.7992 3.93311 15.7188 6.01279 15.7188 8.56911C15.7188 11.1264 17.7992 13.2068 20.3564 13.2068C22.9126 13.2068 24.9922 11.1264 24.9922 8.56911ZM20.3563 11.9568C18.4884 11.9568 16.9687 10.4371 16.9687 8.56911C16.9687 6.70204 18.4884 5.18311 20.3563 5.18311C22.2232 5.18311 23.7421 6.70204 23.7421 8.56911C23.7422 10.437 22.2232 11.9568 20.3563 11.9568Z" fill="white"/>
<path id="Vector_2" d="M27.0302 18.7668H20.8028V17.1397H21.2301C21.9196 17.1397 22.4805 16.578 22.4805 15.8876V15.7146C22.9721 15.5685 23.4465 15.372 23.899 15.1269L24.0214 15.2488C24.2577 15.4851 24.5721 15.6152 24.9068 15.6152H24.9092C25.2439 15.6146 25.5576 15.4839 25.7907 15.2491L27.0345 14.0071C27.5197 13.5183 27.5191 12.7251 27.0329 12.2389L26.9104 12.1164C27.1557 11.6646 27.3525 11.1902 27.4988 10.6981H27.6699C28.3604 10.6981 28.9221 10.1364 28.9221 9.446V7.69206C28.9221 7.00156 28.3604 6.43987 27.6699 6.43987H27.4987C27.3526 5.94919 27.1559 5.47519 26.9106 5.02275L27.0346 4.89912C27.5186 4.41156 27.5186 3.61837 27.0327 3.129L25.7911 1.88912C25.3049 1.40306 24.5118 1.40244 24.0214 1.88912L23.8989 2.01175C23.447 1.76637 22.9727 1.56962 22.4807 1.42331V1.25219C22.4805 0.561687 21.9196 0 21.2301 0H19.4745C18.7851 0 18.2241 0.561687 18.2241 1.25212V1.42325C17.7321 1.56956 17.2578 1.76631 16.8059 2.01169L16.6817 1.8875C16.1928 1.40225 15.3997 1.403 14.9139 1.88881L13.6702 3.13087C13.1862 3.61837 13.1862 4.41156 13.6726 4.90156L13.7943 5.02281C13.5499 5.47425 13.3537 5.94812 13.2076 6.43981H13.0348C12.3444 6.43981 11.7827 7.0015 11.7827 7.692V8.18837H9.38712C9.04194 8.18837 8.76212 8.46825 8.76212 8.81337C8.76212 9.1585 9.04194 9.43837 9.38712 9.43837H11.7827V9.44587C11.7827 10.1363 12.3444 10.698 13.0348 10.698H13.2076C13.3539 11.1911 13.5501 11.6654 13.7945 12.1161L13.6717 12.2389C13.1856 12.725 13.1849 13.5182 13.6721 14.0088L14.9121 15.2471C15.1471 15.4837 15.4607 15.6145 15.7955 15.6151C16.1296 15.6142 16.4464 15.4856 16.6825 15.2495L16.8057 15.1268C17.2582 15.3719 17.7326 15.5684 18.2242 15.7145V15.8874C18.2242 16.5779 18.7851 17.1396 19.4746 17.1396H19.5529V21.8454C19.5529 22.0876 19.3482 22.2922 19.1061 22.2922H9.24187C9.13725 22.2922 9.03425 22.3185 8.94237 22.3686L4.25275 24.9288V22.9172C4.25275 22.5721 3.97294 22.2922 3.62775 22.2922H1.695C1.44963 22.2922 1.25 22.0917 1.25 21.8454V9.88525C1.25 9.63887 1.44963 9.43844 1.695 9.43844H3.77306C4.11825 9.43844 4.39806 9.15856 4.39806 8.81344C4.39806 8.46831 4.11825 8.18844 3.77306 8.18844H1.695C0.760375 8.18844 0 8.94963 0 9.88525V21.8454C0 22.7811 0.760375 23.5422 1.695 23.5422H3.00281V25.9821C3.00281 26.2027 3.11912 26.4071 3.30887 26.5196C3.40706 26.5779 3.51737 26.6071 3.62781 26.6071C3.73075 26.6071 3.83387 26.5817 3.92731 26.5307L9.40144 23.5422H12.6394C12.637 23.6061 12.6349 23.6699 12.6349 23.7339C12.6349 26.4729 14.8631 28.7012 17.602 28.7012H22.9828L27.0259 31.867C27.138 31.9548 27.2741 31.9999 27.4113 31.9999C27.5044 31.9999 27.598 31.9792 27.6849 31.9368C27.8998 31.8321 28.0362 31.614 28.0362 31.3749V28.5988C29.0456 28.3893 29.9692 27.8674 30.6812 27.0954C31.5311 26.1738 31.9991 24.98 31.9991 23.7339C31.9991 20.9951 29.7701 18.7668 27.0302 18.7668ZM19.4741 15.8875V15.232C19.4741 14.9396 19.2714 14.6864 18.9862 14.6222C18.2962 14.4672 17.6411 14.1959 17.0391 13.8159C16.9364 13.7511 16.8207 13.7194 16.7057 13.7194C16.5446 13.7194 16.385 13.7816 16.2644 13.9017L15.7972 14.3646L14.5556 13.1228L15.0197 12.6587C15.2266 12.4518 15.2623 12.1292 15.1057 11.8821C14.7271 11.2848 14.4561 10.6301 14.3 9.93594C14.2359 9.65075 13.9826 9.448 13.6902 9.448L13.0326 9.44587L13.0347 7.68975H13.6902C13.9826 7.68975 14.2359 7.48706 14.3 7.20181C14.4554 6.51025 14.7267 5.85525 15.1061 5.25512C15.2624 5.00775 15.2262 4.68494 15.0189 4.47837L14.5571 4.0185C14.5564 4.017 14.556 4.01212 14.5552 4.01344L15.7993 2.77294L16.2634 3.23712C16.4703 3.44394 16.7929 3.47975 17.04 3.32306C17.6402 2.94256 18.2949 2.67087 18.9861 2.51562C19.2713 2.4515 19.474 2.19819 19.474 1.90581L19.4745 1.25L21.2305 1.25212V1.90587C21.2305 2.19825 21.4332 2.4515 21.7184 2.51569C22.4096 2.67094 23.0642 2.94262 23.6645 3.32312C23.9116 3.47975 24.2343 3.444 24.4411 3.23719L24.9074 2.77331L26.1474 4.0115C26.1481 4.01306 26.1482 4.01656 26.1498 4.01606L25.6857 4.47844C25.4783 4.685 25.4421 5.00781 25.5985 5.25519C25.9797 5.85819 26.2515 6.51319 26.4063 7.20187C26.4704 7.48706 26.7237 7.68981 27.0161 7.68981L27.6719 7.692L27.6698 9.44806H27.0161C26.7237 9.44806 26.4704 9.65075 26.4064 9.936C26.251 10.6272 25.9793 11.282 25.5989 11.8822C25.4423 12.1292 25.4781 12.4519 25.6849 12.6587L26.1493 13.1244L24.9044 14.3641L24.4403 13.9017C24.2337 13.6959 23.9123 13.6603 23.6656 13.8159C23.0636 14.1959 22.4085 14.4672 21.7186 14.6222C21.4333 14.6864 21.2306 14.9397 21.2306 15.2321L21.2302 15.8897L19.4741 15.8875ZM27.3563 27.4377C27.0336 27.4662 26.7862 27.7364 26.7862 28.0603V30.0918L23.5837 27.5842C23.4737 27.4981 23.3381 27.4512 23.1984 27.4512H17.602C15.5524 27.4512 13.8849 25.7837 13.8849 23.734C13.8849 23.6699 13.8869 23.606 13.8901 23.5423H19.1061C20.0417 23.5423 20.8029 22.7811 20.8029 21.8455V20.0168H27.0303C29.0809 20.0168 30.7492 21.6844 30.7492 23.7341C30.7491 25.6431 29.2588 27.27 27.3563 27.4377Z" fill="white"/>
<path id="Vector_3" d="M9.15625 12.9639H10.7595C11.1047 12.9639 11.3845 12.684 11.3845 12.3389C11.3845 11.9937 11.1047 11.7139 10.7595 11.7139H9.15625C8.81106 11.7139 8.53125 11.9937 8.53125 12.3389C8.53125 12.684 8.81106 12.9639 9.15625 12.9639Z" fill="white"/>
<path id="Vector_4" d="M3.79688 12.9639H6.25756C6.60275 12.9639 6.88256 12.684 6.88256 12.3389C6.88256 11.9937 6.60275 11.7139 6.25756 11.7139H3.79688C3.45169 11.7139 3.17188 11.9937 3.17188 12.3389C3.17188 12.684 3.45169 12.9639 3.79688 12.9639Z" fill="white"/>
<path id="Vector_5" d="M12.6331 15.8643C12.6331 15.5191 12.3532 15.2393 12.0081 15.2393H3.79688C3.45169 15.2393 3.17188 15.5191 3.17188 15.8643C3.17188 16.2094 3.45169 16.4893 3.79688 16.4893H12.0081C12.3532 16.4893 12.6331 16.2094 12.6331 15.8643Z" fill="white"/>
<path id="Vector_6" d="M17.0103 20.0166C17.3554 20.0166 17.6353 19.7367 17.6353 19.3916C17.6353 19.0465 17.3554 18.7666 17.0103 18.7666H14.1562C13.8111 18.7666 13.5312 19.0465 13.5312 19.3916C13.5312 19.7367 13.8111 20.0166 14.1562 20.0166H17.0103Z" fill="white"/>
<path id="Vector_7" d="M3.79688 18.7666C3.45169 18.7666 3.17188 19.0465 3.17188 19.3916C3.17188 19.7367 3.45169 20.0166 3.79688 20.0166H11.2587C11.6039 20.0166 11.8837 19.7367 11.8837 19.3916C11.8837 19.0465 11.6039 18.7666 11.2587 18.7666H3.79688Z" fill="white"/>
<path id="Vector_8" d="M6.57806 9.43848H6.58162C6.92681 9.43848 7.20487 9.1586 7.20487 8.81348C7.20487 8.46835 6.92331 8.18848 6.57812 8.18848C6.23294 8.18848 5.95312 8.46835 5.95312 8.81348C5.95312 9.1586 6.23288 9.43848 6.57806 9.43848Z" fill="white"/>
</g>
</g>
</g>
<defs>
<clipPath id="clip0_3822_103">
<rect width="32" height="32" fill="white"/>
</clipPath>
</defs>
</svg>
