<svg xmlns="http://www.w3.org/2000/svg" width="25" height="25" viewBox="0 0 25 25" fill="none">
  <path d="M23.7204 22.8074L21.8984 6.40955C21.8763 6.21232 21.8023 6.02446 21.6841 5.86506C21.5658 5.70567 21.4075 5.58043 21.2251 5.50208L19.0077 4.55173C19.0023 4.54944 18.9968 4.54795 18.9914 4.54594L18.9917 4.54528L16.1541 3.48123L15.4674 1.76442C15.4424 1.70181 15.4009 1.64714 15.3473 1.60618C15.2937 1.56523 15.2301 1.53952 15.1631 1.53177C15.1488 1.53027 15.1345 1.5296 15.1201 1.52976V1.5293H9.88379V1.52976C9.86944 1.5296 9.85509 1.53027 9.84082 1.53177C9.77384 1.53952 9.71019 1.56523 9.65662 1.60618C9.60305 1.64714 9.56155 1.70181 9.53651 1.76442L8.78846 3.63453C8.76991 3.68092 8.76083 3.73054 8.76177 3.78049C8.76271 3.83044 8.77365 3.87969 8.79393 3.92534L10.29 7.29155C10.3132 7.34384 10.3482 7.3901 10.3921 7.42678C10.436 7.46346 10.4877 7.48958 10.5433 7.50313C10.5989 7.51668 10.6568 7.51729 10.7127 7.50493C10.7686 7.49256 10.8208 7.46755 10.8655 7.43181L12.1278 6.42194V20.1697L11.1126 23.2152C10.3915 23.1747 9.68846 22.9745 9.05425 22.6289C8.42004 22.2834 7.87055 21.8012 7.44553 21.2173L6.51758 17.1957V5.15471L8.26969 4.49769L8.00703 3.79723L6.01223 4.54528C6.00011 4.55019 5.98825 4.55571 5.97669 4.56183L5.97627 4.56099L3.95514 5.57151C3.73831 5.68052 3.56236 5.8565 3.45339 6.07335L1.39972 10.1806C1.32202 10.3365 1.28147 10.5082 1.28125 10.6824V16.6877C1.28146 16.8618 1.32201 17.0336 1.39972 17.1895L4.68697 23.764C4.71069 23.8114 4.74422 23.8532 4.78535 23.8867C4.82648 23.9202 4.87425 23.9446 4.92551 23.9582C4.97677 23.9718 5.03033 23.9743 5.08265 23.9657C5.13497 23.957 5.18485 23.9373 5.22897 23.9079L7.47311 22.4118C7.47844 22.4082 7.48293 22.4038 7.48808 22.4C8.53386 23.4065 9.92847 23.9693 11.3799 23.9707C11.4584 23.9707 11.5349 23.946 11.5986 23.9001C11.6623 23.8542 11.7099 23.7894 11.7347 23.715L12.502 21.4133L13.2692 23.7151C13.294 23.7895 13.3417 23.8543 13.4053 23.9002C13.469 23.946 13.5455 23.9707 13.624 23.9707C14.3608 23.9708 15.0904 23.8257 15.7711 23.5438C16.4518 23.2619 17.0703 22.8486 17.5913 22.3276C18.1123 21.8067 18.5256 21.1882 18.8075 20.5074C19.0894 19.8267 19.2345 19.0971 19.2344 18.3604V18.2494L20.3643 23.673C20.3748 23.7233 20.3955 23.7709 20.4253 23.8129C20.455 23.8548 20.493 23.8902 20.537 23.9168C20.581 23.9434 20.6301 23.9606 20.681 23.9674C20.732 23.9742 20.7838 23.9704 20.8332 23.9563L23.4514 23.2083C23.5364 23.184 23.61 23.1304 23.6592 23.057C23.7085 22.9836 23.7301 22.8952 23.7204 22.8074ZM5.16642 23.0505L2.06876 16.8549C2.04286 16.803 2.02936 16.7457 2.0293 16.6877V10.6824C2.02937 10.6244 2.04289 10.5671 2.0688 10.5152L4.12247 6.40782C4.15882 6.33556 4.21748 6.27692 4.28975 6.24059L5.76953 5.50068V14.751L5.00493 12.266L4.28999 12.486L5.7822 17.3357L6.41552 20.0801L4.8291 21.0318L5.21392 21.6733L6.59238 20.8463L6.84312 21.9328L5.16642 23.0505ZM15.4623 3.76577L14.2271 6.54472L13.0095 5.57062L15.0298 2.68456L15.4623 3.76577ZM12.502 4.99135L11.9112 4.14746H13.0927L12.502 4.99135ZM13.6163 3.39941H11.3876L10.6021 2.27734H14.4018L13.6163 3.39941ZM10.7768 6.54472L9.54165 3.76577L9.97412 2.68456L11.9944 5.57062L10.7768 6.54472ZM18.4863 18.3604C18.4865 19.6037 18.0103 20.7999 17.1556 21.703C16.3009 22.606 15.1327 23.1473 13.8912 23.2155L12.876 20.1697V6.4218L14.1383 7.43167C14.183 7.46741 14.2353 7.49242 14.2911 7.50479C14.347 7.51715 14.4049 7.51654 14.4605 7.50299C14.5161 7.48944 14.5678 7.46332 14.6118 7.42664C14.6557 7.38996 14.6906 7.3437 14.7138 7.29141L16.0667 4.24723L18.4863 5.15471V18.3604ZM21.0146 23.1265L19.2344 14.5815V5.46271L20.9305 6.18963C20.9913 6.21574 21.0441 6.25749 21.0835 6.31062C21.1229 6.36375 21.1476 6.42637 21.1549 6.49212L22.769 21.0183L21.3879 21.3636L21.5693 22.0893L22.8524 21.7685L22.9421 22.5757L21.0146 23.1265Z" fill="#fff"/>
  <path d="M17.3584 9.75781H14.3662C14.267 9.75781 14.1719 9.79722 14.1017 9.86736C14.0316 9.9375 13.9922 10.0326 13.9922 10.1318V12.75C13.9922 12.8195 14.0115 12.8875 14.048 12.9466C14.0846 13.0057 14.1368 13.0535 14.1989 13.0845L15.695 13.8326C15.747 13.8585 15.8042 13.8721 15.8623 13.8721C15.9204 13.8721 15.9776 13.8585 16.0296 13.8326L17.5257 13.0845C17.5878 13.0535 17.64 13.0057 17.6766 12.9466C17.7131 12.8875 17.7324 12.8195 17.7324 12.75V10.1318C17.7324 10.0326 17.693 9.9375 17.6229 9.86736C17.5527 9.79722 17.4576 9.75781 17.3584 9.75781ZM16.9844 12.5189L15.8623 13.0799L14.7402 12.5189V10.5059H16.9844V12.5189Z" fill="#fff"/>
  <path d="M10.6328 8.26172H11.3809V9.00977H10.6328V8.26172Z" fill="#fff"/>
  <path d="M10.6328 12.002H11.3809V12.75H10.6328V12.002Z" fill="#fff"/>
  <path d="M10.6328 15.7422H11.3809V16.4902H10.6328V15.7422Z" fill="#fff"/>
  <path d="M10.6328 19.4824H11.3809V20.2305H10.6328V19.4824Z" fill="#fff"/>
</svg>