<svg xmlns="http://www.w3.org/2000/svg" width="22" height="23" viewBox="0 0 22 23" fill="none">
  <g clip-path="url(#clip0_3783_766)">
    <path d="M3.09375 14.3438C2.88979 14.3438 2.69041 14.4042 2.52082 14.5175C2.35123 14.6309 2.21905 14.7919 2.141 14.9804C2.06295 15.1688 2.04252 15.3761 2.08232 15.5762C2.12211 15.7762 2.22032 15.96 2.36455 16.1042C2.50877 16.2484 2.69252 16.3466 2.89256 16.3864C3.09261 16.4262 3.29996 16.4058 3.48839 16.3278C3.67683 16.2497 3.83789 16.1175 3.9512 15.9479C4.06452 15.7783 4.125 15.579 4.125 15.375C4.12469 15.1016 4.01595 14.8395 3.82262 14.6461C3.62928 14.4528 3.36716 14.3441 3.09375 14.3438ZM3.09375 15.7188C3.02576 15.7188 2.9593 15.6986 2.90277 15.6608C2.84624 15.623 2.80218 15.5694 2.77617 15.5065C2.75015 15.4437 2.74334 15.3746 2.75661 15.3079C2.76987 15.2413 2.80261 15.18 2.85068 15.1319C2.89876 15.0839 2.96001 15.0511 3.02669 15.0379C3.09337 15.0246 3.16249 15.0314 3.2253 15.0574C3.28811 15.0834 3.3418 15.1275 3.37957 15.184C3.41734 15.2406 3.4375 15.307 3.4375 15.375C3.4374 15.4661 3.40115 15.5535 3.33671 15.618C3.27226 15.6824 3.18489 15.7186 3.09375 15.7188Z" fill="white"/>
    <path d="M16.1563 14.3438C15.9523 14.3438 15.7529 14.4042 15.5833 14.5175C15.4137 14.6309 15.2816 14.7919 15.2035 14.9804C15.1254 15.1688 15.105 15.3761 15.1448 15.5762C15.1846 15.7762 15.2828 15.96 15.427 16.1042C15.5713 16.2484 15.755 16.3466 15.9551 16.3864C16.1551 16.4262 16.3625 16.4058 16.5509 16.3278C16.7393 16.2497 16.9004 16.1175 17.0137 15.9479C17.127 15.7783 17.1875 15.579 17.1875 15.375C17.1872 15.1016 17.0784 14.8395 16.8851 14.6461C16.6918 14.4528 16.4297 14.3441 16.1563 14.3438ZM16.1563 15.7188C16.0883 15.7188 16.0218 15.6986 15.9653 15.6608C15.9087 15.623 15.8647 15.5694 15.8387 15.5065C15.8126 15.4437 15.8058 15.3746 15.8191 15.3079C15.8324 15.2413 15.8651 15.18 15.9132 15.1319C15.9613 15.0839 16.0225 15.0511 16.0892 15.0379C16.1559 15.0246 16.225 15.0314 16.2878 15.0574C16.3506 15.0834 16.4043 15.1275 16.4421 15.184C16.4798 15.2406 16.5 15.307 16.5 15.375C16.4999 15.4661 16.4636 15.5535 16.3992 15.618C16.3348 15.6824 16.2474 15.7186 16.1563 15.7188Z" fill="white"/>
    <path d="M18.5625 15.375C18.5625 15.0556 18.4989 14.7393 18.3754 14.4447C18.2519 14.1501 18.071 13.883 17.8432 13.6591C17.6154 13.4352 17.3453 13.2588 17.0486 13.1403C16.7519 13.0219 16.4346 12.9637 16.1152 12.9691C14.8111 12.9909 13.75 14.0854 13.75 15.409V16.5637C12.8083 16.3074 11.435 16.0625 9.62499 16.0625C7.81502 16.0625 6.44165 16.3074 5.49999 16.5637V15.375C5.49999 15.0512 5.43462 14.7306 5.30778 14.4326C5.18095 14.1346 4.99527 13.8653 4.76186 13.6408C4.52846 13.4163 4.25214 13.2412 3.94945 13.126C3.64676 13.0109 3.32394 12.958 3.00032 12.9706C2.39557 12.996 1.82245 13.2477 1.39444 13.6757C0.966441 14.1037 0.714778 14.6768 0.689293 15.2816C0.666351 15.8759 0.86419 16.4576 1.24468 16.9147C1.62518 17.3718 2.16139 17.6719 2.74999 17.7572V19.1563C2.7504 19.5208 2.8954 19.8703 3.15317 20.1281C3.41094 20.3859 3.76044 20.5309 4.12499 20.5313V21.5625C4.12499 21.6537 4.16121 21.7411 4.22567 21.8056C4.29014 21.87 4.37757 21.9063 4.46874 21.9063H5.49999C5.56382 21.9063 5.6264 21.8885 5.6807 21.8549C5.735 21.8214 5.77888 21.7733 5.80743 21.7163L6.39993 20.5313H12.85L13.4425 21.7163C13.4711 21.7733 13.515 21.8214 13.5693 21.8549C13.6236 21.8885 13.6862 21.9063 13.75 21.9063H14.7812C14.8724 21.9063 14.9598 21.87 15.0243 21.8056C15.0888 21.7411 15.125 21.6537 15.125 21.5625V20.5313C15.4895 20.5309 15.839 20.3859 16.0968 20.1281C16.3546 19.8703 16.4996 19.5208 16.5 19.1563V17.7568C17.0724 17.6734 17.5957 17.3869 17.9744 16.9496C18.353 16.5123 18.5618 15.9534 18.5625 15.375ZM5.28755 21.2188H4.81249V20.5313H5.6313L5.28755 21.2188ZM14.4375 21.2188H13.9624L13.6187 20.5313H14.4375V21.2188ZM16.1562 17.0938C16.0651 17.0938 15.9776 17.13 15.9132 17.1944C15.8487 17.2589 15.8125 17.3463 15.8125 17.4375V19.1563C15.8123 19.3385 15.7398 19.5133 15.6109 19.6422C15.482 19.771 15.3073 19.8435 15.125 19.8438H4.12499C3.94272 19.8435 3.76798 19.771 3.63909 19.6422C3.51021 19.5133 3.4377 19.3385 3.43749 19.1563V17.4375C3.43749 17.3463 3.40127 17.2589 3.33681 17.1944C3.27234 17.13 3.18491 17.0938 3.09374 17.0938C2.86236 17.0938 2.63337 17.0471 2.42048 16.9564C2.20759 16.8658 2.01519 16.7331 1.85482 16.5663C1.69444 16.3996 1.56939 16.2021 1.48716 15.9858C1.40494 15.7696 1.36722 15.5389 1.37628 15.3077C1.39449 14.876 1.57418 14.4668 1.87975 14.1612C2.18533 13.8556 2.59451 13.6759 3.02628 13.6577C3.25748 13.6486 3.48813 13.6863 3.70441 13.7685C3.92069 13.8507 4.11814 13.9758 4.28494 14.1361C4.45173 14.2965 4.58443 14.4889 4.67508 14.7018C4.76574 14.9146 4.81247 15.1436 4.81249 15.375V16.7758C4.27061 16.9649 3.98586 17.1213 3.95647 17.1379L4.29278 17.7375C4.31053 17.7276 6.10984 16.75 9.62499 16.75C13.1401 16.75 14.9394 17.7276 14.9565 17.7371L15.2935 17.1379C15.2641 17.1213 14.9794 16.9647 14.4375 16.7758V15.409C14.4375 14.4582 15.1953 13.6721 16.1267 13.6565C16.3537 13.6526 16.5791 13.6936 16.7901 13.7773C17.0011 13.861 17.1934 13.9856 17.356 14.144C17.5185 14.3024 17.6481 14.4915 17.7372 14.7002C17.8263 14.909 17.8732 15.1333 17.8752 15.3602C17.8771 15.5872 17.8341 15.8123 17.7486 16.0226C17.6631 16.2328 17.5368 16.424 17.3769 16.5852C17.2171 16.7464 17.027 16.8743 16.8175 16.9616C16.6079 17.0489 16.3832 17.0938 16.1562 17.0938Z" fill="white"/>
    <path d="M3.4375 10.5625C3.43772 10.3802 3.51022 10.2055 3.6391 10.0766C3.76799 9.94772 3.94273 9.87522 4.125 9.875H15.125C15.3073 9.87522 15.482 9.94772 15.6109 10.0766C15.7398 10.2055 15.8123 10.3802 15.8125 10.5625V12.2812H16.5V10.5625C16.4996 10.198 16.3546 9.84845 16.0968 9.59068C15.839 9.33291 15.4895 9.18791 15.125 9.1875H4.125C3.76045 9.18791 3.41095 9.33291 3.15318 9.59068C2.89541 9.84845 2.75041 10.198 2.75 10.5625V12.2812H3.4375V10.5625Z" fill="white"/>
    <path d="M7.5625 11.25H8.25V11.9375H7.5625V11.25Z" fill="white"/>
    <path d="M9.28125 12.9688H9.96875V13.6562H9.28125V12.9688Z" fill="white"/>
    <path d="M5.84375 12.9688H6.53125V13.6562H5.84375V12.9688Z" fill="white"/>
    <path d="M7.5625 14.6875H8.25V15.375H7.5625V14.6875Z" fill="white"/>
    <path d="M11 11.25H11.6875V11.9375H11V11.25Z" fill="white"/>
    <path d="M12.7188 12.9688H13.4062V13.6562H12.7188V12.9688Z" fill="white"/>
    <path d="M11 14.6875H11.6875V15.375H11V14.6875Z" fill="white"/>
    <path d="M19.9375 0.59375H10.3125C9.94795 0.594159 9.59845 0.739157 9.34068 0.99693C9.08291 1.2547 8.93791 1.6042 8.9375 1.96875V2.3125H9.625V1.96875C9.62522 1.78648 9.69772 1.61174 9.8266 1.48285C9.95549 1.35397 10.1302 1.28147 10.3125 1.28125H14.7812V8.5H15.4688V1.28125H19.9375C20.1198 1.28147 20.2945 1.35397 20.4234 1.48285C20.5523 1.61174 20.6248 1.78648 20.625 1.96875V19.1562C20.6248 19.3385 20.5523 19.5133 20.4234 19.6421C20.2945 19.771 20.1198 19.8435 19.9375 19.8438H16.8438V20.5312H17.6626L18.2551 21.7162C18.2836 21.7733 18.3275 21.8214 18.3818 21.8549C18.4361 21.8885 18.4987 21.9062 18.5625 21.9062H19.5938C19.6849 21.9062 19.7724 21.87 19.8368 21.8056C19.9013 21.7411 19.9375 21.6537 19.9375 21.5625V20.5312C20.302 20.5308 20.6515 20.3858 20.9093 20.1281C21.1671 19.8703 21.3121 19.5208 21.3125 19.1562V1.96875C21.3121 1.6042 21.1671 1.2547 20.9093 0.99693C20.6515 0.739157 20.302 0.594159 19.9375 0.59375ZM19.25 21.2188H18.7749L18.4312 20.5312H19.25V21.2188Z" fill="white"/>
    <path d="M3.09374 7.8125H6.18749V8.5H6.87499V7.8125H9.96874C10.0163 7.8125 10.0633 7.80263 10.1069 7.78352C10.1504 7.76442 10.1895 7.73648 10.2217 7.70149C10.2539 7.6665 10.2785 7.62521 10.2939 7.58023C10.3093 7.53525 10.3152 7.48756 10.3113 7.44018L9.96753 3.31518C9.96037 3.22925 9.92117 3.14916 9.85773 3.09079C9.79428 3.03241 9.71121 3 9.62499 3H6.87499V2.3125H6.18749V3H3.43749C3.35127 3 3.2682 3.03241 3.20475 3.09079C3.1413 3.14916 3.10211 3.22925 3.09494 3.31518L2.75119 7.44018C2.74724 7.48756 2.75316 7.53525 2.76858 7.58023C2.784 7.62521 2.80858 7.6665 2.84078 7.70149C2.87297 7.73648 2.91207 7.76442 2.95561 7.78352C2.99916 7.80263 3.04619 7.8125 3.09374 7.8125ZM3.75378 3.6875H9.30869L9.59517 7.125H3.46731L3.75378 3.6875Z" fill="white"/>
  </g>
  <defs>
    <clipPath id="clip0_3783_766">
      <rect width="22" height="22" fill="white" transform="translate(0 0.25)"/>
    </clipPath>
  </defs>
</svg>