<svg width="32" height="32" viewBox="0 0 32 32" fill="none" xmlns="http://www.w3.org/2000/svg">
<g id="Layer_1" clip-path="url(#clip0_3822_95)">
<path id="Vector" d="M31.2967 28.1902C31.0443 25.8321 29.4527 23.924 27.3235 23.1829C28.1105 22.5847 28.6199 21.6391 28.6199 20.5766C28.6199 18.7719 27.1517 17.3037 25.347 17.3037C23.5423 17.3037 22.0741 18.7719 22.0741 20.5766C22.0741 21.6394 22.5837 22.5853 23.3712 23.1835C22.7471 23.4015 22.1612 23.7232 21.636 24.1395C21.434 23.9049 21.2169 23.6815 20.9846 23.4715C20.1762 22.7404 19.2276 22.2036 18.2059 21.8862C19.2893 21.168 20.0056 19.9382 20.0056 18.5438C20.0056 16.3338 18.2076 14.5357 15.9975 14.5357C13.7875 14.5357 11.9895 16.3338 11.9895 18.5438C11.9895 19.9382 12.7057 21.168 13.7891 21.8862C12.7674 22.2035 11.8187 22.7404 11.0103 23.4715C10.778 23.6815 10.5609 23.9049 10.3589 24.1395C9.83366 23.7232 9.24779 23.4015 8.62379 23.1835C9.41123 22.5853 9.92085 21.6394 9.92085 20.5765C9.92085 18.7718 8.45266 17.3036 6.64797 17.3036C4.84329 17.3036 3.3751 18.7718 3.3751 20.5765C3.3751 21.6391 3.88441 22.5846 4.67135 23.1829C2.5421 23.924 0.950475 25.8321 0.698162 28.1903C0.683037 28.3314 0.7286 28.4722 0.823412 28.5777C0.918225 28.6832 1.05341 28.7434 1.19529 28.7434H8.5991V29.6458C8.5991 30.9439 9.65516 32 10.9533 32H21.0415C22.3395 32 23.3957 30.9439 23.3957 29.6458V28.7434H30.7995C30.9413 28.7434 31.0765 28.6832 31.1713 28.5777C31.2662 28.4722 31.3118 28.3312 31.2967 28.1902ZM25.347 18.3036C26.6002 18.3036 27.6199 19.3232 27.6199 20.5765C27.6199 21.8298 26.6003 22.8493 25.347 22.8493C24.0937 22.8493 23.0741 21.8298 23.0741 20.5765C23.0741 19.3232 24.0937 18.3036 25.347 18.3036ZM12.9894 18.5438C12.9894 16.8851 14.3388 15.5357 15.9975 15.5357C17.6562 15.5357 19.0055 16.8851 19.0055 18.5438C19.0055 20.2018 17.657 21.5509 15.9991 21.5518C15.9985 21.5518 15.998 21.5518 15.9974 21.5518C15.9969 21.5518 15.9964 21.5518 15.9958 21.5518C14.3379 21.5509 12.9894 20.2018 12.9894 18.5438ZM6.64797 18.3036C7.90122 18.3036 8.92085 19.3232 8.92085 20.5765C8.92085 21.8298 7.90129 22.8493 6.64797 22.8493C5.39466 22.8493 4.3751 21.8298 4.3751 20.5765C4.3751 19.3232 5.39466 18.3036 6.64797 18.3036ZM8.66404 27.7435H1.78291C2.2821 25.4883 4.28354 23.8494 6.64791 23.8494C7.7881 23.8494 8.87698 24.2344 9.7581 24.9399C9.20773 25.7864 8.83379 26.7391 8.66404 27.7435ZM22.3957 29.6458C22.3957 30.3925 21.7882 31 21.0415 31H10.9533C10.2066 31 9.5991 30.3925 9.5991 29.6458V28.2706C9.9611 25.0088 12.7064 22.5526 15.9957 22.5518C15.9963 22.5518 15.9969 22.5518 15.9974 22.5518C15.998 22.5518 15.9985 22.5518 15.999 22.5518C19.2884 22.5526 22.0335 25.0088 22.3956 28.2706V29.6458H22.3957ZM23.3308 27.7434C23.161 26.7391 22.7871 25.7864 22.2367 24.94C23.1178 24.2344 24.2067 23.8494 25.3469 23.8494C27.7113 23.8494 29.7127 25.4883 30.2119 27.7435H23.3308V27.7434ZM11.1072 7.51369C11.0152 7.79663 11.1055 8.1 11.3375 8.2865L13.4022 9.94594L12.7073 12.5021C12.6292 12.7892 12.7344 13.0877 12.9751 13.2627C13.2158 13.4376 13.5322 13.4452 13.7811 13.2823L15.9974 11.8315L18.2139 13.2824C18.3333 13.3606 18.4682 13.3994 18.6028 13.3994C18.7489 13.3994 18.8946 13.3536 19.0198 13.2627C19.2605 13.0878 19.3657 12.7893 19.2876 12.5021L18.5927 9.946L20.6574 8.28644C20.8892 8.10006 20.9797 7.79681 20.8878 7.51381C20.7958 7.23069 20.5443 7.0385 20.2472 7.02413L17.6013 6.89512L16.6612 4.41875C16.5555 4.14056 16.295 3.96075 15.9975 3.96075C15.6999 3.96075 15.4394 4.1405 15.3338 4.41869L14.3935 6.89512L11.7479 7.02406C11.4505 7.0385 11.199 7.23075 11.1072 7.51369ZM14.6319 7.88469C14.9139 7.87094 15.1608 7.6915 15.261 7.42756L15.9974 5.48794L16.7339 7.42769C16.8342 7.69156 17.0811 7.871 17.363 7.88469L19.4353 7.98575L17.8182 9.2855C17.5981 9.46237 17.5037 9.75275 17.5778 10.0251L18.1222 12.0272L16.3863 10.8909C16.2682 10.8135 16.1328 10.7748 15.9974 10.7748C15.862 10.7748 15.7267 10.8135 15.6087 10.8908L13.8727 12.0272L14.417 10.0251C14.4911 9.75275 14.3968 9.46244 14.1767 9.2855L12.5595 7.98575L14.6319 7.88469ZM15.4974 2.33488V0.5C15.4974 0.223875 15.7213 0 15.9974 0C16.2735 0 16.4974 0.223875 16.4974 0.5V2.33488C16.4974 2.611 16.2735 2.83488 15.9974 2.83488C15.7213 2.83488 15.4974 2.611 15.4974 2.33488ZM18.5423 5.29725C18.3575 5.09206 18.3741 4.77588 18.5793 4.59113L20.6241 2.75C20.8293 2.56519 21.1454 2.58181 21.3302 2.787C21.515 2.99219 21.4984 3.30837 21.2932 3.49312L19.2485 5.33425C19.1529 5.42031 19.0333 5.46269 18.914 5.46269C18.7773 5.46269 18.641 5.40694 18.5423 5.29725ZM10.6645 2.787C10.8493 2.58175 11.1655 2.56525 11.3707 2.75L13.4154 4.59113C13.6206 4.77594 13.6372 5.09206 13.4524 5.29725C13.3537 5.40687 13.2174 5.46269 13.0807 5.46269C12.9614 5.46269 12.8419 5.42031 12.7462 5.33425L10.7016 3.49312C10.4964 3.30837 10.4798 2.99219 10.6645 2.787Z" fill="white"/>
</g>
<defs>
<clipPath id="clip0_3822_95">
<rect width="32" height="32" fill="white"/>
</clipPath>
</defs>
</svg>
