<svg width="32" height="32" viewBox="0 0 32 32" fill="none" xmlns="http://www.w3.org/2000/svg">
<g id="Frame">
<g id="Artboard431">
<path id="Vector" fill-rule="evenodd" clip-rule="evenodd" d="M17.7235 27.7161C16.8809 28.048 15.996 28.2991 15.0775 28.4592L14.6642 28.5315C14.6069 28.5415 14.5485 28.5415 14.4912 28.5315L14.0782 28.4592C7.55565 27.3222 2.73438 21.5976 2.73438 14.9731V5.80237C2.73438 5.60158 2.85403 5.42006 3.03863 5.341L14.3799 0.479577C14.5062 0.425428 14.6492 0.425428 14.7755 0.479577L26.1168 5.341C26.3014 5.42006 26.421 5.60158 26.421 5.80237V14.9731C26.421 16.7436 26.0767 18.4499 25.4477 20.0215L25.4716 20.0346L26.2185 19.7026C26.4083 19.6181 26.6305 19.6594 26.7774 19.8063L27.9336 20.9626C28.0803 21.1093 28.1217 21.3311 28.0376 21.5208C28.0376 21.5208 27.7067 22.2679 27.7067 22.2679C27.911 22.6378 28.073 23.0287 28.1899 23.4351L28.9515 23.7282C29.1453 23.8028 29.2732 23.989 29.2732 24.1967V25.8323C29.2732 26.0399 29.1453 26.2261 28.9515 26.3008C28.9515 26.3008 28.1896 26.594 28.1896 26.5939C28.0725 26.999 27.91 27.3894 27.7064 27.7588L28.0376 28.5065C28.1217 28.6962 28.0803 28.918 27.9336 29.0647L26.7774 30.221C26.6307 30.3677 26.4088 30.409 26.2191 30.325C26.2191 30.325 25.4723 29.9942 25.4723 29.9942C25.1033 30.1984 24.712 30.3602 24.3065 30.4771L24.0133 31.2389C23.9388 31.4327 23.7525 31.5605 23.5449 31.5605H21.9093C21.7017 31.5605 21.5154 31.4327 21.4408 31.2389C21.4408 31.2389 21.1477 30.4772 21.1477 30.4772C20.7415 30.36 20.3507 30.1975 19.9811 29.9939L19.2334 30.325C19.0437 30.409 18.8219 30.3677 18.6752 30.221L17.5189 29.0647C17.372 28.9178 17.3308 28.6957 17.4152 28.5059C17.4152 28.5059 17.7471 27.7593 17.7471 27.7593C17.7392 27.745 17.7313 27.7305 17.7235 27.7161ZM24.5268 19.6203C25.1022 18.1726 25.417 16.6022 25.417 14.9731V6.13329L14.5777 1.48707L3.7383 6.13329V14.9731C3.7383 21.1119 8.20631 26.4166 14.2506 27.4703L14.5777 27.5275L14.9048 27.4703C15.7447 27.3238 16.5542 27.0953 17.3254 26.7939C17.3036 26.7277 17.283 26.6612 17.2635 26.5942L16.501 26.3008C16.3169 26.2298 16.1923 26.0583 16.1803 25.8633C15.6904 26.0254 15.1854 26.1557 14.6675 26.2516C14.6071 26.2628 14.5451 26.2628 14.4846 26.2516C9.04785 25.2442 5.03191 20.4373 5.03191 14.8954V7.09297C5.03191 6.89213 5.15163 6.7106 5.33629 6.63155L14.3785 2.75854C14.5047 2.70445 14.6475 2.70445 14.7737 2.75848L23.819 6.63148C24.0037 6.71054 24.1234 6.89206 24.1234 7.09297V14.8954C24.1234 16.134 23.923 17.3358 23.5509 18.4668C23.7562 18.4692 23.9396 18.5966 24.0134 18.7887L24.3067 19.5519C24.3806 19.5732 24.454 19.5961 24.5268 19.6203ZM16.1793 24.8005V24.1967C16.1793 23.989 16.3072 23.8028 16.501 23.7282C16.501 23.7282 17.2633 23.4348 17.2633 23.4349C17.381 23.0287 17.543 22.6379 17.7473 22.2683L17.4152 21.5215C17.3308 21.3317 17.372 21.1095 17.5189 20.9626L18.6752 19.8063C18.822 19.6594 19.0443 19.6181 19.2341 19.7026C19.2341 19.7026 19.9809 20.0346 19.9809 20.0346C20.3505 19.8305 20.741 19.6687 21.1462 19.5518L21.4409 18.788C21.5157 18.5945 21.7018 18.4668 21.9093 18.4668H22.4885C22.8974 17.3448 23.1195 16.1404 23.1195 14.8954V7.42408L14.5761 3.76598L6.03583 7.42402V14.8954C6.03583 19.9245 9.65817 24.2906 14.5762 25.2471C15.128 25.1398 15.6635 24.9897 16.1793 24.8005ZM23.4617 20.1519L23.2 19.4707H22.2536L21.9905 20.1525C21.931 20.3068 21.7992 20.4219 21.6383 20.4602C21.1566 20.5746 20.6973 20.7649 20.2751 21.0251C20.1341 21.112 19.9592 21.1237 19.8079 21.0564L19.1412 20.76L18.4726 21.4287L18.769 22.0953C18.8363 22.2467 18.8246 22.4215 18.7376 22.5625C18.4773 22.985 18.2869 23.4448 18.1709 23.9284C18.1323 24.0891 18.0172 24.2204 17.8631 24.2797L17.1833 24.5414V25.4876L17.8631 25.7492C18.0171 25.8085 18.1321 25.9397 18.1708 26.1002C18.2868 26.5821 18.477 27.0432 18.7373 27.4641C18.8245 27.6052 18.8364 27.7804 18.769 27.9321L18.4726 28.5987L19.1416 29.2677L19.8085 28.9722C19.9593 28.9055 20.1333 28.917 20.274 29.0032C20.6965 29.2621 21.1561 29.4541 21.6396 29.5687C21.8008 29.6069 21.9328 29.7222 21.9923 29.8768L22.2539 30.5566H23.2002L23.4618 29.8768C23.5213 29.7223 23.6532 29.607 23.8142 29.5688C24.2956 29.4544 24.7563 29.2643 25.1767 29.0043C25.3177 28.9172 25.4925 28.9052 25.644 28.9722L26.3109 29.2677L26.9803 28.5983L26.6849 27.9314C26.618 27.7806 26.6297 27.6065 26.7158 27.4659C26.9747 27.0433 27.1668 26.5837 27.2814 26.1017C27.3197 25.9405 27.4349 25.8087 27.5895 25.7492L28.2692 25.4876V24.5414L27.5895 24.2797C27.4348 24.2202 27.3195 24.0882 27.2813 23.927C27.1669 23.4439 26.9766 22.9847 26.7165 22.5625C26.6297 22.4217 26.6179 22.2472 26.6849 22.0959L26.9803 21.429L26.3113 20.76L25.6446 21.0564C25.4933 21.1237 25.3184 21.112 25.1774 21.0251C24.7552 20.7649 24.2958 20.5746 23.8142 20.4602C23.653 20.4219 23.5211 20.3065 23.4617 20.1519ZM22.7263 21.6589C24.5798 21.6589 26.0827 23.1601 26.0827 25.0137C26.0827 26.8672 24.5798 28.3701 22.7263 28.3701C20.8727 28.3701 19.3715 26.8672 19.3715 25.0137C19.3715 23.16 20.8726 21.6589 22.7263 21.6589ZM22.7263 22.6628C21.4273 22.6628 20.3754 23.7147 20.3754 25.0137C20.3754 26.3127 21.4272 27.3662 22.7263 27.3662C24.0254 27.3662 25.0788 26.3127 25.0788 25.0137C25.0788 23.7146 24.0253 22.6628 22.7263 22.6628ZM11.1142 17.9978V18.0993C11.1142 18.6054 10.7007 19.0189 10.1946 19.0189H8.50253C7.99831 19.0189 7.583 18.6054 7.583 18.0993V10.7914C7.583 10.2853 7.99831 9.87183 8.50253 9.87183H10.1946C10.6665 9.87183 11.0579 10.2313 11.1086 10.6901C11.3489 10.6562 11.5184 10.5382 11.6424 10.3592C12.3301 9.36403 12.2694 9.38336 13.1694 8.79531C14.3504 8.02292 14.3002 7.70398 14.7498 5.74979C14.7799 5.61884 14.8613 5.5054 14.9758 5.43493C15.0902 5.36447 15.2282 5.34282 15.3587 5.37489C16.3938 5.62907 16.8533 6.40654 16.9556 7.32808C17.043 8.11691 16.8422 9.01015 16.5724 9.6765H19.5206C20.3482 9.6765 21.0251 10.3527 21.0251 11.1803C21.0251 11.4387 20.9589 11.6826 20.8426 11.8957C21.2792 12.1595 21.5723 12.6388 21.5723 13.1838C21.5723 13.6665 21.3425 14.0975 20.9868 14.373C21.1393 14.6082 21.2281 14.888 21.2281 15.1874C21.2281 15.8934 20.736 16.4898 20.0777 16.6498C20.1431 16.8181 20.1791 17.001 20.1791 17.1919C20.1791 18.0183 19.5031 18.6956 18.6753 18.6956H14.2725C12.8626 18.6956 11.9932 18.3142 11.1142 17.9978ZM11.1142 11.6991V16.9379C12.0129 17.248 12.8401 17.6917 14.2725 17.6917H18.6753C18.9505 17.6917 19.1752 17.4666 19.1752 17.1919C19.1752 16.9167 18.9505 16.692 18.6753 16.692H16.9067C16.6296 16.692 16.4047 16.4671 16.4047 16.1901C16.4047 15.913 16.6296 15.6881 16.9067 15.6881H19.7243C19.9995 15.6881 20.2241 15.4627 20.2241 15.1874C20.2241 14.9127 19.9994 14.6876 19.7243 14.6876H16.9067C16.6296 14.6876 16.4047 14.4627 16.4047 14.1856C16.4047 13.9086 16.6296 13.6837 16.9067 13.6837H20.0686C20.3437 13.6837 20.5684 13.459 20.5684 13.1838C20.5684 12.9088 20.3437 12.684 20.0686 12.684H16.9067C16.6296 12.684 16.4047 12.4591 16.4047 12.182C16.4047 11.905 16.6296 11.6801 16.9067 11.6801H19.5206C19.7958 11.6801 20.0212 11.4551 20.0212 11.1803C20.0212 10.9051 19.7958 10.6804 19.5206 10.6804H15.7289C15.5325 10.6804 15.3541 10.5659 15.2724 10.3872C15.1907 10.2085 15.2208 9.99863 15.3493 9.85005C15.6755 9.47302 16.0597 8.35804 15.9577 7.43876C15.9212 7.1096 15.8145 6.8034 15.5863 6.59258C15.1639 8.4226 15.0214 8.78364 13.7189 9.63553L13.7187 9.63565C12.9774 10.1199 13.0345 10.1107 12.4681 10.9302L12.4678 10.9305C12.1633 11.3706 11.7413 11.6581 11.1142 11.6991ZM8.58692 18.0149H10.1102V10.8757L8.58692 10.8757V18.0149Z" fill="white"/>
</g>
</g>
</svg>
