<svg width="32" height="32" viewBox="0 0 32 32" fill="none" xmlns="http://www.w3.org/2000/svg">
<g id="Layer_3" clip-path="url(#clip0_3822_129)">
<path id="Vector" d="M29.4997 4.5C29.8741 4.50141 30.2413 4.3977 30.5597 4.20068C30.878 4.00366 31.1347 3.72123 31.3004 3.38555C31.4662 3.04986 31.5344 2.67438 31.4973 2.30184C31.4602 1.9293 31.3193 1.57465 31.0906 1.27824C30.8619 0.981835 30.5546 0.755574 30.2036 0.625201C29.8527 0.494829 29.4722 0.46558 29.1054 0.540784C28.7387 0.615987 28.4004 0.792622 28.1291 1.05059C27.8577 1.30856 27.6643 1.63751 27.5707 2H17.9287C17.8195 1.57121 17.5707 1.19101 17.2213 0.919451C16.872 0.647895 16.4421 0.500473 15.9997 0.500473C15.5572 0.500473 15.1274 0.647895 14.778 0.919451C14.4287 1.19101 14.1798 1.57121 14.0707 2H4.42868C4.30698 1.52868 4.01756 1.11791 3.61468 0.844704C3.21179 0.571498 2.72309 0.454608 2.24018 0.515945C1.75727 0.577283 1.31331 0.812636 0.991518 1.17789C0.669724 1.54314 0.492188 2.01322 0.492188 2.5C0.492188 2.98679 0.669724 3.45687 0.991518 3.82212C1.31331 4.18737 1.75727 4.42273 2.24018 4.48406C2.72309 4.5454 3.21179 4.42851 3.61468 4.15531C4.01756 3.8821 4.30698 3.47133 4.42868 3H10.8287C8.54369 3.92039 6.53989 5.42368 5.01706 7.35999C3.49423 9.29629 2.50558 11.598 2.14968 14.0355C1.68753 14.1166 1.26875 14.358 0.966992 14.7173C0.665233 15.0766 0.499809 15.5308 0.499809 16C0.499809 16.4692 0.665233 16.9234 0.966992 17.2827C1.26875 17.642 1.68753 17.8834 2.14968 17.9645C2.50562 20.4021 3.49435 22.7038 5.01727 24.6401C6.54019 26.5764 8.5441 28.0797 10.8292 29H4.42868C4.30698 28.5287 4.01756 28.1179 3.61468 27.8447C3.21179 27.5715 2.72309 27.4546 2.24018 27.5159C1.75727 27.5773 1.31331 27.8126 0.991518 28.1779C0.669724 28.5431 0.492188 29.0132 0.492188 29.5C0.492188 29.9868 0.669724 30.4569 0.991518 30.8221C1.31331 31.1874 1.75727 31.4227 2.24018 31.4841C2.72309 31.5454 3.21179 31.4285 3.61468 31.1553C4.01756 30.8821 4.30698 30.4713 4.42868 30H14.0707C14.1798 30.4288 14.4287 30.809 14.778 31.0806C15.1274 31.3521 15.5572 31.4995 15.9997 31.4995C16.4421 31.4995 16.872 31.3521 17.2213 31.0806C17.5707 30.809 17.8195 30.4288 17.9287 30H27.5707C27.6924 30.4713 27.9818 30.8821 28.3847 31.1553C28.7876 31.4285 29.2763 31.5454 29.7592 31.4841C30.2421 31.4227 30.686 31.1874 31.0078 30.8221C31.3296 30.4569 31.5072 29.9868 31.5072 29.5C31.5072 29.0132 31.3296 28.5431 31.0078 28.1779C30.686 27.8126 30.2421 27.5773 29.7592 27.5159C29.2763 27.4546 28.7876 27.5715 28.3847 27.8447C27.9818 28.1179 27.6924 28.5287 27.5707 29H21.1707C23.4557 28.0796 25.4595 26.5763 26.9823 24.64C28.5051 22.7037 29.4938 20.4021 29.8497 17.9645C30.3118 17.8834 30.7306 17.642 31.0324 17.2827C31.3341 16.9234 31.4995 16.4692 31.4995 16C31.4995 15.5308 31.3341 15.0766 31.0324 14.7173C30.7306 14.358 30.3118 14.1166 29.8497 14.0355C29.4937 11.5979 28.505 9.2962 26.9821 7.35989C25.4592 5.42358 23.4553 3.92032 21.1702 3H27.5702C27.6807 3.42816 27.93 3.80761 28.2792 4.07901C28.6283 4.35041 29.0575 4.49846 29.4997 4.5ZM29.4997 1.5C29.6975 1.5 29.8908 1.55865 30.0553 1.66854C30.2197 1.77842 30.3479 1.9346 30.4236 2.11732C30.4992 2.30005 30.5191 2.50111 30.4805 2.6951C30.4419 2.88908 30.3466 3.06726 30.2068 3.20711C30.0669 3.34696 29.8888 3.4422 29.6948 3.48079C29.5008 3.51938 29.2997 3.49957 29.117 3.42388C28.9343 3.3482 28.7781 3.22002 28.6682 3.05557C28.5583 2.89113 28.4997 2.69779 28.4997 2.5C28.4997 2.23479 28.605 1.98043 28.7926 1.7929C28.9801 1.60536 29.2345 1.5 29.4997 1.5ZM2.49968 3.5C2.3019 3.5 2.10856 3.44136 1.94411 3.33147C1.77966 3.22159 1.65149 3.06541 1.5758 2.88269C1.50011 2.69996 1.48031 2.4989 1.51889 2.30491C1.55748 2.11093 1.65272 1.93275 1.79257 1.7929C1.93242 1.65305 2.11061 1.5578 2.30459 1.51922C2.49857 1.48063 2.69964 1.50044 2.88236 1.57613C3.06509 1.65181 3.22127 1.77999 3.33115 1.94443C3.44103 2.10888 3.49968 2.30222 3.49968 2.5C3.49968 2.76522 3.39432 3.01958 3.20679 3.20711C3.01925 3.39465 2.7649 3.5 2.49968 3.5ZM2.49968 30.5C2.3019 30.5 2.10856 30.4414 1.94411 30.3315C1.77966 30.2216 1.65149 30.0654 1.5758 29.8827C1.50011 29.7 1.48031 29.4989 1.51889 29.3049C1.55748 29.1109 1.65272 28.9328 1.79257 28.7929C1.93242 28.653 2.11061 28.5578 2.30459 28.5192C2.49857 28.4806 2.69964 28.5004 2.88236 28.5761C3.06509 28.6518 3.22127 28.78 3.33115 28.9444C3.44103 29.1089 3.49968 29.3022 3.49968 29.5C3.49968 29.7652 3.39432 30.0196 3.20679 30.2071C3.01925 30.3946 2.7649 30.5 2.49968 30.5ZM29.4997 28.5C29.6975 28.5 29.8908 28.5587 30.0553 28.6685C30.2197 28.7784 30.3479 28.9346 30.4236 29.1173C30.4992 29.3 30.5191 29.5011 30.4805 29.6951C30.4419 29.8891 30.3466 30.0673 30.2068 30.2071C30.0669 30.347 29.8888 30.4422 29.6948 30.4808C29.5008 30.5194 29.2997 30.4996 29.117 30.4239C28.9343 30.3482 28.7781 30.22 28.6682 30.0556C28.5583 29.8911 28.4997 29.6978 28.4997 29.5C28.4997 29.2348 28.605 28.9804 28.7926 28.7929C28.9801 28.6054 29.2345 28.5 29.4997 28.5ZM15.9997 1.5C16.1975 1.5 16.3908 1.55865 16.5553 1.66854C16.7197 1.77842 16.8479 1.9346 16.9236 2.11732C16.9992 2.30005 17.0191 2.50111 16.9805 2.6951C16.9419 2.88908 16.8466 3.06726 16.7068 3.20711C16.5669 3.34696 16.3888 3.4422 16.1948 3.48079C16.0008 3.51938 15.7997 3.49957 15.617 3.42388C15.4343 3.3482 15.2781 3.22002 15.1682 3.05557C15.0583 2.89113 14.9997 2.69779 14.9997 2.5C14.9997 2.23479 15.105 1.98043 15.2926 1.7929C15.4801 1.60536 15.7345 1.5 15.9997 1.5ZM1.49968 16C1.49968 15.8022 1.55833 15.6089 1.66821 15.4444C1.77809 15.28 1.93427 15.1518 2.117 15.0761C2.29972 15.0004 2.50079 14.9806 2.69477 15.0192C2.88875 15.0578 3.06693 15.153 3.20679 15.2929C3.34664 15.4328 3.44188 15.6109 3.48046 15.8049C3.51905 15.9989 3.49925 16.2 3.42356 16.3827C3.34787 16.5654 3.2197 16.7216 3.05525 16.8315C2.8908 16.9414 2.69746 17 2.49968 17C2.23446 17 1.98011 16.8946 1.79257 16.7071C1.60504 16.5196 1.49968 16.2652 1.49968 16ZM15.9997 30.5C15.8019 30.5 15.6086 30.4414 15.4441 30.3315C15.2797 30.2216 15.1515 30.0654 15.0758 29.8827C15.0001 29.7 14.9803 29.4989 15.0189 29.3049C15.0575 29.1109 15.1527 28.9328 15.2926 28.7929C15.4324 28.653 15.6106 28.5578 15.8046 28.5192C15.9986 28.4806 16.1996 28.5004 16.3824 28.5761C16.5651 28.6518 16.7213 28.78 16.8312 28.9444C16.941 29.1089 16.9997 29.3022 16.9997 29.5C16.9997 29.7652 16.8943 30.0196 16.7068 30.2071C16.5193 30.3946 16.2649 30.5 15.9997 30.5ZM30.4997 16C30.4997 16.1978 30.441 16.3911 30.3312 16.5556C30.2213 16.72 30.0651 16.8482 29.8824 16.9239C29.6996 16.9996 29.4986 17.0194 29.3046 16.9808C29.1106 16.9422 28.9324 16.847 28.7926 16.7071C28.6527 16.5673 28.5575 16.3891 28.5189 16.1951C28.4803 16.0011 28.5001 15.8 28.5758 15.6173C28.6515 15.4346 28.7797 15.2784 28.9441 15.1685C29.1086 15.0587 29.3019 15 29.4997 15C29.7649 15 30.0193 15.1054 30.2068 15.2929C30.3943 15.4804 30.4997 15.7348 30.4997 16ZM28.8497 14.117C28.4555 14.2498 28.1129 14.503 27.8703 14.8408C27.6276 15.1786 27.4971 15.5841 27.4971 16C27.4971 16.4159 27.6276 16.8214 27.8703 17.1592C28.1129 17.497 28.4555 17.7502 28.8497 17.883C28.4337 20.6433 27.1444 23.1978 25.1708 25.1719C23.1971 27.146 20.6429 28.4359 17.8827 28.8525C17.7499 28.4583 17.4967 28.1158 17.1589 27.8731C16.8211 27.6304 16.4156 27.4999 15.9997 27.4999C15.5837 27.4999 15.1783 27.6304 14.8405 27.8731C14.5026 28.1158 14.2495 28.4583 14.1167 28.8525C11.3564 28.4359 8.80225 27.146 6.82859 25.1719C4.85493 23.1978 3.56561 20.6433 3.14968 17.883C3.54385 17.7502 3.88641 17.497 4.12907 17.1592C4.37174 16.8214 4.50227 16.4159 4.50227 16C4.50227 15.5841 4.37174 15.1786 4.12907 14.8408C3.88641 14.503 3.54385 14.2498 3.14968 14.117C3.5661 11.3571 4.85563 8.8032 6.82925 6.82958C8.80288 4.85596 11.3568 3.56643 14.1167 3.15C14.2495 3.54418 14.5026 3.88674 14.8405 4.1294C15.1783 4.37206 15.5837 4.50259 15.9997 4.50259C16.4156 4.50259 16.8211 4.37206 17.1589 4.1294C17.4967 3.88674 17.7499 3.54418 17.8827 3.15C20.643 3.56594 23.1975 4.85525 25.1716 6.82891C27.1457 8.80258 28.4356 11.3568 28.8522 14.117H28.8497Z" fill="white"/>
<path id="Vector_2" d="M16.5024 9.191V8H15.5024V9.191L8.77894 12.5525C8.69582 12.594 8.62592 12.6579 8.57708 12.7369C8.52824 12.816 8.50239 12.9071 8.50244 13V18.6165L7.33594 19.0285L7.66894 19.9715L8.93444 19.525L15.5024 22.809V24H16.5024V22.809L23.0704 19.525L24.3359 19.9715L24.6689 19.0285L23.5024 18.6165V13C23.5025 12.9071 23.4766 12.816 23.4278 12.7369C23.379 12.6579 23.3091 12.594 23.2259 12.5525L16.5024 9.191ZM21.8844 13L16.5024 15.691V10.309L21.8844 13ZM15.5024 15.691L10.1204 13L15.5024 10.309V15.691ZM9.50244 13.809L14.7249 16.4205L9.50244 18.2635V13.809ZM10.2454 19.0625L15.5024 17.207V21.691L10.2454 19.0625ZM16.5024 21.691V17.207L21.7594 19.0625L16.5024 21.691ZM17.2799 16.4205L22.5024 13.809V18.2635L17.2799 16.4205Z" fill="white"/>
</g>
<defs>
<clipPath id="clip0_3822_129">
<rect width="32" height="32" fill="white"/>
</clipPath>
</defs>
</svg>
