<svg xmlns="http://www.w3.org/2000/svg" width="21" height="20" viewBox="0 0 21 20" fill="none">
  <g clip-path="url(#clip0_3783_749)">
    <path d="M15.2812 1.78125C13.3624 1.78125 11.2969 3.52641 11.2969 7.35938C11.2969 8.74275 11.9471 10.044 12.5759 11.3015C13.1472 12.4442 13.6875 13.524 13.6875 14.5312V16.5234C13.6875 18.0614 14.9386 19.3125 16.4766 19.3125C18.0145 19.3125 19.2656 18.0614 19.2656 16.5234V14.5312C19.2656 13.434 19.4481 12.7056 19.6402 11.9358C19.8481 11.1055 20.0625 10.2465 20.0625 8.95312C20.0625 3.0698 16.6112 1.78125 15.2812 1.78125ZM17.6719 16.5234C17.6719 17.1825 17.1356 17.7188 16.4766 17.7188C15.8175 17.7188 15.2812 17.1825 15.2812 16.5234V15.3281H17.6719V16.5234ZM18.0942 11.5485C17.9325 12.1956 17.7659 12.8602 17.7006 13.7344H15.2119C15.0286 12.6442 14.5083 11.6027 14.0015 10.5891C13.4301 9.44639 12.8898 8.36662 12.8898 7.35938C12.8898 4.74323 14.0923 3.375 15.2805 3.375C15.3123 3.375 18.468 3.52641 18.468 8.95312C18.468 10.0504 18.2855 10.7788 18.0934 11.5485H18.0942ZM5.71875 0.1875C4.38877 0.1875 0.9375 1.47605 0.9375 7.35938C0.9375 8.6527 1.15266 9.51173 1.35984 10.3421C1.55189 11.1127 1.73438 11.8402 1.73438 12.9375V14.9297C1.73438 16.4677 2.98547 17.7188 4.52344 17.7188C6.06141 17.7188 7.3125 16.4677 7.3125 14.9297V12.9375C7.3125 11.9303 7.85278 10.8505 8.42414 9.70777C9.05288 8.4495 9.70312 7.149 9.70312 5.76562C9.70312 1.93266 7.63763 0.1875 5.71875 0.1875ZM5.71875 14.9297C5.71875 15.5887 5.18245 16.125 4.52344 16.125C3.86442 16.125 3.32812 15.5887 3.32812 14.9297V13.7344H5.71875V14.9297ZM6.99773 8.99536C6.49092 10.009 5.97056 11.0505 5.78728 12.1406H3.29944C3.23409 11.2665 3.06755 10.6019 2.90578 9.9548C2.71373 9.18422 2.53125 8.45667 2.53125 7.35938C2.53125 1.93266 5.68687 1.78125 5.71875 1.78125C6.90689 1.78125 8.10938 3.14948 8.10938 5.76562C8.10938 6.77287 7.56909 7.85264 6.99773 8.99536Z" fill="#fff"/>
  </g>
  <defs>
    <clipPath id="clip0_3783_749">
      <rect width="19.125" height="19.125" fill="white" transform="translate(0.9375 0.1875)"/>
    </clipPath>
  </defs>
</svg>