<?xml version="1.0" encoding="UTF-8"?>
<svg id="Layer_2" data-name="Layer 2" xmlns="http://www.w3.org/2000/svg" viewBox="0 0 401.51 440.9">
  <defs>
    <style>
      .cls-1 {
      stroke-miterlimit: 10;
      }

      .cls-1, .cls-2 {
      fill: none;
      stroke: #fff;
      strokeWidth: 5px;
      }

      .cls-2 {
      stroke-miterlimit: 100;
      }
    </style>
  </defs>
  <g id="custom_solutions" data-name="custom solutions">
    <g>
      <path class="cls-2"
        d="m318.82,131.97c.29-3.37.44-6.78.44-10.22s-.15-6.85-.44-10.22l-33.06-11.76c-2.1-8.22-5.36-15.98-9.58-23.09l15.07-31.7c-4.4-5.22-9.24-10.06-14.46-14.46l-31.7,15.07c-7.12-4.22-14.87-7.48-23.09-9.58l-11.76-33.06c-3.37-.29-6.78-.44-10.22-.44s-6.85.15-10.22.44l-11.76,33.06c-8.22,2.1-15.98,5.36-23.09,9.58l-31.7-15.07c-5.22,4.4-10.06,9.24-14.46,14.46l15.07,31.7c-4.22,7.12-7.48,14.87-9.58,23.09l-33.06,11.76c-.29,3.37-.44,6.78-.44,10.22s.15,6.85.44,10.22l33.06,11.76c2.1,8.22,5.36,15.98,9.58,23.09l-15.07,31.7c4.4,5.22,9.24,10.06,14.46,14.46l31.7-15.07c7.12,4.22,14.87,7.48,23.09,9.58l11.76,33.06c3.37.29,6.78.44,10.22.44s6.85-.15,10.22-.44l11.76-33.06c8.22-2.1,15.98-5.36,23.09-9.58l31.7,15.07c5.22-4.4,10.06-9.24,14.46-14.46l-15.07-31.7c4.22-7.12,7.48-14.87,9.58-23.09l33.06-11.76Zm-118.81,22.78c-18.23,0-33-14.77-33-33s14.77-33,33-33,33,14.77,33,33-14.77,33-33,33Z" />
      <g>
        <rect class="cls-1" x="54.49" y="401.36" width="122.64" height="37.04" rx="5.38" ry="5.38" />
        <path class="cls-1"
          d="m66.62,377.15v1.49h-.17v23.03h98.71v-23.03h-.17v-55.11c0-.43-.12-.86-.34-1.23h0s-53.37-88.25-53.37-88.25c-6.33-10.47-19.96-13.83-30.43-7.5h0c-10.29,6.22-13.59,19.61-7.36,29.9l20.6,34.07c.57.94.87,2.02.87,3.11v26.69c0,2.64-3.47,3.61-4.84,1.35l-56.13-92.82v-67.77c0-8.69-7.05-15.74-15.74-15.74h0c-8.69,0-15.74,7.05-15.74,15.74v85.88s0,19.21,0,19.21c0,3.23.88,6.39,2.55,9.16l61.57,101.81Z" />
      </g>
      <g>
        <rect class="cls-1" x="224.38" y="401.36" width="122.64" height="37.04" rx="5.38" ry="5.38"
          transform="translate(571.41 839.76) rotate(-180)" />
        <path class="cls-1"
          d="m334.88,377.15v1.49s.17,0,.17,0v23.03h-98.71v-23.03h.17v-34.66s0-20.45,0-20.45c0-.43.12-.86.34-1.23h0s53.37-88.25,53.37-88.25c6.33-10.47,19.96-13.83,30.43-7.5h0c10.29,6.22,13.59,19.61,7.36,29.9l-20.6,34.07c-.57.94-.87,2.02-.87,3.11v26.69c0,2.64,3.47,3.61,4.84,1.35l56.13-92.82v-67.77c0-8.69,7.05-15.74,15.74-15.74h0c8.69,0,15.74,7.05,15.74,15.74v85.88s0,19.21,0,19.21c0,3.23-.88,6.39-2.55,9.16l-61.57,101.81Z" />
      </g>
    </g>
  </g>
</svg>