<?xml version="1.0" encoding="UTF-8"?>
<svg id="Layer_2" data-name="Layer 2" xmlns="http://www.w3.org/2000/svg" viewBox="0 0 418.19 301.18">
  <defs>
    <style>
      .cls-1, .cls-2 {
      strokeWidth: 5.19px;
      }

      .cls-1, .cls-2, .cls-3, .cls-4, .cls-5 {
      fill: none;
      stroke: #fff;
      }

      .cls-1, .cls-4 {
      stroke-miterlimit: 10;
      }

      .cls-2, .cls-5 {
      strokeLinecap: round;
      strokeLinejoin: round;
      }

      .cls-3 {
      stroke-miterlimit: 100;
      strokeWidth: 5px;
      }

      .cls-4 {
      strokeWidth: 4px;
      }

      .cls-5 {
      strokeWidth: 5.19px;
      }
    </style>
  </defs>
  <g id="cross_platform" data-name="cross platform">
    <g>
      <g>
        <path class="cls-1"
          d="m23.13,2.59C10.74,2.59,2.59,11.79,2.59,23.13v151.16c0,11.34,9.2,20.54,20.54,20.54h250.31" />
        <path class="cls-1" d="m318.6,55.66V23.13c0-11.34-9.2-20.54-20.54-20.54H22.3" />
      </g>
      <circle class="cls-4" cx="346.54" cy="279.19" r="10.31" />
      <rect class="cls-1" x="274.1" y="55.26" width="141.5" height="243.33" rx="15.45" ry="15.45" />
      <line class="cls-1" x1="274.1" y1="259.35" x2="414.98" y2="259.35" />
      <g>
        <line class="cls-2" x1="148.1" y1="231.67" x2="148.1" y2="194.83" />
        <line class="cls-2" x1="173.1" y1="231.67" x2="173.1" y2="194.83" />
      </g>
      <rect class="cls-5" x="95.71" y="231.78" width="129.77" height="41.96" rx="20.23" ry="20.23" />
      <path class="cls-3"
        d="m142.97,107.1l-19.4-19.4c-2.49-2.49-6.53-2.49-9.02,0l-12.25,12.25c-2.49,2.49-2.49,6.53,0,9.02l21.49,21.49,11.4,11.4c5.46,5.46,14.31,5.46,19.76,0l11.4-11.4,56.78-56.78c2.49-2.49,2.49-6.53,0-9.02l-12.25-12.25c-2.49-2.49-6.53-2.49-9.02,0l-54.68,54.68c-1.16,1.16-3.03,1.16-4.19,0Z" />
      <path class="cls-3"
        d="m332.72,161.44l-14.57-14.57c-1.87-1.87-4.9-1.87-6.78,0l-9.2,9.2c-1.87,1.87-1.87,4.9,0,6.78l16.14,16.14,8.56,8.56c4.1,4.1,10.74,4.1,14.84,0l8.56-8.56,42.63-42.63c1.87-1.87,1.87-4.9,0-6.78l-9.2-9.2c-1.87-1.87-4.9-1.87-6.78,0l-41.06,41.06c-.87.87-2.28.87-3.15,0Z" />
    </g>
  </g>
</svg>