<?xml version="1.0" encoding="UTF-8"?>
<svg id="Layer_2" data-name="Layer 2" xmlns="http://www.w3.org/2000/svg" viewBox="0 0 401 338">
  <defs>
    <style>
      .cls-1 {
      strokeLinecap: round;
      strokeWidth: 5px;
      }

      .cls-1, .cls-2, .cls-3, .cls-4 {
      fill: none;
      stroke: #fff;
      stroke-miterlimit: 100;
      }

      .cls-2 {
      strokeWidth: 5px;
      }

      .cls-3 {
      strokeWidth: 5px;
      }

      .cls-4 {
      strokeWidth: 4.51px;
      }
    </style>
  </defs>
  <g id="feedback">
    <g>
      <path class="cls-2"
        d="m379.02,2.5H21.98C11.22,2.5,2.5,9.83,2.5,18.88v61.24c0,9.05,8.72,16.38,19.48,16.38h251.11v69.89c0,.96,1.38,1.43,2.18.75l83.13-70.64h20.61c10.76,0,19.48-7.33,19.48-16.38V18.88c0-9.05-8.72-16.38-19.48-16.38Z" />
      <g>
        <circle class="cls-4" cx="200.5" cy="190.5" r="41" />
        <path class="cls-1"
          d="m285.99,335.5c0-.17.01-.33.01-.5,0-47.22-38.28-85.5-85.5-85.5s-85.5,38.28-85.5,85.5c0,.17.01.33.01.5" />
      </g>
      <g>
        <circle class="cls-4" cx="300" cy="222.07" r="32.07" />
        <path class="cls-1"
          d="m366.87,335.5c0-.13,0-.26,0-.39,0-36.94-29.94-66.88-66.88-66.88-13.02,0-25.16,3.72-35.44,10.15" />
      </g>
      <g>
        <circle class="cls-4" cx="102.01" cy="222.07" r="32.07" />
        <path class="cls-1"
          d="m35.14,335.5c0-.13,0-.26,0-.39,0-36.94,29.94-66.88,66.88-66.88,13.02,0,25.16,3.72,35.44,10.15" />
      </g>
      <path class="cls-3"
        d="m48.23,22.72l8.7,17.63c.11.22.33.38.57.42l19.46,2.83c.62.09.87.86.42,1.3l-14.08,13.72c-.18.18-.26.43-.22.67l3.32,19.38c.11.62-.55,1.1-1.11.8l-17.4-9.15c-.22-.12-.49-.12-.71,0l-17.4,9.15c-.56.29-1.21-.18-1.11-.8l3.32-19.38c.04-.25-.04-.5-.22-.67l-14.08-13.72c-.45-.44-.2-1.21.42-1.3l19.46-2.83c.25-.04.46-.19.57-.42l8.7-17.63c.28-.57,1.09-.57,1.37,0Z" />
      <path class="cls-3"
        d="m124.73,22.72l8.7,17.63c.11.22.33.38.57.42l19.46,2.83c.62.09.87.86.42,1.3l-14.08,13.72c-.18.18-.26.43-.22.67l3.32,19.38c.11.62-.55,1.1-1.11.8l-17.4-9.15c-.22-.12-.49-.12-.71,0l-17.4,9.15c-.56.29-1.21-.18-1.11-.8l3.32-19.38c.04-.25-.04-.5-.22-.67l-14.08-13.72c-.45-.44-.2-1.21.42-1.3l19.46-2.83c.25-.04.46-.19.57-.42l8.7-17.63c.28-.57,1.09-.57,1.37,0Z" />
      <path class="cls-3"
        d="m201.23,22.72l8.7,17.63c.11.22.33.38.57.42l19.46,2.83c.62.09.87.86.42,1.3l-14.08,13.72c-.18.18-.26.43-.22.67l3.32,19.38c.11.62-.55,1.1-1.11.8l-17.4-9.15c-.22-.12-.49-.12-.71,0l-17.4,9.15c-.56.29-1.21-.18-1.11-.8l3.32-19.38c.04-.25-.04-.5-.22-.67l-14.08-13.72c-.45-.44-.2-1.21.42-1.3l19.46-2.83c.25-.04.46-.19.57-.42l8.7-17.63c.28-.57,1.09-.57,1.37,0Z" />
      <path class="cls-3"
        d="m277.73,22.72l8.7,17.63c.11.22.33.38.57.42l19.46,2.83c.62.09.87.86.42,1.3l-14.08,13.72c-.18.18-.26.43-.22.67l3.32,19.38c.11.62-.55,1.1-1.11.8l-17.4-9.15c-.22-.12-.49-.12-.71,0l-17.4,9.15c-.56.29-1.21-.18-1.11-.8l3.32-19.38c.04-.25-.04-.5-.22-.67l-14.08-13.72c-.45-.44-.2-1.21.42-1.3l19.46-2.83c.25-.04.46-.19.57-.42l8.7-17.63c.28-.57,1.09-.57,1.37,0Z" />
      <path class="cls-3"
        d="m354.23,22.72l8.7,17.63c.11.22.33.38.57.42l19.46,2.83c.62.09.87.86.42,1.3l-14.08,13.72c-.18.18-.26.43-.22.67l3.32,19.38c.11.62-.55,1.1-1.11.8l-17.4-9.15c-.22-.12-.49-.12-.71,0l-17.4,9.15c-.56.29-1.21-.18-1.11-.8l3.32-19.38c.04-.25-.04-.5-.22-.67l-14.08-13.72c-.45-.44-.2-1.21.42-1.3l19.46-2.83c.25-.04.46-.19.57-.42l8.7-17.63c.28-.57,1.09-.57,1.37,0Z" />
    </g>
  </g>
</svg>