<?xml version="1.0" encoding="UTF-8"?>
<svg id="Layer_2" data-name="Layer 2" xmlns="http://www.w3.org/2000/svg" viewBox="0 0 336 412">
  <defs>
    <style>
      .cls-1 {
      fill: none;
      stroke: #fff;
      stroke-miterlimit: 10;
      strokeWidth: 5px;
      }
    </style>
  </defs>
  <g id="innovation">
    <g>
      <rect class="cls-1" x="84" y="333" width="134" height="22.25" rx="11.12" ry="11.12" />
      <rect class="cls-1" x="94.19" y="355.25" width="113.63" height="22.25" rx="11.12" ry="11.12" />
      <path class="cls-1" d="m109.17,377.5c5.23,18.47,22.19,32,42.33,32s37.1-13.53,42.33-32h-84.66Z" />
      <path class="cls-1"
        d="m245.5,179.5v-13.5c0-12.92-10.58-23.5-23.5-23.5s-23.5,10.58-23.5,23.5v13.5h-50v-49h-13.5c-12.92,0-23.5-10.58-23.5-23.5s10.58-23.5,23.5-23.5h13.5V27.5C67.87,27.5,2.5,92.87,2.5,173.5c0,62.31,39.04,115.5,94,136.46v22.54h109v-24.55c50.57-21.47,86.53-70.63,88.87-128.45h-48.87Z" />
      <path class="cls-1"
        d="m148.5,333.5v-56h-13.5c-12.92,0-23.5-10.58-23.5-23.5s10.58-23.5,23.5-23.5h13.5v-51h-50v-13.5c0-12.92-10.57-23.5-23.5-23.5h0c-12.92,0-23.5,10.58-23.5,23.5v13.5H1.5" />
      <path class="cls-1"
        d="m319.79,2.5h-101.58c-7.54,0-13.71,6.17-13.71,13.71v12.29h-4.5c-12.92,0-23.5,10.58-23.5,23.5s10.58,23.5,23.5,23.5h4.5v15.29c0,7.54,6.17,13.71,13.71,13.71h28.29v-7.5c0-12.92,10.58-23.5,23.5-23.5s23.5,10.58,23.5,23.5v7.5h26.29c7.54,0,13.71-6.17,13.71-13.71V16.21c0-7.54-6.17-13.71-13.71-13.71Z" />
    </g>
  </g>
</svg>