<?xml version="1.0" encoding="UTF-8"?>
<svg id="Layer_2" data-name="Layer 2" xmlns="http://www.w3.org/2000/svg" viewBox="0 0 338 337">
  <defs>
    <style>
      .cls-1 {
      fill: none;
      stroke: #fff;
      stroke-miterlimit: 10;
      strokeWidth: 5px;
      }
    </style>
  </defs>
  <g id="resource_gathering" data-name="resource gathering">
    <g>
      <path class="cls-1"
        d="m321.39,95.5h-138.77c-7.76,0-14.11,6.35-14.11,14.11v29.89H13.34c-5.96,0-10.84,4.88-10.84,10.84v173.32c0,5.96,4.88,10.84,10.84,10.84h311.32c5.96,0,10.84-4.88,10.84-10.84V109.61c0-7.76-6.35-14.11-14.11-14.11Z" />
      <path class="cls-1"
        d="m168.5,139.5v-29.89c0-7.76,6.35-14.11,14.11-14.11h135.57l10.15-27.15c.4-1.06-.14-2.25-1.2-2.64L196.1,16.72c-1.06-.4-2.25.14-2.64,1.2l-45.45,121.58h20.49Z" />
      <g>
        <path class="cls-1" d="m168.63,107.78c-.02.15-.05.3-.06.46.02-.15.04-.31.06-.46Z" />
        <path class="cls-1"
          d="m172.11,100.24c2.14-2.39,5.08-4.06,8.39-4.56h0c-3.31.5-6.25,2.16-8.39,4.56Z" />
        <path class="cls-1" d="m169.28,105.03c-.07.19-.14.39-.19.58.06-.2.13-.39.19-.58Z" />
        <path class="cls-1"
          d="m179.06,2.5H37.94c-.8,0-1.44.65-1.44,1.44v134.12c0,.8.65,1.44,1.44,1.44h109.07c.6,0,1.14-.37,1.35-.94l32.05-85.74c.06-.16.09-.33.09-.5V3.94c0-.8-.65-1.44-1.44-1.44Z" />
        <path class="cls-1" d="m168.9,106.36c-.04.18-.09.36-.13.55.04-.18.08-.36.13-.55Z" />
        <path class="cls-1" d="m171.11,101.48c-.15.21-.29.43-.43.65.14-.22.28-.44.43-.65Z" />
        <path class="cls-1" d="m171.92,100.44c-.19.22-.37.45-.54.68.18-.23.35-.46.54-.68Z" />
        <path class="cls-1" d="m170.4,102.6c-.12.21-.23.41-.34.62.11-.21.22-.42.34-.62Z" />
        <path class="cls-1" d="m169.78,103.78c-.09.2-.18.4-.26.61.08-.2.17-.41.26-.61Z" />
      </g>
      <rect class="cls-1" x="58.5" y="28.5" width="100" height="57" rx=".78" ry=".78" />
      <rect class="cls-1" x="66.5" y="107.5" width="81" height="8" rx="4" ry="4" />
      <rect class="cls-1" x="195.26" y="68.5" width="105.47" height="8" rx="4" ry="4"
        transform="translate(38.73 -79.05) rotate(19.62)" />
      <path class="cls-1"
        d="m90.54,54.43l-17.31,29.98c-.13.23.03.51.3.51h34.61c.26,0,.43-.28.3-.51l-17.31-29.98c-.13-.23-.46-.23-.59,0Z" />
      <circle class="cls-1" cx="105" cy="45" r="6.5" />
      <path class="cls-1"
        d="m126.26,84.51l-13.81-23.92c-.1-.18-.37-.18-.47,0l-8.65,14.98,5.1,8.84c.13.23-.03.51-.3.51h17.89c.21,0,.34-.23.24-.41Z" />
      <path class="cls-1"
        d="m187.75,82.91l35.34,12.59h23.83l-56.48-20.13c-2.08-.74-4.37.34-5.11,2.42-.74,2.08.34,4.37,2.42,5.11Z" />
    </g>
  </g>
</svg>