<?xml version="1.0" encoding="UTF-8"?>
<svg id="Layer_2" data-name="Layer 2" xmlns="http://www.w3.org/2000/svg" viewBox="0 0 242.48 413.26">
  <defs>
    <style>
      .cls-1, .cls-2, .cls-3 {
      strokeWidth: 5px;
      }

      .cls-1, .cls-2, .cls-3, .cls-4, .cls-5 {
      fill: none;
      stroke: #fff;
      }

      .cls-1, .cls-2, .cls-4, .cls-5 {
      stroke-miterlimit: 10;
      }

      .cls-2, .cls-3 {
      strokeLinecap: round;
      }

      .cls-3 {
      strokeLinejoin: round;
      }

      .cls-4 {
      strokeWidth: 5.19px;
      }

      .cls-5 {
      strokeWidth: 4px;
      }
    </style>
  </defs>
  <g id="seamless_integration" data-name="seamless integration">
    <g>
      <circle class="cls-5" cx="121.24" cy="378.13" r="17.28" />
      <rect class="cls-4" x="2.59" y="2.59" width="237.29" height="408.07" rx="25.9" ry="25.9" />
      <line class="cls-4" x1="3.11" y1="344.86" x2="239.37" y2="344.86" />
      <path class="cls-1"
        d="m59.53,3.82h123.42v6.81c0,8.79-7.13,15.92-15.92,15.92h-91.58c-8.79,0-15.92-7.13-15.92-15.92V3.82h0Z" />
      <g>
        <g>
          <polyline class="cls-3" points="117.27 192.56 82.77 172.71 82.77 224.68 117.15 244.46" />
          <polyline class="cls-3" points="130.86 244.13 164.66 224.68 164.66 172.71 130.78 192.2" />
          <path class="cls-2" d="m130.97,152.06c11.48,6.46,22.34,13.86,33.93,20.03" />
          <path class="cls-2" d="m116.99,152.11c-11.05,6.91-22.89,13.32-33.99,20.48" />
        </g>
        <path class="cls-1"
          d="m72.06,112.63l6.59,11.41c-24.59,14.7-41.06,41.58-41.06,72.31,0,23.01,9.24,43.86,24.2,59.06l9.6-9.6c-12.51-12.74-20.23-30.2-20.23-49.46,0-25.71,13.74-48.21,34.28-60.56l6.88,11.92,11.33-19.62,8.9-15.42.02-.04h-40.51Z" />
        <path class="cls-1"
          d="m205.97,196.35c0-23.49-9.62-44.72-25.13-59.99l-9.6,9.6c13.06,12.82,21.16,30.66,21.16,50.4,0,23.84-11.82,44.9-29.91,57.69l-6.57-11.39-11.98,20.75-8.27,14.33h40.51l-6.87-11.89c22.13-15.17,36.66-40.63,36.66-69.49Z" />
      </g>
    </g>
  </g>
</svg>