<svg xmlns="http://www.w3.org/2000/svg" viewBox="0 0 300 300"><defs><style>.cls-1{fill:#dfd7ea;}.cls-2,.cls-3,.cls-4,.cls-5{fill:none;stroke:#1d7ebc;}.cls-2,.cls-3,.cls-5{stroke-miterlimit:10;}.cls-2{strokeWidth:8px;}.cls-3{strokeWidth:6px;}.cls-4{strokeLinecap:round;strokeLinejoin:round;}.cls-4,.cls-5{strokeWidth:4px;}</style></defs><g id="Layer_14" data-name="Layer 14"><circle class="cls-1" cx="222.1" cy="97.94" r="59.8"/><path class="cls-2" d="M51.05,225.58a112.46,112.46,0,1,1,158.23.8"/><path class="cls-3" d="M147.9,208.59h36l.72-19.89a23.3,23.3,0,0,0,5.22-1.73,10,10,0,0,0,3.1-15.69c-3.6-4.09-7.91-10.1-7.91-15.45,0-9.17.31-16.17.31-16.17,0-30.19-25.41-54.67-55.6-54.67s-53.62,23.94-53.62,54.14c0,0-.3,10.82,0,11.24S65.46,171.7,64.85,176s-.52,12.88,13,13.5l-.62,17.93,33.6,1.13"/><path class="cls-3" d="M106.32,88.23S97.05,72,83.76,82.86c0,0-13,10.42,1.59,23"/><path class="cls-3" d="M153.75,88.08S163,71.8,176.31,82.71c0,0,13,10.42-1.59,23"/><path class="cls-3" d="M149.35,208h31.37c19,2.16,34.48,17.59,34.48,36.63V266.4H45.78V244.61c0-19,15.43-34.47,34.47-36.63h31.17s1.67,19.81,18.63,19.33C130.05,227.31,147.7,229.19,149.35,208Z"/><path class="cls-4" d="M131.35,203.33c4-.2,5.56-5.84,5.56-5.84,28.68-8.84,28.58-30.8,27.87-37.33a1.4,1.4,0,0,1,1.55-1.53c4.42.52,8.52-1.19,8.79-7.46.19-4.28-2.7-6.76-5.05-8a16.9,16.9,0,0,1-8.83-12.76c0-.28-.06-.55-.08-.8a1.68,1.68,0,0,0-2.42-1.38c-22.61,11.42-27.65-16.05-27.65-16.05h0s-5.18,28-28.32,15.72a1.19,1.19,0,0,0-1.75,1,22.87,22.87,0,0,1-1,5.7,14.16,14.16,0,0,1-7.38,8.29c-2.42,1.19-5.83,3.71-5.63,8.35.26,6.06,3.36,7.45,7.38,7a1.74,1.74,0,0,1,1.91,1.91c-.62,7.43-.09,30.54,29.25,37.71,0,0,2.06,5.36,6.08,5.56"/><line class="cls-5" x1="118.64" y1="197.25" x2="111.5" y2="208.59"/><line class="cls-5" x1="141.41" y1="197.15" x2="148.73" y2="207.98"/></g></svg>