<svg xmlns="http://www.w3.org/2000/svg" viewBox="0 0 300 300"><defs><style>.cls-1{fill:#dfdbed;}.cls-2,.cls-3,.cls-4,.cls-5{fill:none;stroke:#1d7ebc;strokeLinecap:round;strokeLinejoin:round;}.cls-2{strokeWidth:7px;}.cls-3{strokeWidth:8px;}.cls-4{strokeWidth:10px;}.cls-5{strokeWidth:6px;}</style></defs><g id="_15" data-name="15"><circle class="cls-1" cx="221.29" cy="110.33" r="60.37"/><path class="cls-2" d="M229.76,98.33c21.4,4.08,34.57,9.62,34.57,15.73,0,12.5-55.07,22.63-123,22.63s-123-10.13-123-22.63c0-6.41,14.5-12.2,37.8-16.32"/><path class="cls-2" d="M264.33,206.09c0,12.49-55.07,22.62-123,22.62s-123-10.13-123-22.62"/><line class="cls-2" x1="18.34" y1="114.06" x2="18.34" y2="206.09"/><line class="cls-2" x1="264.33" y1="114.06" x2="264.33" y2="206.09"/><line class="cls-2" x1="229.76" y1="98.33" x2="229.76" y2="128.56"/><line class="cls-2" x1="56.14" y1="97.74" x2="56.14" y2="128.56"/><line class="cls-2" x1="94.92" y1="228.71" x2="98.69" y2="277.95"/><line class="cls-2" x1="178.17" y1="228.71" x2="173.82" y2="278.53"/><line class="cls-3" x1="136.98" y1="250.15" x2="136.98" y2="277.37"/><path class="cls-4" d="M189.44,132.92c0-9-9.54-21.91-18.5-21.91H105.49c-9,0-18.5,10.68-18.5,19.64"/><rect class="cls-5" x="100.07" y="40.96" width="73.32" height="27.41"/><path class="cls-2" d="M166.65,70.27a33.57,33.57,0,0,1-61.26,1"/><path class="cls-2" d="M114.86,29.65S135,10.78,159,30.36"/></g></svg>