<svg xmlns="http://www.w3.org/2000/svg" viewBox="0 0 300 300"><defs><style>.cls-1{fill:#daddef;}.cls-2{fill:none;stroke:#1d7ebc;strokeLinecap:round;strokeLinejoin:round;strokeWidth:8px;}</style></defs><g id="_16" data-name="16"><circle class="cls-1" cx="111.66" cy="184.65" r="45.71"/><path class="cls-2" d="M149.31,118.22S110.86,54.9,74.94,72.86c0,0-36.29,14.61-49.47,61.79a104.39,104.39,0,0,0,.63,59.11c4.79,15.35,13.75,31.43,30.19,31.06C56.29,224.82,88.52,235,149.31,118.22Z"/><path class="cls-2" d="M150.69,118.22s38.45-63.32,74.37-45.36c0,0,36.29,14.61,49.47,61.79a104.39,104.39,0,0,1-.63,59.11c-4.79,15.35-13.75,31.43-30.19,31.06C243.71,224.82,211.48,235,150.69,118.22Z"/></g></svg>