<?xml version="1.0" encoding="UTF-8"?><svg id="a" xmlns="http://www.w3.org/2000/svg" xmlns:xlink="http://www.w3.org/1999/xlink" viewBox="0 0 500 500"><defs><style>.d{fill:url(#c);}.e{fill:url(#b);}</style><linearGradient id="b" x1="-2635.97" y1="-3287.45" x2="-3093.71" y2="-3287.45" gradientTransform="translate(3118 -3037.45) scale(1 -1)" gradientUnits="userSpaceOnUse"><stop offset="0" stopColor="#004e8e"/><stop offset="1" stopColor="#2f7bff"/></linearGradient><linearGradient id="c" x1="-3002.92" y1="-3287.09" x2="-2736.76" y2="-3287.09" xlink:href="#b"/></defs><path class="e" d="M378.53,381.27c181.47-54.48,83.94-192.49-34.83-265.13-118.78-72.64-228.84-49.53-267.16,14.86-38.32,64.38-89.17,131.08-24.38,230.13,64.58,98.73,144.39,74.77,324.63,20.66l1.74-.52Z"/><path class="d" d="M175.27,173.4c-105.52,31.64-48.81,111.79,20.25,153.98,69.06,42.19,133.07,28.76,155.35-8.63,22.28-37.39,51.85-76.13,14.18-133.66-37.55-57.34-83.96-43.43-188.76-12l-1.01,.3Z"/></svg>