<svg xmlns="http://www.w3.org/2000/svg" viewBox="0 0 300 300"><defs><style>.cls-1{fill:#dcdaed;}.cls-2,.cls-3{fill:none;stroke-miterlimit:10;strokeWidth:6px;}.cls-2{stroke:#347fbf;}.cls-3{stroke:#1e72ba;}</style></defs><g id="Layer_5" data-name="Layer 5"><circle class="cls-1" cx="198.66" cy="90.69" r="72.99"/><polygon class="cls-2" points="205.46 181.82 152.62 197.79 152.62 135.92 205.46 119.96 205.46 181.82"/><path class="cls-3" d="M257.52,259.37l13.54-.1c4.37,0,7.87-3.31,7.82-7.32L278.19,201c-.05-4-3.64-7.24-8-7.21l-13.54.1c-4.37,0-7.87,3.31-7.81,7.32l.68,50.94C249.57,256.18,253.15,259.4,257.52,259.37Z"/><ellipse class="cls-3" cx="265.16" cy="247.92" rx="2.81" ry="3.06" transform="translate(10.53 506.65) rotate(-88.53)"/><path class="cls-3" d="M248.08,203.62S225.71,202,217.84,208c-7.06,5.31-11.52,12.45-15.17,22.37a16.42,16.42,0,0,1-4.34,6.42L182.14,251.6a6.45,6.45,0,0,0-1.93,3,4.44,4.44,0,0,0,.56,3.84,16,16,0,0,0,7.06,5.14,8.67,8.67,0,0,0,8.33-1.82l19.11-17.26"/><path class="cls-3" d="M179.22,258.27s-8,3.82-15.25,3.57l-20-.67a8.8,8.8,0,0,0-6.43,2.35,6.23,6.23,0,0,0-2,3.58c-.6,4-.58,9.42,6.1,10.85,0,0,42.53,3,54.57.26a24.94,24.94,0,0,1,2.56-.45c2.72-.36,9.94-2.44,19.88-14.05,0,0,11.5-13.71,19.78-14.19s10.37-.38,10.37-.38"/><path class="cls-3" d="M42.48,40l-13.54.1c-4.37,0-7.87,3.3-7.82,7.31l.69,50.94c.05,4,3.64,7.23,8,7.2l13.54-.1c4.37,0,7.87-3.3,7.81-7.32l-.68-50.93C50.43,43.21,46.85,40,42.48,40Z"/><ellipse class="cls-3" cx="34.84" cy="51.46" rx="2.81" ry="3.06" transform="translate(-17.49 84.98) rotate(-88.53)"/><path class="cls-3" d="M51.92,95.77s22.37,1.58,30.24-4.36C89.22,86.1,93.68,79,97.33,69.05a16.35,16.35,0,0,1,4.34-6.42l16.19-14.84a6.48,6.48,0,0,0,1.93-3,4.42,4.42,0,0,0-.56-3.83,16,16,0,0,0-7.06-5.14,8.69,8.69,0,0,0-8.33,1.81L84.73,54.91"/><path class="cls-3" d="M120.78,41.12s8-3.82,15.25-3.57l20,.67a8.84,8.84,0,0,0,6.43-2.35,6.29,6.29,0,0,0,2-3.58c.6-4.06.58-9.42-6.1-10.86,0,0-42.53-3-54.57-.25-.85.19-1.7.33-2.56.45-2.72.35-9.94,2.44-19.88,14,0,0-11.5,13.71-19.78,14.2s-10.37.38-10.37.38"/><polyline class="cls-2" points="152.62 135.92 92.89 118.61 92.89 182.54 150.23 199.08"/><polyline class="cls-2" points="90.34 117.11 148.88 100.2 207.85 118.61"/><path class="cls-2" d="M68.58,109.4s-22.45,54.95,9.66,97.17c0,0,29.87,41.32,80.17,33.46"/><path class="cls-2" d="M141.62,60.82s53.22-9.2,85.11,42.67c0,0,29.2,45.36,2.92,86.69"/></g></svg>