<svg xmlns="http://www.w3.org/2000/svg" viewBox="0 0 300 300"><defs><style>.cls-1{fill:#e0daec;}.cls-2{fill:none;stroke:#347fbf;stroke-miterlimit:10;strokeWidth:6px;}.cls-3{fill:#347fbf;}</style></defs><g id="Layer_6" data-name="Layer 6"><circle class="cls-1" cx="97.74" cy="159.6" r="79.04"/><path class="cls-2" d="M272.35,265.49H185.73a9,9,0,0,1-8.95-8.95v-155a9,9,0,0,1,8.95-8.95h86.62a9,9,0,0,1,8.95,8.95V256.54A8.94,8.94,0,0,1,272.35,265.49Z"/><line class="cls-2" x1="281.3" y1="125.46" x2="178.8" y2="125.46"/><line class="cls-2" x1="178.8" y1="233.73" x2="279.86" y2="233.73"/><rect class="cls-3" x="216.63" y="244.37" width="25.84" height="9.89" rx="3.01"/><rect class="cls-3" x="233.01" y="104.63" width="23.32" height="9.38" rx="4.15"/><circle class="cls-3" cx="206.7" cy="109.32" r="4.69"/><path class="cls-2" d="M68.79,219.59a18.49,18.49,0,0,1-18.48-18.48V53A18.48,18.48,0,0,1,68.79,34.51H253.58A18.47,18.47,0,0,1,272.06,53"/><line class="cls-2" x1="68.79" y1="219.59" x2="176.78" y2="219.59"/><line class="cls-2" x1="272.06" y1="52.98" x2="272.06" y2="91.1"/><line class="cls-2" x1="50.31" y1="190.13" x2="175.05" y2="190.13"/><line class="cls-2" x1="112.68" y1="264.34" x2="181.34" y2="264.34"/><line class="cls-2" x1="137.95" y1="221.32" x2="127.33" y2="265.49"/></g></svg>