<svg xmlns="http://www.w3.org/2000/svg" viewBox="0 0 300 300"><defs><style>.cls-1{fill:#dfd9ec;}.cls-2,.cls-4{fill:none;stroke:#2c75b2;stroke-miterlimit:10;}.cls-2{strokeWidth:6px;}.cls-3{fill:#2c75b2;}.cls-4{strokeWidth:7px;}</style></defs><g id="Layer_7" data-name="Layer 7"><circle class="cls-1" cx="207.89" cy="129.09" r="71.83"/><polygon class="cls-2" points="84.67 98.69 41.81 80.29 41.81 138.91 84.67 155.37 84.67 98.69"/><polygon class="cls-2" points="90.48 98.69 134.12 77.47 134.12 137.34 90.48 155.37 90.48 98.69"/><polyline class="cls-2" points="39.87 78.36 86.36 60.23 135.97 75.43"/><rect class="cls-3" x="14.81" y="194.99" width="81.38" height="7.97"/><rect class="cls-3" x="38.35" y="170.89" width="45.41" height="9.08"/><rect class="cls-3" x="25.93" y="219.28" width="41.15" height="9.64" rx="3.64"/><rect class="cls-3" x="137.89" y="221.31" width="44.3" height="7.6"/><rect class="cls-3" x="80.33" y="221.31" width="18.51" height="7.6"/><rect class="cls-3" x="222.79" y="221.31" width="26.32" height="7.6"/><circle class="cls-4" cx="117.09" cy="223.77" r="18.97"/><circle class="cls-4" cx="202.27" cy="223.77" r="18.97"/><rect class="cls-3" x="142.96" y="114.61" width="32.99" height="8.65"/><rect class="cls-3" x="168.04" y="123.26" width="7.91" height="47.64"/><rect class="cls-3" x="168.04" y="165.15" width="65.6" height="5.75"/><rect class="cls-3" x="168.04" y="124.86" width="46.46" height="7.66"/><path class="cls-4" d="M214.51,126s8.93,33.94,30.34,56v42.2"/><rect class="cls-3" x="212.61" y="124.86" width="5.17" height="2.8"/></g></svg>