<?xml version="1.0" encoding="UTF-8"?>
<svg id="Layer_2" data-name="Layer 2" xmlns="http://www.w3.org/2000/svg" viewBox="0 0 418 301">
  <defs>
    <style>
      .cls-1 {
        fill: none;
        stroke: #fff;
        strokeLinecap: round;
        strokeLinejoin: round;
        strokeWidth: 5px;
      }
    </style>
  </defs>
  <g id="cross_platform" data-name="cross platform">
    <g>
      <circle class="cls-1" cx="346.45" cy="279.1" r="10.31"/>
      <rect class="cls-1" x="274" y="55.17" width="141.5" height="243.33" rx="15.45" ry="15.45"/>
      <line class="cls-1" x1="274" y1="259.26" x2="414.89" y2="259.26"/>
      <g>
        <g>
          <path class="cls-1" d="m23.04,2.5C10.65,2.5,2.5,11.7,2.5,23.04v151.16c0,11.34,9.2,20.54,20.54,20.54h250.31"/>
          <path class="cls-1" d="m318.51,55.56V23.04c0-11.34-9.2-20.54-20.54-20.54H22.21"/>
        </g>
        <g>
          <line class="cls-1" x1="148" y1="231.57" x2="148" y2="194.74"/>
          <line class="cls-1" x1="173" y1="231.57" x2="173" y2="194.74"/>
        </g>
        <rect class="cls-1" x="95.62" y="231.68" width="129.77" height="41.96" rx="20.23" ry="20.23"/>
      </g>
      <path class="cls-1" d="m142.88,107.01l-19.4-19.4c-2.49-2.49-6.53-2.49-9.02,0l-12.25,12.25c-2.49,2.49-2.49,6.53,0,9.02l21.49,21.49,11.4,11.4c5.46,5.46,14.31,5.46,19.76,0l11.4-11.4,56.78-56.78c2.49-2.49,2.49-6.53,0-9.02l-12.25-12.25c-2.49-2.49-6.53-2.49-9.02,0l-54.68,54.68c-1.16,1.16-3.03,1.16-4.19,0Z"/>
      <path class="cls-1" d="m332.62,161.35l-14.57-14.57c-1.87-1.87-4.9-1.87-6.78,0l-9.2,9.2c-1.87,1.87-1.87,4.9,0,6.78l16.14,16.14,8.56,8.56c4.1,4.1,10.74,4.1,14.84,0l8.56-8.56,42.63-42.63c1.87-1.87,1.87-4.9,0-6.78l-9.2-9.2c-1.87-1.87-4.9-1.87-6.78,0l-41.06,41.06c-.87.87-2.28.87-3.15,0Z"/>
    </g>
  </g>
</svg>