<?xml version="1.0" encoding="UTF-8"?>
<svg id="Layer_2" data-name="Layer 2" xmlns="http://www.w3.org/2000/svg" viewBox="0 0 390.69 426.39">
  <defs>
    <style>
      .cls-1 {
        fill: none;
        stroke: #fff;
        strokeLinecap: round;
        strokeLinejoin: round;
        strokeWidth: 5px;
      }
    </style>
  </defs>
  <g id="dive_into_virtual_realms" data-name="dive into virtual realms">
    <g>
      <path class="cls-1" d="m58.88,298.73c-6.36-16.43-11.14-34.28-14.07-53.13"/>
      <path class="cls-1" d="m156.16,5.62c.92-.24,1.85-.46,2.78-.67,7.14-1.61,14.45-2.45,21.91-2.45,76.96,0,139.36,89.37,139.36,199.61s-62.39,199.61-139.36,199.61c-26.41,0-51.1-10.52-72.14-28.79"/>
      <path class="cls-1" d="m42.43,178.85c3.33-41.1,15.38-78.39,33.42-107.98"/>
      <path class="cls-1" d="m244.38,2.58c1.35-.06,2.71-.08,4.07-.08,77.18,0,139.74,89.37,139.74,199.61,0,103.84-55.51,189.15-126.45,198.72"/>
      <path class="cls-1" d="m165.74,41.2c1.29-1.36,2.6-2.68,3.92-3.97,10.18-9.95,21.33-18.02,33.21-23.87"/>
      <path class="cls-1" d="m111.3,241.32c-.99-8.64-2.1-19.47-2.47-29.85"/>
      <path class="cls-1" d="m193.31,385.58c-23.12-14.19-43.02-37.04-57.7-65.69"/>
      <path class="cls-1" d="m245.04,401.65c-4.09-.14-8.14-.53-12.14-1.16"/>
      <rect class="cls-1" x="74.14" y="30.92" width="60.66" height="27.32" rx="8.29" ry="8.29"/>
      <rect class="cls-1" x="93.27" y="2.5" width="58.47" height="82.11" rx="17.33" ry="17.33"/>
      <path class="cls-1" d="m125.24,231.89l-16.4-73.78-26.3,50.36c-1.01,1.93-2.67,3.44-4.69,4.25l-56.98,22.99c-8.23-.54-14.84-2.81-17.49-9.32-2.45-10.14.35-16.93,7.38-21.01l48.39-13.12,29.4-67.77c3.02-6.96,8.81-12.35,15.97-14.86l57.29-20.11c8.77-3.08,18.5-1.68,26.04,3.76l58.71,42.29c4.76,3.43,8.1,8.49,9.39,14.22l12.04,53.59c2.68,9.05,1.27,18.4-6.93,20.58-8.61,2.19-20.08.68-22.07-7.65l-9.85-46.05c-1.25-5.84-4.84-10.91-9.92-14.03l-19.54-11.99c-2.48-1.52-5.61.57-5.14,3.45l9.47,58.09c1.87,11.45,3.35,27.18-4.69,35.54l-90.58,84.84-35.11,88.81c-4.54,8.81-14.6,10.92-24.05,7.1-11.31-5.55-16.57-14.13-12.57-27.32l40.99-96.02,66.67-65.2"/>
      <path class="cls-1" d="m301,100.93c14.7-3.75,25.87-10.28,34.37-20.55"/>
      <path class="cls-1" d="m302.03,304.71c13.25,2.6,25.64,11.86,33.34,20.08"/>
      <path class="cls-1" d="m137.05,299.61l14.62,27.58c2.66,4.86,7.15,8.47,12.48,10.01l86.24,21.75"/>
      <path class="cls-1" d="m169.36,269.11l12.57,31.91c2.15,5.45,6.75,9.56,12.41,11.08,0,0,38.26,9.04,53.32,12.59,2.04.48,3.96,1.44,5.45,2.91,9.46,9.23,5.1,33.12-3.09,31.25"/>
    </g>
  </g>
</svg>