<?xml version="1.0" encoding="UTF-8"?>
<svg id="Layer_2" data-name="Layer 2" xmlns="http://www.w3.org/2000/svg" viewBox="0 0 451.63 450.96">
  <defs>
    <style>
      .cls-1 {
        fill: none;
        stroke: #fff;
        stroke-miterlimit: 10;
        strokeWidth: 5px;
        color: #ffff;
      }
    </style>
  </defs>
  <g id="ENGAGE_YOUR_SENSES" data-name="ENGAGE YOUR SENSES">
    <g id="Customer_Oriented" data-name="Customer Oriented">
      <path class="cls-1" d="m244.44,21.9c.49.05.98.09,1.46.14,45.62,4.56,87.69,24.45,120.39,54.69"/>
      <path class="cls-1" d="m86.87,75.29c32.42-29.89,74.51-49.46,121.04-53.48"/>
      <path class="cls-1" d="m21.58,207.86c3.47-39.48,18.13-75.74,40.79-105.61"/>
      <path class="cls-1" d="m62.2,349.64c-22.26-29.43-36.77-65.05-40.47-103.82-.04-.47-.09-.93-.13-1.4"/>
      <path class="cls-1" d="m207.79,430.31c-45.99-4-87.63-23.19-119.89-52.52-.4-.36-.79-.72-1.18-1.08"/>
      <path class="cls-1" d="m364.91,376.69c-31.95,29.52-73.31,49-119.08,53.44"/>
      <path class="cls-1" d="m430.04,244.3c-.05.55-.1,1.11-.15,1.66-3.69,38.29-17.91,73.5-39.72,102.7"/>
      <path class="cls-1" d="m390.05,103.27c.21.29.43.59.64.89,20.94,29.07,35.63,65.45,39.27,103.59.06.58.11,1.16.16,1.73"/>
      <path class="cls-1" d="m229.01,127.65c86.05-.26,166.83,58.58,183.33,98.41-24.3,50.75-115.22,98.86-186.63,98.46-103.52-4.83-160.86-57.71-186.63-98.46,43.51-69.43,129.92-99.32,189.93-98.41Z"/>
      <circle class="cls-1" cx="226.89" cy="226.08" r="69.75"/>
      <circle class="cls-1" cx="225.81" cy="226.08" r="23.65"/>
      <circle class="cls-1" cx="20.79" cy="226.89" r="18.29"/>
      <circle class="cls-1" cx="430.84" cy="226.89" r="18.29"/>
      <path class="cls-1" d="m313.09,306.38c-12.18,59.7-37.35,104.58-67.89,118.45"/>
      <path class="cls-1" d="m245.18,25.47c30.46,13.75,55.95,59.65,68.21,119.03"/>
      <path class="cls-1" d="m136.76,146.55c.29-1.51.37-1.86.67-3.35,12.65-61.32,39.02-106.86,70.82-118.97"/>
      <path class="cls-1" d="m208.18,426.66c-31.86-12.19-58.25-57.93-70.85-119.46-.22-1.08-.12-.3-.33-1.39"/>
      <circle class="cls-1" cx="226.89" cy="20.79" r="18.29"/>
      <circle class="cls-1" cx="226.89" cy="430.17" r="18.29"/>
      <circle class="cls-1" cx="380.03" cy="88.98" r="18.29"/>
      <circle class="cls-1" cx="73.73" cy="364.8" r="18.29"/>
      <circle class="cls-1" cx="378.17" cy="363.26" r="18.29"/>
      <circle class="cls-1" cx="73.75" cy="88.96" r="18.29"/>
      <circle class="cls-1" cx="234.44" cy="218.02" r="5.16"/>
    </g>
  </g>
</svg>