<?xml version="1.0" encoding="UTF-8"?>
<svg id="Layer_2" data-name="Layer 2" xmlns="http://www.w3.org/2000/svg" xmlns:xlink="http://www.w3.org/1999/xlink" viewBox="0 0 348.22 346.09">
  <defs>
    <style>
      .cls-1, .cls-2, .cls-3, .cls-4, .cls-5 {
        fill: none;
        stroke: #fff;
      }

      .cls-1, .cls-2, .cls-4, .cls-5 {
        stroke-miterlimit: 10;
      }

      .cls-2, .cls-3 {
        strokeLinecap: round;
      }

      .cls-2, .cls-5 {
        strokeWidth: 5px;
      }

      .cls-3 {
        strokeLinejoin: round;
      }

      .cls-4 {
        strokeWidth: 3px;
      }

      .cls-6 {
        clipPath: url(#clippath);
      }
    </style>
    <clipPath id="clippath">
      <path class="cls-1" d="m221.7,136.15c-6.92-3.02-14.57-4.7-22.6-4.7-31.27,0-56.63,25.35-56.63,56.63,0,23.38,14.17,43.45,34.39,52.09,6.83,2.92,14.34,4.53,22.23,4.53,31.27,0,56.63-25.35,56.63-56.63,0-23.24-14-43.2-34.03-51.93Z"/>
    </clipPath>
  </defs>
  <g id="immersive_details" data-name="immersive details">
    <g>
      <g>
        <circle class="cls-5" cx="199.14" cy="187.98" r="76.39"/>
        <circle class="cls-5" cx="199.14" cy="187.98" r="57.43"/>
        <path class="cls-5" d="m341.17,307.71l-81.4-73.27c-4,5.21-8.65,9.89-13.84,13.91l73.23,81.36c6.08,6.08,15.93,6.08,22.01,0h0c6.08-6.08,6.08-15.93,0-22.01Z"/>
        <g>
          <path class="cls-5" d="m295.27,266.41l-35.51-31.96c-4,5.21-8.65,9.89-13.84,13.91l31.93,35.47,17.42-17.42Z"/>
          <path class="cls-5" d="m341.17,307.71l-28.62-25.76-19.15,19.15,25.76,28.62c6.08,6.08,15.93,6.08,22.01,0h0c6.08-6.08,6.08-15.93,0-22.01Z"/>
        </g>
        <g>
          <g>
            <g class="cls-6">
              <g>
                <g>
                  <g>
                    <polygon class="cls-3" points="156.01 194.87 157.61 208.38 168.51 200.24 156.01 194.87"/>
                    <polygon class="cls-3" points="166.84 186.78 168.45 200.29 179.35 192.14 166.84 186.78"/>
                    <polygon class="cls-3" points="177.68 178.68 179.28 192.19 190.18 184.04 177.68 178.68"/>
                    <polygon class="cls-3" points="188.52 170.58 190.12 184.09 201.02 175.95 188.52 170.58"/>
                    <polygon class="cls-3" points="199.35 162.48 200.96 175.99 211.86 167.85 199.35 162.48"/>
                    <polygon class="cls-3" points="210.19 154.38 211.79 167.89 222.69 159.75 210.19 154.38"/>
                    <polygon class="cls-3" points="145.17 202.97 146.77 216.48 157.67 208.34 145.17 202.97"/>
                  </g>
                  <g>
                    <polygon class="cls-3" points="168.48 200.26 155.97 194.9 166.87 186.75 168.48 200.26"/>
                    <polygon class="cls-3" points="179.31 192.17 166.81 186.8 177.71 178.65 179.31 192.17"/>
                    <polygon class="cls-3" points="190.15 184.07 177.65 178.7 188.55 170.56 190.15 184.07"/>
                    <polygon class="cls-3" points="200.99 175.97 188.49 170.6 199.38 162.46 200.99 175.97"/>
                    <polygon class="cls-3" points="211.83 167.87 199.32 162.5 210.22 154.36 211.83 167.87"/>
                    <polygon class="cls-3" points="222.66 159.77 210.16 154.41 221.06 146.26 222.66 159.77"/>
                    <polygon class="cls-3" points="157.64 208.36 145.14 202.99 156.04 194.85 157.64 208.36"/>
                  </g>
                </g>
                <g>
                  <g>
                    <polygon class="cls-3" points="157.73 208.55 159.34 222.06 170.24 213.92 157.73 208.55"/>
                    <polygon class="cls-3" points="168.57 200.45 170.18 213.96 181.07 205.82 168.57 200.45"/>
                    <polygon class="cls-3" points="179.41 192.35 181.01 205.86 191.91 197.72 179.41 192.35"/>
                    <polygon class="cls-3" points="190.25 184.26 191.85 197.77 202.75 189.62 190.25 184.26"/>
                    <polygon class="cls-3" points="201.08 176.16 202.69 189.67 213.59 181.52 201.08 176.16"/>
                    <polygon class="cls-3" points="211.92 168.06 213.52 181.57 224.42 173.43 211.92 168.06"/>
                    <polygon class="cls-3" points="146.9 216.65 148.5 230.16 159.4 222.01 146.9 216.65"/>
                  </g>
                  <g>
                    <polygon class="cls-3" points="170.21 213.94 157.7 208.57 168.6 200.43 170.21 213.94"/>
                    <polygon class="cls-3" points="181.04 205.84 168.54 200.48 179.44 192.33 181.04 205.84"/>
                    <polygon class="cls-3" points="191.88 197.74 179.38 192.38 190.28 184.23 191.88 197.74"/>
                    <polygon class="cls-3" points="202.72 189.65 190.22 184.28 201.11 176.13 202.72 189.65"/>
                    <polygon class="cls-3" points="213.56 181.55 201.05 176.18 211.95 168.04 213.56 181.55"/>
                    <polygon class="cls-3" points="224.39 173.45 211.89 168.08 222.79 159.94 224.39 173.45"/>
                    <polygon class="cls-3" points="159.37 222.04 146.87 216.67 157.77 208.53 159.37 222.04"/>
                  </g>
                </g>
                <g>
                  <g>
                    <polygon class="cls-3" points="159.37 222.04 160.97 235.55 171.87 227.4 159.37 222.04"/>
                    <polygon class="cls-3" points="170.21 213.94 171.81 227.45 182.71 219.31 170.21 213.94"/>
                    <polygon class="cls-3" points="181.04 205.84 182.65 219.35 193.55 211.21 181.04 205.84"/>
                    <polygon class="cls-3" points="191.88 197.74 193.48 211.25 204.38 203.11 191.88 197.74"/>
                    <polygon class="cls-3" points="202.72 189.65 204.32 203.16 215.22 195.01 202.72 189.65"/>
                    <polygon class="cls-3" points="213.56 181.55 215.16 195.06 226.06 186.91 213.56 181.55"/>
                    <polygon class="cls-3" points="148.53 230.14 150.14 243.65 161.04 235.5 148.53 230.14"/>
                  </g>
                  <g>
                    <polygon class="cls-3" points="171.84 227.43 159.34 222.06 170.24 213.92 171.84 227.43"/>
                    <polygon class="cls-3" points="182.68 219.33 170.18 213.96 181.07 205.82 182.68 219.33"/>
                    <polygon class="cls-3" points="193.52 211.23 181.01 205.86 191.91 197.72 193.52 211.23"/>
                    <polygon class="cls-3" points="204.35 203.13 191.85 197.77 202.75 189.62 204.35 203.13"/>
                    <polygon class="cls-3" points="215.19 195.04 202.69 189.67 213.59 181.52 215.19 195.04"/>
                    <polygon class="cls-3" points="226.03 186.94 213.52 181.57 224.42 173.43 226.03 186.94"/>
                    <polygon class="cls-3" points="161 235.53 148.5 230.16 159.4 222.01 161 235.53"/>
                  </g>
                </g>
                <g>
                  <g>
                    <polygon class="cls-3" points="129.43 170.61 131.03 184.12 141.93 175.97 129.43 170.61"/>
                    <polygon class="cls-3" points="140.26 162.51 141.87 176.02 152.77 167.87 140.26 162.51"/>
                    <polygon class="cls-3" points="151.1 154.41 152.71 167.92 163.6 159.78 151.1 154.41"/>
                    <polygon class="cls-3" points="161.94 146.31 163.54 159.82 174.44 151.68 161.94 146.31"/>
                    <polygon class="cls-3" points="172.78 138.21 174.38 151.72 185.28 143.58 172.78 138.21"/>
                    <polygon class="cls-3" points="183.61 130.12 185.22 143.63 196.12 135.48 183.61 130.12"/>
                    <polygon class="cls-3" points="118.59 178.7 120.19 192.22 131.09 184.07 118.59 178.7"/>
                  </g>
                  <g>
                    <polygon class="cls-3" points="141.9 176 129.4 170.63 140.3 162.49 141.9 176"/>
                    <polygon class="cls-3" points="152.74 167.9 140.23 162.53 151.13 154.39 152.74 167.9"/>
                    <polygon class="cls-3" points="163.57 159.8 151.07 154.43 161.97 146.29 163.57 159.8"/>
                    <polygon class="cls-3" points="174.41 151.7 161.91 146.33 172.81 138.19 174.41 151.7"/>
                    <polygon class="cls-3" points="185.25 143.6 172.74 138.24 183.64 130.09 185.25 143.6"/>
                    <polygon class="cls-3" points="196.08 135.51 183.58 130.14 194.48 121.99 196.08 135.51"/>
                    <polygon class="cls-3" points="131.06 184.09 118.56 178.73 129.46 170.58 131.06 184.09"/>
                  </g>
                </g>
                <g>
                  <g>
                    <polygon class="cls-3" points="152.64 167.71 154.25 181.22 165.14 173.08 152.64 167.71"/>
                    <polygon class="cls-3" points="163.48 159.61 165.08 173.12 175.98 164.98 163.48 159.61"/>
                    <polygon class="cls-3" points="174.32 151.51 175.92 165.02 186.82 156.88 174.32 151.51"/>
                    <polygon class="cls-3" points="185.15 143.41 186.76 156.93 197.66 148.78 185.15 143.41"/>
                    <polygon class="cls-3" points="195.99 135.32 197.59 148.83 208.49 140.68 195.99 135.32"/>
                    <polygon class="cls-3" points="206.83 127.22 208.43 140.73 219.33 132.58 206.83 127.22"/>
                    <polygon class="cls-3" points="141.8 175.81 143.41 189.32 154.31 181.17 141.8 175.81"/>
                  </g>
                  <g>
                    <polygon class="cls-3" points="165.11 173.1 152.61 167.73 163.51 159.59 165.11 173.1"/>
                    <polygon class="cls-3" points="175.95 165 163.45 159.63 174.35 151.49 175.95 165"/>
                    <polygon class="cls-3" points="186.79 156.9 174.28 151.54 185.18 143.39 186.79 156.9"/>
                    <polygon class="cls-3" points="197.62 148.8 185.12 143.44 196.02 135.29 197.62 148.8"/>
                    <polygon class="cls-3" points="208.46 140.71 195.96 135.34 206.86 127.2 208.46 140.71"/>
                    <polygon class="cls-3" points="219.3 132.61 206.8 127.24 217.69 119.1 219.3 132.61"/>
                    <polygon class="cls-3" points="154.28 181.2 141.77 175.83 152.67 167.69 154.28 181.2"/>
                  </g>
                </g>
                <g>
                  <g>
                    <polygon class="cls-3" points="154.28 181.2 155.88 194.71 166.78 186.56 154.28 181.2"/>
                    <polygon class="cls-3" points="165.11 173.1 166.72 186.61 177.62 178.47 165.11 173.1"/>
                    <polygon class="cls-3" points="175.95 165 177.55 178.51 188.45 170.37 175.95 165"/>
                    <polygon class="cls-3" points="186.79 156.9 188.39 170.41 199.29 162.27 186.79 156.9"/>
                    <polygon class="cls-3" points="197.62 148.8 199.23 162.32 210.13 154.17 197.62 148.8"/>
                    <polygon class="cls-3" points="208.46 140.71 210.07 154.22 220.96 146.07 208.46 140.71"/>
                    <polygon class="cls-3" points="143.44 189.29 145.04 202.81 155.94 194.66 143.44 189.29"/>
                  </g>
                  <g>
                    <polygon class="cls-3" points="166.75 186.59 154.25 181.22 165.14 173.08 166.75 186.59"/>
                    <polygon class="cls-3" points="177.58 178.49 165.08 173.12 175.98 164.98 177.58 178.49"/>
                    <polygon class="cls-3" points="188.42 170.39 175.92 165.02 186.82 156.88 188.42 170.39"/>
                    <polygon class="cls-3" points="199.26 162.29 186.76 156.93 197.66 148.78 199.26 162.29"/>
                    <polygon class="cls-3" points="210.1 154.19 197.59 148.83 208.49 140.68 210.1 154.19"/>
                    <polygon class="cls-3" points="220.93 146.1 208.43 140.73 219.33 132.58 220.93 146.1"/>
                    <polygon class="cls-3" points="155.91 194.68 143.41 189.32 154.31 181.17 155.91 194.68"/>
                  </g>
                </g>
                <g>
                  <g>
                    <polygon class="cls-3" points="171.75 227.24 173.35 240.75 184.25 232.61 171.75 227.24"/>
                    <polygon class="cls-3" points="182.58 219.14 184.19 232.65 195.09 224.51 182.58 219.14"/>
                    <polygon class="cls-3" points="193.42 211.04 195.02 224.55 205.92 216.41 193.42 211.04"/>
                    <polygon class="cls-3" points="204.26 202.94 205.86 216.46 216.76 208.31 204.26 202.94"/>
                    <polygon class="cls-3" points="215.1 194.85 216.7 208.36 227.6 200.21 215.1 194.85"/>
                    <polygon class="cls-3" points="225.93 186.75 227.54 200.26 238.43 192.11 225.93 186.75"/>
                    <polygon class="cls-3" points="160.91 235.34 162.51 248.85 173.41 240.7 160.91 235.34"/>
                  </g>
                  <g>
                    <polygon class="cls-3" points="184.22 232.63 171.72 227.26 182.61 219.12 184.22 232.63"/>
                    <polygon class="cls-3" points="195.06 224.53 182.55 219.16 193.45 211.02 195.06 224.53"/>
                    <polygon class="cls-3" points="205.89 216.43 193.39 211.07 204.29 202.92 205.89 216.43"/>
                    <polygon class="cls-3" points="216.73 208.33 204.23 202.97 215.13 194.82 216.73 208.33"/>
                    <polygon class="cls-3" points="227.57 200.24 215.06 194.87 225.96 186.73 227.57 200.24"/>
                    <polygon class="cls-3" points="238.4 192.14 225.9 186.77 236.8 178.63 238.4 192.14"/>
                    <polygon class="cls-3" points="173.38 240.73 160.88 235.36 171.78 227.22 173.38 240.73"/>
                  </g>
                </g>
              </g>
              <g>
                <g>
                  <g>
                    <polygon class="cls-3" points="231.79 137.66 233.39 151.17 244.29 143.03 231.79 137.66"/>
                    <polygon class="cls-3" points="242.63 129.56 244.23 143.08 255.13 134.93 242.63 129.56"/>
                    <polygon class="cls-3" points="253.47 121.47 255.07 134.98 265.97 126.83 253.47 121.47"/>
                    <polygon class="cls-3" points="264.3 113.37 265.91 126.88 276.81 118.73 264.3 113.37"/>
                    <polygon class="cls-3" points="275.14 105.27 276.74 118.78 287.64 110.64 275.14 105.27"/>
                    <polygon class="cls-3" points="285.98 97.17 287.58 110.68 298.48 102.54 285.98 97.17"/>
                    <polygon class="cls-3" points="220.95 145.76 222.56 159.27 233.46 151.13 220.95 145.76"/>
                  </g>
                  <g>
                    <polygon class="cls-3" points="244.26 143.05 231.76 137.69 242.66 129.54 244.26 143.05"/>
                    <polygon class="cls-3" points="255.1 134.95 242.6 129.59 253.5 121.44 255.1 134.95"/>
                    <polygon class="cls-3" points="265.94 126.86 253.43 121.49 264.33 113.35 265.94 126.86"/>
                    <polygon class="cls-3" points="276.77 118.76 264.27 113.39 275.17 105.25 276.77 118.76"/>
                    <polygon class="cls-3" points="287.61 110.66 275.11 105.29 286.01 97.15 287.61 110.66"/>
                    <polygon class="cls-3" points="298.45 102.56 285.95 97.2 296.84 89.05 298.45 102.56"/>
                    <polygon class="cls-3" points="233.43 151.15 220.92 145.78 231.82 137.64 233.43 151.15"/>
                  </g>
                </g>
                <g>
                  <g>
                    <polygon class="cls-3" points="233.52 151.34 235.12 164.85 246.02 156.71 233.52 151.34"/>
                    <polygon class="cls-3" points="244.36 143.24 245.96 156.75 256.86 148.61 244.36 143.24"/>
                    <polygon class="cls-3" points="255.19 135.14 256.8 148.65 267.7 140.51 255.19 135.14"/>
                    <polygon class="cls-3" points="266.03 127.05 267.64 140.56 278.53 132.41 266.03 127.05"/>
                    <polygon class="cls-3" points="276.87 118.95 278.47 132.46 289.37 124.31 276.87 118.95"/>
                    <polygon class="cls-3" points="287.71 110.85 289.31 124.36 300.21 116.22 287.71 110.85"/>
                    <polygon class="cls-3" points="222.68 159.44 224.29 172.95 235.19 164.8 222.68 159.44"/>
                  </g>
                  <g>
                    <polygon class="cls-3" points="245.99 156.73 233.49 151.36 244.39 143.22 245.99 156.73"/>
                    <polygon class="cls-3" points="256.83 148.63 244.33 143.26 255.23 135.12 256.83 148.63"/>
                    <polygon class="cls-3" points="267.67 140.53 255.16 135.17 266.06 127.02 267.67 140.53"/>
                    <polygon class="cls-3" points="278.5 132.43 266 127.07 276.9 118.92 278.5 132.43"/>
                    <polygon class="cls-3" points="289.34 124.34 276.84 118.97 287.74 110.83 289.34 124.34"/>
                    <polygon class="cls-3" points="300.18 116.24 287.68 110.87 298.57 102.73 300.18 116.24"/>
                    <polygon class="cls-3" points="235.16 164.83 222.65 159.46 233.55 151.32 235.16 164.83"/>
                  </g>
                </g>
                <g>
                  <g>
                    <polygon class="cls-3" points="235.16 164.83 236.76 178.34 247.66 170.19 235.16 164.83"/>
                    <polygon class="cls-3" points="245.99 156.73 247.6 170.24 258.49 162.1 245.99 156.73"/>
                    <polygon class="cls-3" points="256.83 148.63 258.43 162.14 269.33 154 256.83 148.63"/>
                    <polygon class="cls-3" points="267.67 140.53 269.27 154.04 280.17 145.9 267.67 140.53"/>
                    <polygon class="cls-3" points="278.5 132.43 280.11 145.95 291.01 137.8 278.5 132.43"/>
                    <polygon class="cls-3" points="289.34 124.34 290.94 137.85 301.84 129.7 289.34 124.34"/>
                    <polygon class="cls-3" points="224.32 172.93 225.92 186.44 236.82 178.29 224.32 172.93"/>
                  </g>
                  <g>
                    <polygon class="cls-3" points="247.63 170.22 235.12 164.85 246.02 156.71 247.63 170.22"/>
                    <polygon class="cls-3" points="258.46 162.12 245.96 156.75 256.86 148.61 258.46 162.12"/>
                    <polygon class="cls-3" points="269.3 154.02 256.8 148.65 267.7 140.51 269.3 154.02"/>
                    <polygon class="cls-3" points="280.14 145.92 267.64 140.56 278.53 132.41 280.14 145.92"/>
                    <polygon class="cls-3" points="290.98 137.82 278.47 132.46 289.37 124.31 290.98 137.82"/>
                    <polygon class="cls-3" points="301.81 129.73 289.31 124.36 300.21 116.22 301.81 129.73"/>
                    <polygon class="cls-3" points="236.79 178.32 224.29 172.95 235.19 164.8 236.79 178.32"/>
                  </g>
                </g>
                <g>
                  <g>
                    <polygon class="cls-3" points="194.81 224.84 196.41 238.36 207.31 230.21 194.81 224.84"/>
                    <polygon class="cls-3" points="205.65 216.75 207.25 230.26 218.15 222.11 205.65 216.75"/>
                    <polygon class="cls-3" points="216.49 208.65 218.09 222.16 228.99 214.02 216.49 208.65"/>
                    <polygon class="cls-3" points="227.32 200.55 228.93 214.06 239.82 205.92 227.32 200.55"/>
                    <polygon class="cls-3" points="238.16 192.45 239.76 205.96 250.66 197.82 238.16 192.45"/>
                    <polygon class="cls-3" points="249 184.35 250.6 197.87 261.5 189.72 249 184.35"/>
                    <polygon class="cls-3" points="183.97 232.94 185.58 246.45 196.48 238.31 183.97 232.94"/>
                  </g>
                  <g>
                    <polygon class="cls-3" points="207.28 230.23 194.78 224.87 205.68 216.72 207.28 230.23"/>
                    <polygon class="cls-3" points="218.12 222.14 205.62 216.77 216.52 208.63 218.12 222.14"/>
                    <polygon class="cls-3" points="228.96 214.04 216.45 208.67 227.35 200.53 228.96 214.04"/>
                    <polygon class="cls-3" points="239.79 205.94 227.29 200.57 238.19 192.43 239.79 205.94"/>
                    <polygon class="cls-3" points="250.63 197.84 238.13 192.48 249.03 184.33 250.63 197.84"/>
                    <polygon class="cls-3" points="261.47 189.74 248.97 184.38 259.86 176.23 261.47 189.74"/>
                    <polygon class="cls-3" points="196.45 238.33 183.94 232.97 194.84 224.82 196.45 238.33"/>
                  </g>
                </g>
                <g>
                  <g>
                    <polygon class="cls-3" points="207.62 229.38 209.23 242.89 220.13 234.74 207.62 229.38"/>
                    <polygon class="cls-3" points="218.46 221.28 220.06 234.79 230.96 226.65 218.46 221.28"/>
                    <polygon class="cls-3" points="229.3 213.18 230.9 226.69 241.8 218.55 229.3 213.18"/>
                    <polygon class="cls-3" points="240.13 205.08 241.74 218.59 252.64 210.45 240.13 205.08"/>
                    <polygon class="cls-3" points="250.97 196.99 252.58 210.5 263.47 202.35 250.97 196.99"/>
                    <polygon class="cls-3" points="261.81 188.89 263.41 202.4 274.31 194.25 261.81 188.89"/>
                    <polygon class="cls-3" points="196.79 237.48 198.39 250.99 209.29 242.84 196.79 237.48"/>
                  </g>
                  <g>
                    <polygon class="cls-3" points="220.09 234.77 207.59 229.4 218.49 221.26 220.09 234.77"/>
                    <polygon class="cls-3" points="230.93 226.67 218.43 221.3 229.33 213.16 230.93 226.67"/>
                    <polygon class="cls-3" points="241.77 218.57 229.27 213.2 240.17 205.06 241.77 218.57"/>
                    <polygon class="cls-3" points="252.61 210.47 240.1 205.11 251 196.96 252.61 210.47"/>
                    <polygon class="cls-3" points="263.44 202.37 250.94 197.01 261.84 188.86 263.44 202.37"/>
                    <polygon class="cls-3" points="274.28 194.28 261.78 188.91 272.68 180.77 274.28 194.28"/>
                    <polygon class="cls-3" points="209.26 242.87 196.76 237.5 207.65 229.35 209.26 242.87"/>
                  </g>
                </g>
                <g>
                  <g>
                    <polygon class="cls-3" points="209.26 242.87 210.86 256.38 221.76 248.23 209.26 242.87"/>
                    <polygon class="cls-3" points="220.09 234.77 221.7 248.28 232.6 240.13 220.09 234.77"/>
                    <polygon class="cls-3" points="230.93 226.67 232.54 240.18 243.43 232.04 230.93 226.67"/>
                    <polygon class="cls-3" points="241.77 218.57 243.37 232.08 254.27 223.94 241.77 218.57"/>
                    <polygon class="cls-3" points="252.61 210.47 254.21 223.98 265.11 215.84 252.61 210.47"/>
                    <polygon class="cls-3" points="263.44 202.37 265.05 215.89 275.95 207.74 263.44 202.37"/>
                    <polygon class="cls-3" points="198.42 250.96 200.02 264.47 210.92 256.33 198.42 250.96"/>
                  </g>
                  <g>
                    <polygon class="cls-3" points="221.73 248.26 209.23 242.89 220.13 234.74 221.73 248.26"/>
                    <polygon class="cls-3" points="232.57 240.16 220.06 234.79 230.96 226.65 232.57 240.16"/>
                    <polygon class="cls-3" points="243.4 232.06 230.9 226.69 241.8 218.55 243.4 232.06"/>
                    <polygon class="cls-3" points="254.24 223.96 241.74 218.59 252.64 210.45 254.24 223.96"/>
                    <polygon class="cls-3" points="265.08 215.86 252.58 210.5 263.47 202.35 265.08 215.86"/>
                    <polygon class="cls-3" points="275.92 207.76 263.41 202.4 274.31 194.25 275.92 207.76"/>
                    <polygon class="cls-3" points="210.89 256.35 198.39 250.99 209.29 242.84 210.89 256.35"/>
                  </g>
                </g>
                <g>
                  <g>
                    <polygon class="cls-3" points="247.53 170.03 249.14 183.54 260.03 175.39 247.53 170.03"/>
                    <polygon class="cls-3" points="258.37 161.93 259.97 175.44 270.87 167.3 258.37 161.93"/>
                    <polygon class="cls-3" points="269.21 153.83 270.81 167.34 281.71 159.2 269.21 153.83"/>
                    <polygon class="cls-3" points="280.04 145.73 281.65 159.24 292.55 151.1 280.04 145.73"/>
                    <polygon class="cls-3" points="290.88 137.64 292.48 151.15 303.38 143 290.88 137.64"/>
                    <polygon class="cls-3" points="301.72 129.54 303.32 143.05 314.22 134.9 301.72 129.54"/>
                    <polygon class="cls-3" points="236.7 178.13 238.3 191.64 249.2 183.49 236.7 178.13"/>
                  </g>
                  <g>
                    <polygon class="cls-3" points="260 175.42 247.5 170.05 258.4 161.91 260 175.42"/>
                    <polygon class="cls-3" points="270.84 167.32 258.34 161.95 269.24 153.81 270.84 167.32"/>
                    <polygon class="cls-3" points="281.68 159.22 269.18 153.86 280.07 145.71 281.68 159.22"/>
                    <polygon class="cls-3" points="292.52 151.12 280.01 145.76 290.91 137.61 292.52 151.12"/>
                    <polygon class="cls-3" points="303.35 143.03 290.85 137.66 301.75 129.51 303.35 143.03"/>
                    <polygon class="cls-3" points="314.19 134.93 301.69 129.56 312.59 121.42 314.19 134.93"/>
                    <polygon class="cls-3" points="249.17 183.52 236.66 178.15 247.56 170.01 249.17 183.52"/>
                  </g>
                </g>
              </g>
            </g>
            <path class="cls-1" d="m221.7,136.15c-6.92-3.02-14.57-4.7-22.6-4.7-31.27,0-56.63,25.35-56.63,56.63,0,23.38,14.17,43.45,34.39,52.09,6.83,2.92,14.34,4.53,22.23,4.53,31.27,0,56.63-25.35,56.63-56.63,0-23.24-14-43.2-34.03-51.93Z"/>
          </g>
          <path class="cls-4" d="m221.7,136.15c-6.92-3.02-14.57-4.7-22.6-4.7-31.27,0-56.63,25.35-56.63,56.63,0,23.38,14.17,43.45,34.39,52.09,6.83,2.92,14.34,4.53,22.23,4.53,31.27,0,56.63-25.35,56.63-56.63,0-23.24-14-43.2-34.03-51.93Z"/>
        </g>
      </g>
      <path class="cls-2" d="m66.91,81.94c25.68-21.45,58.74-34.35,94.81-34.35,81.74,0,148,66.26,148,148,0,22.41-4.98,43.66-13.9,62.7"/>
      <path class="cls-2" d="m274.37,291.58c-27.15,31.83-67.54,52.01-112.65,52.01-81.74,0-148-66.26-148-148,0-24.2,5.81-47.04,16.11-67.21"/>
      <g id="touch_up" data-name="touch up">
        <path class="cls-5" d="m109.83,27.16h0c.98.26,1.57,1.28,1.3,2.26-.17.61-.64,1.1-1.25,1.29h-.05c-12.49.87-22.44,10.81-23.3,23.3h0c-.25.99-1.26,1.59-2.25,1.34-.66-.17-1.17-.68-1.34-1.34h0c-.92-12.44-10.85-22.32-23.3-23.18h0c-1.01-.27-1.61-1.31-1.34-2.33.18-.66.69-1.16,1.34-1.34h0c12.49-.86,22.43-10.8,23.3-23.28h0c.25-.99,1.27-1.58,2.25-1.33.65.17,1.06.46,1.37,1.25l.08.54c.19,14.05,12.34,21.55,23.18,22.81h0Z"/>
        <path class="cls-5" d="m92.24,102.56h0c1.72.42,2.78,2.15,2.36,3.87-.27,1.14-1.14,2.03-2.27,2.34h-.09c-21.72,1.51-39,18.79-40.51,40.51h0c-.44,1.73-2.2,2.76-3.92,2.32-1.14-.29-2.03-1.18-2.32-2.32h0c-1.58-21.66-18.84-38.88-40.51-40.38h-.03c-1.76-.48-2.79-2.28-2.32-4.04.31-1.14,1.21-2.03,2.35-2.33h0c21.72-1.51,39-18.79,40.51-40.51h0c.44-1.72,2.2-2.76,3.92-2.31,1.14.29,2.02,1.18,2.31,2.31l.21.8c.57,24.03,21.46,37.54,40.32,39.73h0Z"/>
        <path class="cls-5" d="m151.69,82.09h0c.72.17,1.17.9,1,1.62-.12.48-.48.86-.96.99h-.04c-9.13.62-16.41,7.9-17.03,17.03h0c-.19.73-.93,1.16-1.66.97-.48-.13-.85-.5-.97-.97h0c-.65-9.11-7.91-16.34-17.03-16.97h0c-.74-.19-1.18-.95-.99-1.69.13-.49.51-.87.99-.99h0c9.14-.62,16.41-7.9,17.03-17.03h0c.2-.72.94-1.15,1.67-.96.47.13.83.49.96.96l.08.34c.24,10.09,9.02,15.77,16.95,16.69h0Z"/>
      </g>
    </g>
  </g>
</svg>