<?xml version="1.0" encoding="UTF-8"?>
<svg id="Layer_2" data-name="Layer 2" xmlns="http://www.w3.org/2000/svg" viewBox="0 0 463 273.5">
  <defs>
    <style>
      .cls-1 {
        strokeLinecap: round;
      }

      .cls-1, .cls-2 {
        fill: none;
        stroke: #fff;
        stroke-miterlimit: 10;
        strokeWidth: 5px;
      }
    </style>
  </defs>
  <g id="interactivity">
    <g>
      <g>
        <path d="m297.7,90.28c-7.58-.35-14.01,5.06-15.66,11.25-.08.29-.52.68-.8.68-5.44.05-10.88.05-16.32.02-.26,0-.67-.41-.75-.71-.2-.71-.22-1.47-.36-2.2-1.09-5.46-3.35-10.37-6.86-14.66,7.37-7.36,14.71-14.68,22.12-22.08.19.15.46.37.72.59,4.97,4.24,10.74,6.26,17.19,5.26,11.51-1.8,20.13-11.52,18.27-24.68-1.78-12.56-14.66-20.79-26.83-17.29-11.23,3.22-20.01,15.5-13.71,29.94.32.74.29,1.17-.29,1.74-7.1,7.08-14.17,14.2-21.25,21.3-.24.24-.53.42-.79.61-5.1-4.09-10.78-6.55-17.15-7.23-8.78-.94-16.67,1.41-23.68,6.76-.56.42-.9.46-1.42-.09-3-3.08-6.05-6.12-9.06-9.19-.18-.18-.28-.68-.16-.88,1.31-2.25,1.48-4.7,1.48-7.21-.02-9.53,0-19.06-.01-28.59,0-1.1-.03-2.21-.17-3.3-.52-4.17-2.77-7.07-6.65-8.66-1-.41-2.09-.62-3.13-.92h-74.26c-.37.13-.72.31-1.1.38-4.54.84-7.92,4.15-8.62,8.7-.27,1.74-.23,3.54-.23,5.32-.02,9.07-.01,18.14-.02,27.21,0,2.85.34,5.6,2.18,7.96,2.49,3.18,5.77,4.53,9.77,4.5,7.33-.05,14.65-.02,21.98-.02.71,0,1.43,0,2.13-.07,1.66-.18,3.01-1.56,3.03-3.07.02-1.5-1.17-2.86-2.81-3.13-.66-.11-1.34-.14-2.02-.14-6.33,0-12.66,0-18.99,0-1.56,0-3.13.04-4.69-.03-2.17-.1-3.74-1.51-4.09-3.65-.15-.91-.16-1.84-.16-2.76-.01-9.28-.02-18.57-.02-27.85,0-.85,0-1.71.07-2.56.18-2.66,1.91-4.3,4.56-4.37.46-.01.92,0,1.39,0,18.67,0,37.34-.02,56.01-.03,5.05,0,10.1-.02,15.15.02,1.97.01,3.56,1.29,4.04,3.19.17.68.17,1.41.17,2.12,0,7.25-.04,14.51-.05,21.76,0,3.17.03,6.33.03,9.5,0,2.34-1.09,3.96-3.14,4.5-.67.18-1.41.18-2.11.18-10.21,0-20.41-.01-30.62,0-.63,0-1.29.03-1.9.19-2.22.58-3.03,3.23-1.59,5.01.92,1.14,2.16,1.23,3.47,1.23,10.03-.01,20.06.02,30.09-.06,1.72-.01,3.42-.49,5.14-.7.32-.04.77.08.99.29,3.24,3.2,6.45,6.42,9.66,9.65.19.19.35.42.51.62-.06.12-.08.2-.13.25-6.04,7.62-8.41,16.22-6.92,25.85.1.66-.08,1.02-.61,1.3-1.28.7-2.57,1.36-3.83,2.09-8.22,4.74-16.43,9.48-24.64,14.23-3.07,1.78-6.14,3.55-9.27,5.36-6.58-7.52-14.74-11.78-24.73-12.23-4.95-.22-9.56.49-13.82,2.11.28,2.23.4,4.42.4,6.6,3.6-1.65,7.67-2.57,12.08-2.5,16.51.26,28.44,13.99,27.66,29.6-.76,15.21-13.47,26.71-27.58,26.64-4.85-.01-9.25-1.06-13.06-2.9,0,2.29.03,4.58.08,6.87,9.42,3.75,20.51,3.38,30.32-2.7,7.54-4.67,12.61-11.28,15.12-19.78,2.71-9.15,1.59-17.9-2.99-26.34,12.24-7.07,24.46-14.13,36.77-21.25.2.42.35.81.56,1.16,1.26,2.13,2.38,4.38,3.84,6.37,3.42,4.65,7.92,8.01,13.23,10.27.58.25,1.12.43,1.12,1.31-.05,10.14-.06,20.27-.09,30.41,0,1.15-.12,2.29-.2,3.67-.31-.39-.45-.57-.6-.75-2.05-2.55-4.02-5.16-6.16-7.63-4.68-5.39-10.61-7.22-17.57-5.92-4.15.77-7.17,3.48-7.93,7.35-.61,3.08.43,5.79,2.16,8.32,5.71,8.36,11.38,16.75,17.08,25.12,3.54,5.2,7.15,10.35,10.68,15.55,2.15,3.16,3.99,6.53,4.63,10.33.48,2.89.53,5.86.74,8.8.21,2.91,1.58,5.11,4.24,6.28,1.23.54,2.69.77,4.04.77,16.29.05,32.58.05,48.87.03,4.92,0,8.15-3.28,8.16-8.18,0-4.05.08-8.11-.02-12.16-.09-3.51.72-6.74,2.37-9.82,2.17-4.02,3.52-8.34,3.83-12.87.27-3.93.16-7.89.13-11.83,0-.65-.37-1.39-.79-1.91-.83-1.03-1.99-1.35-3.27-.95-1.27.4-2.23,1.75-2.25,3.2-.03,2.7-.07,5.41,0,8.11.13,5.03-1.17,9.69-3.51,14.1-1.87,3.54-2.95,7.3-2.95,11.33,0,3.77-.01,7.54-.01,11.31,0,3.55.23,3.31-3.29,3.31-15.26.02-30.52,0-45.77,0-.75,0-1.49-.02-2.24-.06-.78-.04-1.15-.33-1.18-1.25-.08-2.38-.18-4.77-.52-7.12-.84-5.78-3.36-10.88-6.61-15.66-6.65-9.79-13.31-19.57-19.97-29.35-2.5-3.67-5.05-7.31-7.48-11.03-1.94-2.98-.82-5.08,2.64-5.63,4.86-.78,8.63,1.06,11.74,4.57,1.58,1.78,2.98,3.71,4.45,5.58.93,1.17,1.78,2.4,2.8,3.49,1.54,1.65,3.39,2.82,5.77,2.12,2.38-.7,3.37-2.7,3.75-4.9.39-2.34.61-4.73.62-7.1.05-18.99.02-37.98.03-56.98,0-1.35-.04-2.71.06-4.05.22-3.08,2.04-4.94,4.95-5.13,2.7-.18,4.85,1.48,5.39,4.27.15.76.12,1.56.12,2.34,0,17.57-.01,35.14-.01,52.71,0,.78.06,1.57.21,2.33.26,1.31,1.33,2.31,2.61,2.49,1.37.19,2.51-.32,3.15-1.51.37-.68.54-1.55.55-2.33.03-7.61,0-15.22,0-22.83,0-.99.02-1.99.1-2.98.18-2.37,1.43-4.05,3.43-4.67,3.78-1.18,7.02,1.2,7.03,5.19.02,9.74,0,19.49,0,29.23,0,.39-.02.79.02,1.17.18,1.6,1.36,2.85,2.84,3.03,1.46.17,2.86-.64,3.36-2.06.19-.52.24-1.11.24-1.67,0-6.79-.04-13.59-.04-20.38,0-1.1,0-2.21.18-3.29.45-2.68,2.33-4.17,5.09-4.17,2.7,0,4.68,1.58,5.16,4.15.14.73.21,1.48.21,2.22.01,8.64,0,17.28.01,25.93,0,1.91,1.09,3.31,2.72,3.54,2,.28,3.68-1.18,3.68-3.31.01-5.94-.04-11.88-.03-17.82,0-1.17.04-2.36.26-3.5.53-2.7,2.48-4.08,5.45-3.98,2.56.08,4.39,1.71,4.76,4.3.13.91.21,1.84.21,2.76.02,5.9,0,11.81.02,17.71,0,2.08,1.47,3.67,3.27,3.63,1.84-.04,3.11-1.5,3.11-3.61,0-6.37,0-12.73-.04-19.1-.06-7.9-6.37-13.24-14-11.84-1.16.21-2.27.7-3.49,1.08-1.02-3.63-3.18-6.27-6.68-7.68-3.47-1.4-6.89-1.04-10.06.53-1.1-1.93-2.19-3.81-3.35-5.85,4.45-4.89,6.6-11.04,7.51-17.7h17.67c1.72,7.07,8.13,12.17,15.08,11.84,10.48-.5,16.32-9.8,14.51-18.2-1.41-6.56-7.37-11.77-13.84-12.07Zm-4.58-58.18c8.41-.57,15.56,5.96,16.12,14.73.16,7.35-5.91,15.11-14.41,15.51-8.21.39-15.36-5.93-15.93-14.33-.55-8.12,5.91-15.34,14.22-15.91Zm-41.88,91.14c-.19.23-.54.49-.79.46-2.41-.26-4.72.11-7.12,1.1,0-.46,0-.76,0-1.06-.03-6.22.15-12.45-.15-18.66-.32-6.81-5.9-11.41-12.69-10.93-5.62.4-10.44,5.38-10.52,11.14-.1,7.53-.02,15.07-.02,22.61,0,.38,0,.77,0,1.39-.77-.4-1.41-.67-1.99-1.03-7.27-4.56-11.61-11.01-12.58-19.62-.99-8.77,1.59-16.33,7.94-22.43,5.59-5.37,12.43-7.77,20.16-7.15,10.28.82,17.91,5.93,22.15,15.3,4.72,10.42,2.86,20.15-4.39,28.9Zm45.59-9.02c-5.04,0-8.98-3.94-8.99-9,0-4.69,3.96-8.51,8.83-8.51,4.86,0,8.68,3.83,8.72,8.73.04,4.8-3.85,8.78-8.56,8.78Z"/>
        <path d="m167.17,43.04c-5.19,0-10.38,0-15.57,0-.67,0-1.37-.03-2-.21-1.19-.35-2.16-1.73-2.16-2.9,0-1.19.93-2.52,2.16-2.9.63-.2,1.33-.25,1.99-.25,10.42,0,20.84,0,31.26.01,1.19,0,2.36.03,3.27.96.86.88,1.28,1.93.88,3.11-.4,1.18-1.25,1.97-2.56,2.12-.49.06-.99.1-1.49.1-5.26,0-10.53,0-15.79,0,0-.01,0-.02,0-.03Z"/>
        <path d="m141.23,58.4c-5.36,0-10.73,0-16.09,0-.14,0-.28,0-.43,0-2.01-.13-3.52-1.49-3.5-3.16.02-1.68,1.53-3.07,3.51-3.17,1.17-.06,2.34-.03,3.52-.03,9.38,0,18.76-.02,28.13.01.93,0,1.93.13,2.78.5,1.28.55,1.92,2.05,1.66,3.27-.28,1.3-1.48,2.38-2.85,2.49-.92.07-1.84.06-2.77.06-4.65,0-9.31,0-13.96,0,0,0,0,.02,0,.03Z"/>
        <path d="m129.25,43.07c-1.35,0-2.7.03-4.05-.01-.63-.02-1.29-.07-1.89-.26-1.2-.38-2.13-1.75-2.11-2.93.03-1.21.96-2.47,2.19-2.88.4-.13.83-.21,1.25-.22,3.09-.02,6.18-.03,9.27-.01,1.37,0,2.39.67,2.98,1.89.94,1.94-.25,4.14-2.44,4.32-1.73.14-3.48.03-5.22.03,0,.02,0,.05,0,.07Z"/>
        <path d="m179,58.38c-1.42,0-2.84.02-4.26,0-2.09-.04-3.62-1.36-3.64-3.12-.02-1.7,1.46-3.13,3.47-3.17,3.09-.06,6.18-.06,9.27,0,1.94.04,3.27,1.42,3.3,3.2.03,1.65-1.22,2.97-3.15,3.09-1.66.11-3.34.02-5.01.02,0,0,0-.02,0-.02Z"/>
        <path d="m134.46,139.61c-4.87,0-9.24,2.2-12.22,5.64-.19,6.94-.3,13.87-.29,20.82,3.01,3.63,7.59,5.94,12.71,5.93,8.93-.02,15.96-7.25,15.95-16.4-.01-8.86-7.23-16-16.15-15.98Zm.17,26.06c-5.54-.01-10.08-4.57-10-10.05.08-5.46,4.52-9.72,10.09-9.66,5.32.06,9.57,4.38,9.54,9.69-.04,5.58-4.31,10.03-9.62,10.02Z"/>
      </g>
      <g>
        <path class="cls-2" d="m348.42,87.15c41.92-4.99,81.03-15.81,105.86-30.15,2.69-1.55,6.22.15,6.22,3.03v168.21c0,.88-.35,1.73-.99,2.39-23.83,24.44-58.38,31.54-110.09,37.28-2.4.27-4.51-1.42-4.51-3.59V90.73c0-1.82,1.5-3.34,3.51-3.58Z"/>
        <path class="cls-2" d="m114.71,89.82c-44.45-5.6-102.91-18.35-110.19-43.97-.07-.24-.45-.2-.45.05l-1.57,188.42s0,0,0,.01c32.8,23.5,62.3,30.82,114.29,36.65,2.5.28,4.72-1.47,4.72-3.74V96.84c0-3.54-2.91-6.53-6.81-7.03Z"/>
        <path class="cls-2" d="m5.1,45.01C42.79,13.85,117.11,4.4,227.95,2.5c112.42-.03,227.76,18.94,232.25,55.97"/>
        <path class="cls-1" d="m298,171c20.86.84,29,1.38,46.91,5.03"/>
        <path class="cls-1" d="m161,172c20.45-1.73,10.82-1.08,31-2"/>
        <path class="cls-1" d="m344.91,222.12c38.35-3.63,69.4-10.06,90.52-20.29"/>
        <line class="cls-1" x1="41.62" y1="74.17" x2="42.22" y2="170.85"/>
      </g>
    </g>
  </g>
</svg>