<?xml version="1.0" encoding="UTF-8"?>
<svg id="Layer_2" data-name="Layer 2" xmlns="http://www.w3.org/2000/svg" xmlns:xlink="http://www.w3.org/1999/xlink" viewBox="0 0 349.98 398.3">
  <defs>
    <style>
      .cls-1 {
        clipPath: url(#clippath);
      }

      .cls-2 {
        stroke-miterlimit: 10;
        strokeWidth: 5px;
      }

      .cls-2, .cls-3, .cls-4 {
        fill: none;
      }

      .cls-2, .cls-4 {
        stroke: #fff;
      }

      .cls-4 {
        strokeLinecap: round;
        strokeLinejoin: round;
        strokeWidth: 2px;
      }
    </style>
    <clipPath id="clippath">
      <path class="cls-3" d="m280.34,75.95c-12.45,0-24.11,3.4-34.1,9.31-9.17,5.42-20.54,5.42-29.7,0-9.99-5.91-21.65-9.31-34.1-9.31-37.08,0-67.13,30.06-67.13,67.13s30.06,151.05,67.13,151.05c12.45,0,24.11-3.4,34.1-9.31,9.17-5.42,20.54-5.42,29.7,0,9.99,5.91,21.65,9.31,34.1,9.31,37.08,0,67.13-113.97,67.13-151.05s-30.06-67.13-67.13-67.13Z"/>
    </clipPath>
  </defs>
  <g id="realistic_physics" data-name="realistic physics">
    <g>
      <g>
        <path class="cls-2" d="m280.34,75.95c-12.45,0-24.11,3.4-34.1,9.31-9.17,5.42-20.54,5.42-29.7,0-9.99-5.91-21.65-9.31-34.1-9.31-37.08,0-67.13,30.06-67.13,67.13s30.06,151.05,67.13,151.05c12.45,0,24.11-3.4,34.1-9.31,9.17-5.42,20.54-5.42,29.7,0,9.99,5.91,21.65,9.31,34.1,9.31,37.08,0,67.13-113.97,67.13-151.05s-30.06-67.13-67.13-67.13Z"/>
        <path class="cls-2" d="m244.83,43.62c-6.87,10.8-10.03,22.5-9.57,32.59.06,1.27,1.04,1.9,2.22,1.41,9.34-3.86,18.59-11.68,25.46-22.48,6.87-10.8,10.03-22.5,9.57-32.59-.06-1.27-1.04-1.9-2.22-1.41-9.34,3.86-18.59,11.68-25.46,22.48Z"/>
        <g class="cls-1">
          <g>
            <g>
              <g>
                <g>
                  <polygon class="cls-4" points="142.02 145.72 164.53 158.72 164.53 132.72 142.02 145.72"/>
                  <polygon class="cls-4" points="142.02 119.87 164.53 132.87 164.53 106.87 142.02 119.87"/>
                  <polygon class="cls-4" points="142.02 94.02 164.53 107.02 164.53 81.03 142.02 94.02"/>
                  <polygon class="cls-4" points="142.02 68.18 164.53 81.17 164.53 55.18 142.02 68.18"/>
                  <polygon class="cls-4" points="142.02 42.33 164.53 55.32 164.53 29.33 142.02 42.33"/>
                  <polygon class="cls-4" points="142.02 16.48 164.53 29.48 164.53 3.48 142.02 16.48"/>
                  <polygon class="cls-4" points="142.02 171.57 164.53 184.57 164.53 158.57 142.02 171.57"/>
                </g>
                <g>
                  <polygon class="cls-4" points="164.53 132.8 142.02 145.79 142.02 119.8 164.53 132.8"/>
                  <polygon class="cls-4" points="164.53 106.95 142.02 119.95 142.02 93.95 164.53 106.95"/>
                  <polygon class="cls-4" points="164.53 81.1 142.02 94.1 142.02 68.1 164.53 81.1"/>
                  <polygon class="cls-4" points="164.53 55.25 142.02 68.25 142.02 42.25 164.53 55.25"/>
                  <polygon class="cls-4" points="164.53 29.4 142.02 42.4 142.02 16.4 164.53 29.4"/>
                  <polygon class="cls-4" points="164.53 3.55 142.02 16.55 142.02 -9.44 164.53 3.55"/>
                  <polygon class="cls-4" points="164.53 158.64 142.02 171.64 142.02 145.65 164.53 158.64"/>
                </g>
              </g>
              <g>
                <g>
                  <polygon class="cls-4" points="164.93 158.72 187.44 171.71 187.44 145.72 164.93 158.72"/>
                  <polygon class="cls-4" points="164.93 132.87 187.44 145.87 187.44 119.87 164.93 132.87"/>
                  <polygon class="cls-4" points="164.93 107.02 187.44 120.02 187.44 94.02 164.93 107.02"/>
                  <polygon class="cls-4" points="164.93 81.17 187.44 94.17 187.44 68.17 164.93 81.17"/>
                  <polygon class="cls-4" points="164.93 55.32 187.44 68.32 187.44 42.32 164.93 55.32"/>
                  <polygon class="cls-4" points="164.93 29.47 187.44 42.47 187.44 16.48 164.93 29.47"/>
                  <polygon class="cls-4" points="164.93 184.56 187.44 197.56 187.44 171.57 164.93 184.56"/>
                </g>
                <g>
                  <polygon class="cls-4" points="187.44 145.79 164.93 158.79 164.93 132.79 187.44 145.79"/>
                  <polygon class="cls-4" points="187.44 119.94 164.93 132.94 164.93 106.95 187.44 119.94"/>
                  <polygon class="cls-4" points="187.44 94.09 164.93 107.09 164.93 81.1 187.44 94.09"/>
                  <polygon class="cls-4" points="187.44 68.25 164.93 81.24 164.93 55.25 187.44 68.25"/>
                  <polygon class="cls-4" points="187.44 42.4 164.93 55.4 164.93 29.4 187.44 42.4"/>
                  <polygon class="cls-4" points="187.44 16.55 164.93 29.55 164.93 3.55 187.44 16.55"/>
                  <polygon class="cls-4" points="187.44 171.64 164.93 184.64 164.93 158.64 187.44 171.64"/>
                </g>
              </g>
              <g>
                <g>
                  <polygon class="cls-4" points="187.44 171.64 209.95 184.64 209.95 158.64 187.44 171.64"/>
                  <polygon class="cls-4" points="187.44 145.79 209.95 158.79 209.95 132.79 187.44 145.79"/>
                  <polygon class="cls-4" points="187.44 119.94 209.95 132.94 209.95 106.95 187.44 119.94"/>
                  <polygon class="cls-4" points="187.44 94.09 209.95 107.09 209.95 81.1 187.44 94.09"/>
                  <polygon class="cls-4" points="187.44 68.25 209.95 81.24 209.95 55.25 187.44 68.25"/>
                  <polygon class="cls-4" points="187.44 42.4 209.95 55.4 209.95 29.4 187.44 42.4"/>
                  <polygon class="cls-4" points="187.44 197.49 209.95 210.49 209.95 184.49 187.44 197.49"/>
                </g>
                <g>
                  <polygon class="cls-4" points="209.95 158.72 187.44 171.71 187.44 145.72 209.95 158.72"/>
                  <polygon class="cls-4" points="209.95 132.87 187.44 145.87 187.44 119.87 209.95 132.87"/>
                  <polygon class="cls-4" points="209.95 107.02 187.44 120.02 187.44 94.02 209.95 107.02"/>
                  <polygon class="cls-4" points="209.95 81.17 187.44 94.17 187.44 68.17 209.95 81.17"/>
                  <polygon class="cls-4" points="209.95 55.32 187.44 68.32 187.44 42.32 209.95 55.32"/>
                  <polygon class="cls-4" points="209.95 29.47 187.44 42.47 187.44 16.48 209.95 29.47"/>
                  <polygon class="cls-4" points="209.95 184.56 187.44 197.56 187.44 171.57 209.95 184.56"/>
                </g>
              </g>
              <g>
                <g>
                  <polygon class="cls-4" points="74.48 158.64 96.99 171.64 96.99 145.65 74.48 158.64"/>
                  <polygon class="cls-4" points="74.48 132.8 96.99 145.79 96.99 119.8 74.48 132.8"/>
                  <polygon class="cls-4" points="74.48 106.95 96.99 119.95 96.99 93.95 74.48 106.95"/>
                  <polygon class="cls-4" points="74.48 81.1 96.99 94.1 96.99 68.1 74.48 81.1"/>
                  <polygon class="cls-4" points="74.48 55.25 96.99 68.25 96.99 42.25 74.48 55.25"/>
                  <polygon class="cls-4" points="74.48 29.4 96.99 42.4 96.99 16.4 74.48 29.4"/>
                  <polygon class="cls-4" points="74.48 184.49 96.99 197.49 96.99 171.5 74.48 184.49"/>
                </g>
                <g>
                  <polygon class="cls-4" points="96.99 145.72 74.48 158.72 74.48 132.72 96.99 145.72"/>
                  <polygon class="cls-4" points="96.99 119.87 74.48 132.87 74.48 106.87 96.99 119.87"/>
                  <polygon class="cls-4" points="96.99 94.02 74.48 107.02 74.48 81.03 96.99 94.02"/>
                  <polygon class="cls-4" points="96.99 68.18 74.48 81.17 74.48 55.18 96.99 68.18"/>
                  <polygon class="cls-4" points="96.99 42.33 74.48 55.32 74.48 29.33 96.99 42.33"/>
                  <polygon class="cls-4" points="96.99 16.48 74.48 29.48 74.48 3.48 96.99 16.48"/>
                  <polygon class="cls-4" points="96.99 171.57 74.48 184.57 74.48 158.57 96.99 171.57"/>
                </g>
              </g>
              <g>
                <g>
                  <polygon class="cls-4" points="96.59 119.8 119.11 132.8 119.11 106.8 96.59 119.8"/>
                  <polygon class="cls-4" points="96.59 93.95 119.11 106.95 119.11 80.95 96.59 93.95"/>
                  <polygon class="cls-4" points="96.59 68.1 119.11 81.1 119.11 55.11 96.59 68.1"/>
                  <polygon class="cls-4" points="96.59 42.26 119.11 55.25 119.11 29.26 96.59 42.26"/>
                  <polygon class="cls-4" points="96.59 16.41 119.11 29.41 119.11 3.41 96.59 16.41"/>
                  <polygon class="cls-4" points="96.59 -9.44 119.11 3.56 119.11 -22.44 96.59 -9.44"/>
                  <polygon class="cls-4" points="96.59 145.65 119.11 158.65 119.11 132.65 96.59 145.65"/>
                </g>
                <g>
                  <polygon class="cls-4" points="119.11 106.88 96.59 119.87 96.59 93.88 119.11 106.88"/>
                  <polygon class="cls-4" points="119.11 81.03 96.59 94.03 96.59 68.03 119.11 81.03"/>
                  <polygon class="cls-4" points="119.11 55.18 96.59 68.18 96.59 42.18 119.11 55.18"/>
                  <polygon class="cls-4" points="119.11 29.33 96.59 42.33 96.59 16.33 119.11 29.33"/>
                  <polygon class="cls-4" points="119.11 3.48 96.59 16.48 96.59 -9.51 119.11 3.48"/>
                  <polygon class="cls-4" points="119.11 132.73 96.59 145.72 96.59 119.73 119.11 132.73"/>
                </g>
              </g>
              <g>
                <g>
                  <polygon class="cls-4" points="119.11 132.73 141.62 145.72 141.62 119.73 119.11 132.73"/>
                  <polygon class="cls-4" points="119.11 106.88 141.62 119.87 141.62 93.88 119.11 106.88"/>
                  <polygon class="cls-4" points="119.11 81.03 141.62 94.03 141.62 68.03 119.11 81.03"/>
                  <polygon class="cls-4" points="119.11 55.18 141.62 68.18 141.62 42.18 119.11 55.18"/>
                  <polygon class="cls-4" points="119.11 29.33 141.62 42.33 141.62 16.33 119.11 29.33"/>
                  <polygon class="cls-4" points="119.11 3.48 141.62 16.48 141.62 -9.51 119.11 3.48"/>
                  <polygon class="cls-4" points="119.11 158.57 141.62 171.57 141.62 145.58 119.11 158.57"/>
                </g>
                <g>
                  <polygon class="cls-4" points="141.62 119.8 119.11 132.8 119.11 106.8 141.62 119.8"/>
                  <polygon class="cls-4" points="141.62 93.95 119.11 106.95 119.11 80.95 141.62 93.95"/>
                  <polygon class="cls-4" points="141.62 68.1 119.11 81.1 119.11 55.11 141.62 68.1"/>
                  <polygon class="cls-4" points="141.62 42.26 119.11 55.25 119.11 29.26 141.62 42.26"/>
                  <polygon class="cls-4" points="141.62 16.41 119.11 29.41 119.11 3.41 141.62 16.41"/>
                  <polygon class="cls-4" points="141.62 -9.44 119.11 3.56 119.11 -22.44 141.62 -9.44"/>
                  <polygon class="cls-4" points="141.62 145.65 119.11 158.65 119.11 132.65 141.62 145.65"/>
                </g>
              </g>
              <g>
                <g>
                  <polygon class="cls-4" points="209.56 158.64 232.07 171.64 232.07 145.65 209.56 158.64"/>
                  <polygon class="cls-4" points="209.56 132.8 232.07 145.79 232.07 119.8 209.56 132.8"/>
                  <polygon class="cls-4" points="209.56 106.95 232.07 119.95 232.07 93.95 209.56 106.95"/>
                  <polygon class="cls-4" points="209.56 81.1 232.07 94.1 232.07 68.1 209.56 81.1"/>
                  <polygon class="cls-4" points="209.56 55.25 232.07 68.25 232.07 42.25 209.56 55.25"/>
                  <polygon class="cls-4" points="209.56 29.4 232.07 42.4 232.07 16.4 209.56 29.4"/>
                  <polygon class="cls-4" points="209.56 184.49 232.07 197.49 232.07 171.5 209.56 184.49"/>
                </g>
                <g>
                  <polygon class="cls-4" points="232.07 145.72 209.56 158.72 209.56 132.72 232.07 145.72"/>
                  <polygon class="cls-4" points="232.07 119.87 209.56 132.87 209.56 106.87 232.07 119.87"/>
                  <polygon class="cls-4" points="232.07 94.02 209.56 107.02 209.56 81.03 232.07 94.02"/>
                  <polygon class="cls-4" points="232.07 68.18 209.56 81.17 209.56 55.18 232.07 68.18"/>
                  <polygon class="cls-4" points="232.07 42.33 209.56 55.32 209.56 29.33 232.07 42.33"/>
                  <polygon class="cls-4" points="232.07 16.48 209.56 29.48 209.56 3.48 232.07 16.48"/>
                  <polygon class="cls-4" points="232.07 171.57 209.56 184.57 209.56 158.57 232.07 171.57"/>
                </g>
              </g>
            </g>
            <g>
              <g>
                <g>
                  <polygon class="cls-4" points="142.02 326.56 164.53 339.56 164.53 313.56 142.02 326.56"/>
                  <polygon class="cls-4" points="142.02 300.71 164.53 313.71 164.53 287.72 142.02 300.71"/>
                  <polygon class="cls-4" points="142.02 274.87 164.53 287.86 164.53 261.87 142.02 274.87"/>
                  <polygon class="cls-4" points="142.02 249.02 164.53 262.01 164.53 236.02 142.02 249.02"/>
                  <polygon class="cls-4" points="142.02 223.17 164.53 236.17 164.53 210.17 142.02 223.17"/>
                  <polygon class="cls-4" points="142.02 197.32 164.53 210.32 164.53 184.32 142.02 197.32"/>
                  <polygon class="cls-4" points="142.02 352.41 164.53 365.41 164.53 339.41 142.02 352.41"/>
                </g>
                <g>
                  <polygon class="cls-4" points="164.53 313.64 142.02 326.64 142.02 300.64 164.53 313.64"/>
                  <polygon class="cls-4" points="164.53 287.79 142.02 300.79 142.02 274.79 164.53 287.79"/>
                  <polygon class="cls-4" points="164.53 261.94 142.02 274.94 142.02 248.94 164.53 261.94"/>
                  <polygon class="cls-4" points="164.53 236.09 142.02 249.09 142.02 223.09 164.53 236.09"/>
                  <polygon class="cls-4" points="164.53 210.24 142.02 223.24 142.02 197.25 164.53 210.24"/>
                  <polygon class="cls-4" points="164.53 184.4 142.02 197.39 142.02 171.4 164.53 184.4"/>
                  <polygon class="cls-4" points="164.53 339.49 142.02 352.48 142.02 326.49 164.53 339.49"/>
                </g>
              </g>
              <g>
                <g>
                  <polygon class="cls-4" points="164.93 339.56 187.44 352.56 187.44 326.56 164.93 339.56"/>
                  <polygon class="cls-4" points="164.93 313.71 187.44 326.71 187.44 300.71 164.93 313.71"/>
                  <polygon class="cls-4" points="164.93 287.86 187.44 300.86 187.44 274.86 164.93 287.86"/>
                  <polygon class="cls-4" points="164.93 262.01 187.44 275.01 187.44 249.01 164.93 262.01"/>
                  <polygon class="cls-4" points="164.93 236.16 187.44 249.16 187.44 223.17 164.93 236.16"/>
                  <polygon class="cls-4" points="164.93 210.32 187.44 223.31 187.44 197.32 164.93 210.32"/>
                  <polygon class="cls-4" points="164.93 365.41 187.44 378.4 187.44 352.41 164.93 365.41"/>
                </g>
                <g>
                  <polygon class="cls-4" points="187.44 326.63 164.93 339.63 164.93 313.64 187.44 326.63"/>
                  <polygon class="cls-4" points="187.44 300.78 164.93 313.78 164.93 287.79 187.44 300.78"/>
                  <polygon class="cls-4" points="187.44 274.94 164.93 287.93 164.93 261.94 187.44 274.94"/>
                  <polygon class="cls-4" points="187.44 249.09 164.93 262.09 164.93 236.09 187.44 249.09"/>
                  <polygon class="cls-4" points="187.44 223.24 164.93 236.24 164.93 210.24 187.44 223.24"/>
                  <polygon class="cls-4" points="187.44 197.39 164.93 210.39 164.93 184.39 187.44 197.39"/>
                  <polygon class="cls-4" points="187.44 352.48 164.93 365.48 164.93 339.48 187.44 352.48"/>
                </g>
              </g>
              <g>
                <g>
                  <polygon class="cls-4" points="187.44 352.48 209.95 365.48 209.95 339.48 187.44 352.48"/>
                  <polygon class="cls-4" points="187.44 326.63 209.95 339.63 209.95 313.64 187.44 326.63"/>
                  <polygon class="cls-4" points="187.44 300.78 209.95 313.78 209.95 287.79 187.44 300.78"/>
                  <polygon class="cls-4" points="187.44 274.94 209.95 287.93 209.95 261.94 187.44 274.94"/>
                  <polygon class="cls-4" points="187.44 249.09 209.95 262.09 209.95 236.09 187.44 249.09"/>
                  <polygon class="cls-4" points="187.44 223.24 209.95 236.24 209.95 210.24 187.44 223.24"/>
                  <polygon class="cls-4" points="187.44 378.33 209.95 391.33 209.95 365.33 187.44 378.33"/>
                </g>
                <g>
                  <polygon class="cls-4" points="209.95 339.56 187.44 352.56 187.44 326.56 209.95 339.56"/>
                  <polygon class="cls-4" points="209.95 313.71 187.44 326.71 187.44 300.71 209.95 313.71"/>
                  <polygon class="cls-4" points="209.95 287.86 187.44 300.86 187.44 274.86 209.95 287.86"/>
                  <polygon class="cls-4" points="209.95 262.01 187.44 275.01 187.44 249.01 209.95 262.01"/>
                  <polygon class="cls-4" points="209.95 236.16 187.44 249.16 187.44 223.17 209.95 236.16"/>
                  <polygon class="cls-4" points="209.95 210.32 187.44 223.31 187.44 197.32 209.95 210.32"/>
                  <polygon class="cls-4" points="209.95 365.41 187.44 378.4 187.44 352.41 209.95 365.41"/>
                </g>
              </g>
              <g>
                <g>
                  <polygon class="cls-4" points="74.48 339.49 96.99 352.48 96.99 326.49 74.48 339.49"/>
                  <polygon class="cls-4" points="74.48 313.64 96.99 326.64 96.99 300.64 74.48 313.64"/>
                  <polygon class="cls-4" points="74.48 287.79 96.99 300.79 96.99 274.79 74.48 287.79"/>
                  <polygon class="cls-4" points="74.48 261.94 96.99 274.94 96.99 248.94 74.48 261.94"/>
                  <polygon class="cls-4" points="74.48 236.09 96.99 249.09 96.99 223.09 74.48 236.09"/>
                  <polygon class="cls-4" points="74.48 210.24 96.99 223.24 96.99 197.25 74.48 210.24"/>
                  <polygon class="cls-4" points="74.48 365.34 96.99 378.33 96.99 352.34 74.48 365.34"/>
                </g>
                <g>
                  <polygon class="cls-4" points="96.99 326.56 74.48 339.56 74.48 313.56 96.99 326.56"/>
                  <polygon class="cls-4" points="96.99 300.71 74.48 313.71 74.48 287.72 96.99 300.71"/>
                  <polygon class="cls-4" points="96.99 274.87 74.48 287.86 74.48 261.87 96.99 274.87"/>
                  <polygon class="cls-4" points="96.99 249.02 74.48 262.01 74.48 236.02 96.99 249.02"/>
                  <polygon class="cls-4" points="96.99 223.17 74.48 236.17 74.48 210.17 96.99 223.17"/>
                  <polygon class="cls-4" points="96.99 197.32 74.48 210.32 74.48 184.32 96.99 197.32"/>
                  <polygon class="cls-4" points="96.99 352.41 74.48 365.41 74.48 339.41 96.99 352.41"/>
                </g>
              </g>
              <g>
                <g>
                  <polygon class="cls-4" points="96.59 300.64 119.11 313.64 119.11 287.64 96.59 300.64"/>
                  <polygon class="cls-4" points="96.59 274.79 119.11 287.79 119.11 261.8 96.59 274.79"/>
                  <polygon class="cls-4" points="96.59 248.95 119.11 261.94 119.11 235.95 96.59 248.95"/>
                  <polygon class="cls-4" points="96.59 223.1 119.11 236.1 119.11 210.1 96.59 223.1"/>
                  <polygon class="cls-4" points="96.59 197.25 119.11 210.25 119.11 184.25 96.59 197.25"/>
                  <polygon class="cls-4" points="96.59 171.4 119.11 184.4 119.11 158.4 96.59 171.4"/>
                  <polygon class="cls-4" points="96.59 326.49 119.11 339.49 119.11 313.49 96.59 326.49"/>
                </g>
                <g>
                  <polygon class="cls-4" points="119.11 287.72 96.59 300.72 96.59 274.72 119.11 287.72"/>
                  <polygon class="cls-4" points="119.11 261.87 96.59 274.87 96.59 248.87 119.11 261.87"/>
                  <polygon class="cls-4" points="119.11 236.02 96.59 249.02 96.59 223.02 119.11 236.02"/>
                  <polygon class="cls-4" points="119.11 210.17 96.59 223.17 96.59 197.18 119.11 210.17"/>
                  <polygon class="cls-4" points="119.11 184.32 96.59 197.32 96.59 171.33 119.11 184.32"/>
                  <polygon class="cls-4" points="119.11 158.48 96.59 171.47 96.59 145.48 119.11 158.48"/>
                  <polygon class="cls-4" points="119.11 313.57 96.59 326.57 96.59 300.57 119.11 313.57"/>
                </g>
              </g>
              <g>
                <g>
                  <polygon class="cls-4" points="119.11 313.57 141.62 326.57 141.62 300.57 119.11 313.57"/>
                  <polygon class="cls-4" points="119.11 287.72 141.62 300.72 141.62 274.72 119.11 287.72"/>
                  <polygon class="cls-4" points="119.11 261.87 141.62 274.87 141.62 248.87 119.11 261.87"/>
                  <polygon class="cls-4" points="119.11 236.02 141.62 249.02 141.62 223.02 119.11 236.02"/>
                  <polygon class="cls-4" points="119.11 210.17 141.62 223.17 141.62 197.18 119.11 210.17"/>
                  <polygon class="cls-4" points="119.11 184.32 141.62 197.32 141.62 171.33 119.11 184.32"/>
                  <polygon class="cls-4" points="119.11 339.42 141.62 352.41 141.62 326.42 119.11 339.42"/>
                </g>
                <g>
                  <polygon class="cls-4" points="141.62 300.64 119.11 313.64 119.11 287.64 141.62 300.64"/>
                  <polygon class="cls-4" points="141.62 274.79 119.11 287.79 119.11 261.8 141.62 274.79"/>
                  <polygon class="cls-4" points="141.62 248.95 119.11 261.94 119.11 235.95 141.62 248.95"/>
                  <polygon class="cls-4" points="141.62 223.1 119.11 236.1 119.11 210.1 141.62 223.1"/>
                  <polygon class="cls-4" points="141.62 197.25 119.11 210.25 119.11 184.25 141.62 197.25"/>
                  <polygon class="cls-4" points="141.62 171.4 119.11 184.4 119.11 158.4 141.62 171.4"/>
                  <polygon class="cls-4" points="141.62 326.49 119.11 339.49 119.11 313.49 141.62 326.49"/>
                </g>
              </g>
              <g>
                <g>
                  <polygon class="cls-4" points="209.56 339.49 232.07 352.48 232.07 326.49 209.56 339.49"/>
                  <polygon class="cls-4" points="209.56 313.64 232.07 326.64 232.07 300.64 209.56 313.64"/>
                  <polygon class="cls-4" points="209.56 287.79 232.07 300.79 232.07 274.79 209.56 287.79"/>
                  <polygon class="cls-4" points="209.56 261.94 232.07 274.94 232.07 248.94 209.56 261.94"/>
                  <polygon class="cls-4" points="209.56 236.09 232.07 249.09 232.07 223.09 209.56 236.09"/>
                  <polygon class="cls-4" points="209.56 210.24 232.07 223.24 232.07 197.25 209.56 210.24"/>
                  <polygon class="cls-4" points="209.56 365.33 232.07 378.33 232.07 352.34 209.56 365.33"/>
                </g>
                <g>
                  <polygon class="cls-4" points="232.07 326.56 209.56 339.56 209.56 313.56 232.07 326.56"/>
                  <polygon class="cls-4" points="232.07 300.71 209.56 313.71 209.56 287.72 232.07 300.71"/>
                  <polygon class="cls-4" points="232.07 274.87 209.56 287.86 209.56 261.87 232.07 274.87"/>
                  <polygon class="cls-4" points="232.07 249.02 209.56 262.01 209.56 236.02 232.07 249.02"/>
                  <polygon class="cls-4" points="232.07 223.17 209.56 236.17 209.56 210.17 232.07 223.17"/>
                  <polygon class="cls-4" points="232.07 197.32 209.56 210.32 209.56 184.32 232.07 197.32"/>
                  <polygon class="cls-4" points="232.07 352.41 209.56 365.41 209.56 339.41 232.07 352.41"/>
                </g>
              </g>
            </g>
          </g>
        </g>
      </g>
      <g>
        <circle class="cls-2" cx="116.85" cy="364.44" r="16.66"/>
        <rect class="cls-2" x="2.5" y="2.5" width="228.7" height="393.3" rx="24.97" ry="24.97"/>
        <line class="cls-2" x1="3" y1="332.37" x2="230.71" y2="332.37"/>
        <path class="cls-2" d="m57.37,3.68h118.95v6.57c0,8.47-6.88,15.35-15.35,15.35h-88.26c-8.47,0-15.35-6.88-15.35-15.35V3.68h0Z"/>
      </g>
    </g>
  </g>
</svg>