<?xml version="1.0" encoding="UTF-8"?>
<svg id="Layer_2" data-name="Layer 2" xmlns="http://www.w3.org/2000/svg" viewBox="0 0 462.73 225.15">
  <defs>
    <style>
      .cls-1 {
        fill: none;
        stroke: #fff;
        strokeLinecap: round;
        strokeLinejoin: round;
        strokeWidth: 5px;
      }
    </style>
  </defs>
  <g id="transport_anywhere" data-name="transport anywhere">
    <g>
      <g>
        <path class="cls-1" d="m278.21,109.36c0-44.1,24.74-82.94,62.26-105.64,3.04-.3,6.12-.49,9.23-.52.55-.02,1.09-.02,1.65-.02,1.67,0,3.33.03,4.97.12,3.36.14,6.69.44,9.96.9,37.08,22.77,61.45,61.38,61.45,105.16,0,48.19-29.54,90.1-73.03,111.54-.14.01-.28.01-.41.01-.89.03-1.79.04-2.68.04h-.27"/>
        <line class="cls-1" x1="266.03" y1="112.61" x2="460.23" y2="112.61"/>
        <line class="cls-1" x1="354.05" y1="4.27" x2="354.05" y2="219.88"/>
        <g>
          <path class="cls-1" d="m455.39,79.88c-28.38,8.9-66.01,14.31-107.3,14.31-38.46,0-73.74-4.7-101.33-12.54,3.1-10.72,7.81-20.74,13.85-29.81,8.47-12.74,19.56-23.6,32.49-31.8,16.84-10.68,36.82-16.87,58.24-16.87s41.4,6.19,58.24,16.87c12.19,7.73,22.74,17.82,31,29.62,6.41,9.13,11.45,19.31,14.81,30.21Z"/>
          <path class="cls-1" d="m440.58,49.67c-23.35,10.75-56.16,17.43-92.49,17.43-33.8,0-64.55-5.8-87.48-15.26,8.47-12.74,19.56-23.6,32.49-31.8,16.84-10.68,36.82-16.87,58.24-16.87s41.4,6.19,58.24,16.87c12.19,7.73,22.74,17.82,31,29.62Z"/>
          <path class="cls-1" d="m351.34,3.18c21.42,0,41.4,6.19,58.24,16.87-15.33,9.04-35.78,14.55-58.24,14.55s-42.91-5.51-58.24-14.55c16.84-10.68,36.82-16.87,58.24-16.87Z"/>
        </g>
        <g>
          <path class="cls-1" d="m285.45,135.44c19.24-2.84,40.41-4.41,62.64-4.41,41.14,0,78.65,5.37,106.98,14.22-3.46,10.86-8.58,20.97-15.07,30.04-8.38,11.73-19.04,21.73-31.32,29.36-16.64,10.34-36.3,16.31-57.34,16.31s-40.7-5.97-57.34-16.31"/>
          <path class="cls-1" d="m291.39,163.96c17.1-3.74,36.35-5.84,56.7-5.84,36.04,0,68.61,6.58,91.91,17.17-8.38,11.73-19.04,21.73-31.32,29.36-16.64,10.34-36.3,16.31-57.34,16.31s-40.7-5.97-57.34-16.31"/>
          <path class="cls-1" d="m408.68,204.65c-16.64,10.34-36.3,16.31-57.34,16.31s-40.7-5.97-57.34-16.31c15.22-8.73,35.31-14.03,57.34-14.03s42.11,5.3,57.34,14.03Z"/>
        </g>
        <g>
          <path class="cls-1" d="m354.7,220.91c43.49-21.44,73.03-63.35,73.03-111.54,0-43.78-24.38-82.39-61.45-105.16-3.27-.46-6.6-.76-9.96-.9-1.65-.09-3.3-.12-4.97-.12-.55,0-1.09,0-1.65.02-17.61,22.62-29.23,61.73-29.23,106.16,0,47.13,13.08,88.26,32.5,110.1.43.49.88.98,1.32,1.45"/>
          <path class="cls-1" d="m460.23,112.07c0,11.57-1.81,22.72-5.16,33.18-3.46,10.86-8.58,20.97-15.07,30.04,0,.01-.01.03-.02.04-8.39,11.72-19.03,21.69-31.3,29.32-15.75,9.78-34.21,15.66-53.98,16.25,43.49-21.44,73.03-63.35,73.03-111.54,0-43.78-24.38-82.39-61.45-105.16,15.76,2.16,30.45,7.69,43.31,15.85,12.19,7.73,22.74,17.82,31,29.62.69.99,1.37,1.97,2.02,2.98h.01c5.46,8.35,9.78,17.51,12.78,27.23,3.15,10.17,4.84,20.99,4.84,32.19Z"/>
          <path class="cls-1" d="m354.29,220.92c-.89.03-1.79.04-2.68.04"/>
          <path class="cls-1" d="m278.21,109.36c0-44.1,24.74-82.94,62.26-105.64,3.04-.3,6.12-.49,9.23-.52.55-.02,1.09-.02,1.65-.02,1.67,0,3.33.03,4.97.12,3.36.14,6.69.44,9.96.9,37.08,22.77,61.45,61.38,61.45,105.16,0,48.19-29.54,90.1-73.03,111.54"/>
        </g>
        <g>
          <path class="cls-1" d="m289.31,159.06c12.4,26.47,34.4,48.31,62.03,61.9"/>
          <path class="cls-1" d="m351.61,220.96c21.14-19.85,27.64-49.11,31.98-77.28,5.42-41.17,1.08-83.43-16.25-121.35-1.08-2.17-1.08-3.25-1.08-5.42-3.25-8.67-9.75-15.17-18.42-14.09-21.67,3.25-35.75,19.5-47.67,36.84-17.34,28.17-28.17,59.59-20.03,91.11"/>
          <path class="cls-1" d="m289.06,158.52c12.35,26.71,34.47,48.77,62.28,62.45-21.04,0-40.7-5.97-57.34-16.31-6.25-3.87-12.07-8.37-17.39-13.39"/>
          <path class="cls-1" d="m243.87,94.5c6.03-37.1,31.68-69.17,66.47-83.33,9.62-3.91,19.79-6.42,30.13-7.44-16.28,9.86-30.58,23.04-41.33,38.77-17.39,25.34-24.97,58.93-18.8,89.04"/>
          <path class="cls-1" d="m354.29,220.92c-.89.03-1.79.04-2.68.04"/>
          <path class="cls-1" d="m280.32,131.49c-6.16-28.98.34-60.4,16.59-86.4,2.17-2.17,3.25-4.33,5.42-7.58,16.25-20.59,40.09-45.51,67.18-30.34,28.17,15.17,46.59,42.26,55.26,73.68,9.75,36.84,0,73.68-22.75,102.93-13,16.25-28.17,29.25-47.31,37.13"/>
          <path class="cls-1" d="m351.34,220.96c-27.5-13.52-49.42-35.22-61.85-61.52"/>
        </g>
      </g>
      <g>
        <path class="cls-1" d="m173.51,92.83v-5.23c0-6.02-4.88-10.91-10.91-10.91h-35.38c-6.02,0-10.91,4.88-10.91,10.91v5.23h57.19Z"/>
        <path class="cls-1" d="m229.48,92.83H60.36c-23.24,0-42.07,18.84-42.07,42.07v45.66c0,23.24,18.84,42.07,42.07,42.07h56.45c3.49,0,6.32-2.83,6.32-6.32h0c0-7.29,3.72-13.19,8.31-13.19h26.96c4.59,0,8.31,5.91,8.31,13.19h0c0,3.49,2.83,6.32,6.32,6.32h56.45c23.24,0,42.07-18.84,42.07-42.07v-45.66c0-23.24-18.84-42.07-42.07-42.07Z"/>
        <path class="cls-1" d="m272.11,190.07h5.23c6.02,0,10.91-4.88,10.91-10.91v-35.38c0-6.02-4.88-10.91-10.91-10.91h-5.23v57.19Z"/>
        <path class="cls-1" d="m18.63,190.07h-5.23c-6.02,0-10.91-4.88-10.91-10.91v-35.38c0-6.02,4.88-10.91,10.91-10.91h5.23v57.19Z"/>
        <path class="cls-1" d="m31.26,153.11c.09,3.96.16,7.93.16,11.9"/>
        <path class="cls-1" d="m55.96,105.85c-13.68.15-25.49,17.4-24.45,35.89"/>
      </g>
    </g>
  </g>
</svg>