<?xml version="1.0" encoding="UTF-8"?>
<svg id="Layer_2" data-name="Layer 2" xmlns="http://www.w3.org/2000/svg" viewBox="0 0 251.57 463">
  <defs>
    <style>
      .cls-1 {
        fill: none;
        stroke: #fff;
        strokeLinecap: round;
        strokeLinejoin: round;
        strokeWidth: 5px;
      }
    </style>
  </defs>
  <g id="unleash_your_imagination" data-name="unleash your imagination">
    <g>
      <g>
        <path class="cls-1" d="m249.07,208.52v82.21c0,16.85-2.22,33.64-6.59,49.91l-21.26,79.05v30.59c0,5.65-4.58,10.22-10.22,10.22h-75.63c-5.65,0-10.22-4.58-10.22-10.22v-15.76c0-8.19-6.64-14.83-14.83-14.83h-43.95c-13.42,0-24.05-11.33-23.2-24.72l.69-10.78c.23-3.6-1.5-6.99-4.42-9.11-5.27-3.81-8.57-9.24-8.57-15.26,0-3.38,5.6-7.57,9-10.74.92-.86.75-2.35-.36-2.95-6.89-3.73-13.95-6.61-16-12.77-1.39-4.18,1.82-10.85,4.91-14.33,1.01-1.13.55-2.92-.86-3.47l-20.83-8.18c-4.13-1.62-5.54-6.77-2.81-10.27l28.76-36.84c1.23-1.58,1.79-3.57,1.56-5.56l-5.23-45.01c-.71-6.07,4.04-11.4,10.15-11.4h199.7c5.65,0,10.22,4.58,10.22,10.22Z"/>
        <path class="cls-1" d="m216.28,298.48c0-13.39-9.49-24.54-22.12-27.14-2.56-.53-4.97,1.37-4.97,3.98v46.31c0,2.61,2.41,4.51,4.97,3.98,12.62-2.59,22.12-13.75,22.12-27.14Z"/>
        <line class="cls-1" x1="73.27" y1="234.5" x2="73.27" y2="267.22"/>
        <line class="cls-1" x1="89.64" y1="250.86" x2="56.91" y2="250.86"/>
      </g>
      <g>
        <polygon class="cls-1" points="75.6 82.08 133.46 49.05 190.71 82.08 191.75 149.37 133.46 182.58 75.6 149.03 75.6 82.08"/>
        <polyline class="cls-1" points="75.6 82.08 133.46 115.81 190.71 82.08"/>
        <line class="cls-1" x1="133.46" y1="115.81" x2="133.46" y2="182.58"/>
        <line class="cls-1" x1="132.95" y1="2.5" x2="132.95" y2="29.18"/>
        <line class="cls-1" x1="238.31" y1="97.25" x2="211.63" y2="97.25"/>
        <line class="cls-1" x1="55.44" y1="97.25" x2="28.76" y2="97.25"/>
        <line class="cls-1" x1="75.13" y1="42.97" x2="56.26" y2="24.1"/>
        <line class="cls-1" x1="184.86" y1="42.97" x2="203.73" y2="24.1"/>
      </g>
    </g>
  </g>
</svg>