<?xml version="1.0" encoding="UTF-8"?><svg id="a" xmlns="http://www.w3.org/2000/svg" viewBox="0 0 500 500"><defs><style>.c{fill:none;stroke:#231f20;stroke-miterlimit:10;strokeWidth:5px;}</style></defs><g id="b"><path class="c" d="M165.67,152.84l-5.94-53.1c-.15-1.37-1.31-2.4-2.69-2.4h-25.78c-2.17,0-3.46-2.43-2.24-4.22l38.15-56.36c.99-1.47,3.11-1.6,4.28-.26l47.42,54.29c1.49,1.71,.35,4.38-1.92,4.48l-26.3,1.17c-1.58,.07-2.76,1.47-2.56,3.04l8.42,67.01c.08,.6,.35,1.16,.79,1.59l59.47,58.62c1.06,1.05,2.77,1.04,3.82-.02l60.03-60.51c.44-.44,.71-1.03,.77-1.65l6.21-65.38c.15-1.59-1.1-2.96-2.69-2.96h-23.5c-2.27,0-3.53-2.64-2.11-4.4l46.12-57.14c1.11-1.38,3.23-1.33,4.28,.09l40.7,55.18c1.26,1.71,.14,4.15-1.98,4.3l-29.64,2.18c-1.31,.1-2.36,1.12-2.49,2.42l-5.6,53.94c-.18,1.75,1.32,3.2,3.06,2.96l55.42-7.72c1.34-.19,2.33-1.33,2.33-2.68v-26.88c0-2.19,2.47-3.48,4.27-2.21l58.63,41.39c1.47,1.03,1.54,3.18,.14,4.31l-58.18,47.16c-1.78,1.44-4.44,.16-4.41-2.13l.28-24.44c.02-1.64-1.41-2.91-3.03-2.72l-69.15,8.42c-.62,.07-1.19,.36-1.62,.8l-57.11,59.04c-1.03,1.06-1.01,2.75,.03,3.8l59.39,59.3c.44,.44,1.01,.71,1.63,.78l65.52,6.95c1.54,.16,2.9-1,2.99-2.54l1.48-26.9c.12-2.24,2.77-3.37,4.47-1.9l57.85,49.88c1.34,1.15,1.23,3.26-.22,4.27l-57.65,40.05c-1.77,1.23-4.2,0-4.25-2.16l-.61-27.81c-.03-1.36-1.07-2.49-2.43-2.63l-54.94-5.6c-1.76-.18-3.21,1.34-2.95,3.09l8.43,56.58c.2,1.33,1.34,2.31,2.68,2.31h29.35c2.24,0,3.51,2.57,2.15,4.35l-44.34,57.75c-1.12,1.45-3.33,1.4-4.37-.11l-41.13-59.35c-1.18-1.7-.09-4.04,1.97-4.23l17.74-1.65c1.46-.14,2.54-1.41,2.45-2.87l-4.41-68.33c-.04-.68-.34-1.32-.83-1.78l-60.64-57.78c-1.09-1.04-2.82-.99-3.84,.11l-55.04,59.01c-.33,.36-.56,.8-.67,1.27l-14.21,65.57c-.37,1.72,.97,3.34,2.73,3.28l25.94-.86c2.23-.07,3.59,2.44,2.3,4.26l-44.5,63.13c-1.11,1.57-3.45,1.52-4.49-.09l-39.71-61.61c-1.23-1.9,.29-4.38,2.54-4.16l27.25,2.67c1.53,.15,2.88-1,2.96-2.54l3.14-55.12c.1-1.69-1.36-3.05-3.04-2.84l-53.26,6.66c-1.35,.17-2.37,1.32-2.37,2.68v29.45c0,2.21-2.51,3.49-4.3,2.18l-57.6-42.08c-1.41-1.03-1.49-3.1-.16-4.24l57.86-49.59c1.78-1.52,4.52-.23,4.47,2.11l-.58,27.12c-.04,1.68,1.46,2.99,3.12,2.73l66.02-10.21c.57-.09,1.09-.35,1.5-.76l57.87-57.79c1.05-1.05,1.06-2.75,.01-3.81l-58.25-59.08c-.42-.42-.96-.7-1.55-.78l-65.73-9.13c-1.62-.22-3.06,1.02-3.08,2.65l-.29,27.92c-.02,2.3-2.72,3.52-4.46,2.03l-56.84-48.57c-1.34-1.15-1.24-3.25,.2-4.27l56.2-39.75c1.83-1.29,4.34,.07,4.27,2.3l-.89,25.71c-.05,1.42,1.01,2.63,2.42,2.78l56.09,5.96c1.72,.18,3.17-1.27,2.97-2.99Z"/></g></svg>