<?xml version="1.0" encoding="UTF-8"?><svg id="a" xmlns="http://www.w3.org/2000/svg" viewBox="0 0 500 500"><defs><style>.c{fill:none;stroke:#231f20;strokeLinecap:round;strokeLinejoin:round;strokeWidth:2.45px;}</style></defs><g id="b"><path class="c" d="M447.29,294.33l-.32,.14-.98,.45,2.98-20.45,1.28-.44-2.96,20.3Zm-5.11,20.95l-1.24,.7,4.83-19.74,1.22-.54-4.8,19.59Zm-7.01,20.17l-1.15,.75,.2-.59,6.33-18.12,1.11-.63-6.49,18.59Zm-96.62,106.43l-2.03,.07-.99,.04,6.37-3.65,8.62-4.93,3.06-.13-15.03,8.61Zm-17.82,7.79l-2.34,.08,15.03-6.58,2.38-.09-15.07,6.59Zm-18.38,5.75l-1.12,.04,14.35-4.48,1.16-.05-14.38,4.49Zm-80.17,2.53l-2.42-1.6,4.36,.57,11.48,1.53,2.59,1.63-16.01-2.13Zm-36.03-10.76l-.12-.08-.51-.37,13.67,4.88,.34,.22,.35,.25-13.74-4.91Zm-65.46-44.29l-.32-2.41-.02-.17,12.31,11.2,.59,2.83-12.56-11.45Zm-12.8-14.03l-.04-.73-.06-1.38,11.27,12.38,.31,2.35-11.48-12.62Zm-11.54-15.22l.08-1.66,10.18,13.45,.08,1.74v.15l-10.35-13.68Zm-18.95-33.52l.26-.8,6.45,12.68,1.36,2.67-.17,1.03-7.91-15.54v-.04Zm-7-18.44l2.72,6.69,3.83,9.49-.07,.25-.14,.44-6.61-16.33,.27-.53Zm-9.94-37.11l3.82,17.53-.2,.24-3.84-17.62,.22-.14Zm-2.78-19.07h.17s2.39,17.92,2.39,17.92l-.19,.11-2.37-18.02Zm1.93-57.56l.27,.35-2.14,17.6-.21-.17-.08-.06,2.16-17.73Zm3.82-18.81l.32,.62-3.58,17.1-.35-.45,3.62-17.27Zm12.37-36.2l.32,1.35-6.33,15.83-.41-1.12,6.42-16.05Zm8.49-17.09l.25,1.82-7.64,15.06-.37-1.56,7.76-15.32Zm9.97-16.17l.11,2.31-8.91,14.18-.09-.65-.18-1.38,9.07-14.45ZM216.73,39.08l-.11,.08-15.99,3.3,2.6-2.33,16.19-3.35-2.7,2.29Zm38.18,2.61l3.89,7.92,2.9,9.95,1.67,11.15,.35,11.58-1.01,11.2-2.27,10.02-3.43,8.16-4.25,5.59-4.72,2.67-4.91-.37-4.9-3.47-4.49-6.49-.15-.39-3.51-8.69-2.51-10.95-1.11-11.99,.35-12.04,1.81-11.13,3.09-9.33,4.1-6.8,4.7-3.76,4.9-.65,4.91,2.42,4.59,5.39Zm-29.06,81.07l-.84-.06,6.67-1.22,.85,.06-6.68,1.22Zm-21.23,7.52l-2.92-.18,8.11-3.38,2.25,.15,.64,.04-8.08,3.37Zm-9.96,5.41l-2.31-.12-1.06-.05,8.11-4.44,.79,.05,2.55,.14-8.09,4.41Zm-30.23,29.49l-.37,.21-.28,.15,5.33-6.73,.69-.41-5.37,6.78Zm-12.09,20.62l-.2,.11-1.14,.56,4.36-8.34,.22-.43,1.38-.75-4.64,8.85Zm-4.62,11.17l-1.02,.45-.45,.2,3.9-9.5,1.08-.52,.45-.22-3.96,9.59Zm-3.63,11.59l-1.55,.58,1.45-4.68,1.68-5.37,1.58-.7-3.17,10.17Zm-2.61,11.91l-1.18,.37-.41,.13,.92-4.29,1.35-6.2,.51-.19,1.12-.43-2.31,10.61Zm.86,60.6l-.46-2.08-1.9-8.62h1.68l2.4,10.83-1.71-.13Zm8.13,22.6l-4.09-9.91,1.67,.24,4.14,10.02-1.71-.34Zm7.11,11l-1.62-.41-4.86-9.33,.62,.13,1.02,.2,4.91,9.44-.06-.02Zm19.92,27.38l-6.36-6.79,.92,.32,.21,.07,6.42,6.84-1.19-.44Zm8.68,7.65l-6.36-5.61,.62,.24,6.4,5.63-.65-.26Zm36.95,21.3l-2.22,.51-8.73-2.9,.62-.14,2.64-.58,.97,.32,7.74,2.57-1.01,.22Zm31.79,4.06l-.52,.13h-6.55l.58-.14h6.49Zm28.74-2.91l-3.19,1.08-5.77,1.95,2.46-2.63,.91-.31,7.85-2.66-2.26,2.57Zm21.08-11.15l-7.44,4.46,1.25-1.5,7.33-4.41-1.15,1.45Zm9.76-7.4l-.06,.07-6.22,4.71,.38-.47,6.19-4.68-.28,.38Zm52.31-102.92l7.4-.38,9.67-.28,11.24-.15,12.02-.02,11.98,.12,11.11,.24,9.46,.35,7.11,.44,3.06,.37-5.95,.51h-.08l-8.63,.37-10.93,.24-12.34,.11-12.76-.05-12.17-.2-10.63-.33-8.24-.43-5.24-.48,3.93-.4Zm83.61,22.16l-1.34,.45,1.06-20.86,.25-.06,1.08-.22-1.05,20.7Zm-17.85,64.2l-4.49,.27,6.73-19.29,1.49-.11,3-.19-5.2,14.93-1.53,4.39Zm-6.24,17.6l-.73,.53-.22,.15,3.11-6.72,4.93-10.66,.91-.6-8,17.29Zm-10.56,17.97l-.17,.13-.41,.32,9.21-15.65,.54-.4-9.18,15.6Zm-60.11,59.49l-3.47,.14,14.49-10.51s2.21-.12,2.21-.12l1.34-.06-14.57,10.55Zm-22.38,9.94l-1.67-.71-3.6-1.56,15.56-8.95,5.52,2.15-2.64,1.51-13.19,7.56Zm-92.44,18.42l-3.03-1.92,2.41,.07,13.97,.32,3.24,1.93-16.59-.4Zm-23.03-5.45l-2.85-4.8,10.68,1.41,5.7,.75,3.32,4.88-.96-.13-15.9-2.11Zm-13.89-1.45l-1.67-1.15,14.99,3.63,1.8,1.19-15.12-3.68Zm-117.61-96.98l.07-.4,9.02,14.45-.07,1.43-9.15-14.65,.13-.83Zm-8.09-18.58l1.3-1.28,1.45-1.43,7.66,15.02-2.48,3.28-2.85-5.59-5.09-9.99Zm-13.57-34.57l5.22,16.91-.21,.43-5.26-17.04,.26-.3Zm4.19-132.63l.34,.95-4.98,16.51-.39-.75,5.03-16.71Zm36.71-63.36l-10.12,13.2-.12-2.54,10.33-13.48-.08,2.83Zm12.43-13.38l-11.28,12.11,.09-3.04,11.53-12.41-.34,3.34Zm97.07,31.95l-2.18-.14,5.83-1.74,1.9-.57,2.18,.15-7.74,2.29Zm-21.9,10.76l-7.85,5.42-3.6-.15h-.11l3.64-2.52,4.25-2.92h.34l3.32,.18Zm-35.21,38.45l-1.09,.59,.64-.98,4.46-6.9,1.15-.65-5.16,7.94Zm-16.68,34.35l-4.54,.14,3.21-10.33,4.54-.09-2.73,8.78-.47,1.5Zm-2.58,11.72l-4.59,.2,2.31-10.66,4.59-.14-.8,3.65-1.5,6.94Zm1.23,11.35l-1.63,.39,1.37-10.79,1.66-.52-1.4,10.92Zm-.07,1.16l-.45,11.09-1.67,.26,.33-8.11,.11-2.84,1.29-.31,.39-.09Zm6.09,58.82l-3.25-10.37,.67,.05,.99,.08,3.3,10.49-1.71-.25Zm23.6,40.96l-6.04-7.78,1.41,.44,6.1,7.84-1.47-.5Zm113.6,39.96l-1.37,4.47-.38,1.22-10.4,3.49,2.24-5.83,5.75-1.94,4.16-1.41Zm11.31-6.34l-8.3,3.86,1.9-2.18,8.15-3.78-1.75,2.11Zm66.15-101.8l.92,.59-1.03,7.38-.71,5.01-.88-.93,1.69-12.05Zm84.23,29.97l-4.6,.32,3.02-20.65h.21l4.39-.33-.69,4.66-2.33,16Zm-9.7,21.54l4.9-20.08,4.57-.32-4.92,20.11-.79,.05-3.75,.25Zm-63.31,103.49l-3.77,.17,13.74-12.38,1.35-.06,2.46-.12-1.9,1.73-11.87,10.67Zm-39.89,22.28l-16.42,7.18-4.87-2.32,16.16-7.08,4.38,1.89,.76,.33Zm-34.74,12.93l-4.46-2.29,16.53-5.2,4.72,2.25-11.08,3.47-5.71,1.79Zm-18.68,3.69l-4.02-2.24,16.7-3.3,4.27,2.21-16.95,3.32Zm-42.39-1.89l-3.39-4.98,16.59,.35,1.62,2.11,2.26,2.92-5.03-.11-12.05-.3Zm-21.77-8.39l-2.01-7.44,15.8,2.02,2.7,7.57-13.39-1.75-3.1-.4Zm-48.68-12.49l-1.19-3.29-.21-.59,14.88,7.07,1.77,4.08-15.25-7.27Zm-31.86-25.5l.99-5.55,13,9.7-.48,5.96-8.78-6.56-4.73-3.55Zm-59.7-92.55l6.37,15.73-2.72,2.7-6.6-16.32,2.95-2.11Zm-12.6-34.33l3.22-.91,3.65,16.76-3.09,1.5-2.33-10.7-1.45-6.65ZM118.23,95.36l1.53,5.72-3.18,3.39-7.89,8.46-1.06-2.84-.89-2.39,5.82-6.26,5.68-6.09Zm29.02-28.21l-1.03,4.26-13.36,9.6,.17-.91,.52-3.09,.45-.32,13.26-9.54Zm91.24-32.43l-3.32,2.67-10.96,1.04-5.63,.53,3.09-2.63,.63-.06,16.2-1.56Zm-7.62,9.62l-16.44,1.53h-.18l2.97-5.65,17.13-1.62-1.62,2.68-1.86,3.06Zm1.58,65.05l-11.09,.83-4-8.01,7.31-.57,4.52-.34,1.31,3.28,1.95,4.81Zm-.66,10.98l-2.9-1.9-1.02-.67h.15l9.65-.71,3.68,2.6-9.57,.69Zm-11.15,2.01l-4.34-2.64,3.54-.65,6.26-1.15,1.04,.69,3.05,2.01-7.23,1.31-2.32,.43Zm-31.37,12.99l-5.43-2.5,3.23-1.76,5.81-3.19,3.45,1.75,1.74,.89-4.33,2.37-4.47,2.45Zm-5.28,7.83l-7.47,6.35-3.93-.14,7.5-6.37,3.04,.13,.86,.04Zm-34.62,43.97h-.27l-4.16,.04,3.76-7.2,1.14-2.18h4.42l-3.1,5.93-1.79,3.42Zm-10.89,35.19l-1.37,10.83-4.61,.26,1.37-10.88,1.34-.06,3.28-.15Zm-.27,34.88l-.51-11,1.68-.26,.51,11.13-1.68,.13Zm81.46,115.05l-4.64,3.47-9.76-3.26,4.9-3.36,9.43,3.13,.07,.02Zm33.38,4.01l-2.34,2.2-1.21,1.12h-9.94l2.37-2.08,1.43-1.24h9.69Zm60.72-16.46l-8.94,6.74,.78-4.86,8.55-6.46-.39,4.58Zm10.61-10.07v-3.93l7.23-8.28,.3,3.58-7.52,8.62Zm15.79-18.31l3.04,4.97-1.62,2.28-5.89,8.28-1.66-3.6-.93-2,3.49-4.9,3.57-5.04Zm12.51-24.28l3.7,3.51-5.46,12.16-3.37-4.22,4.71-10.5,.43-.95Zm4.54-13.15l3.91,2.74-4.33,12.79-3.67-3.48,2.72-8.05,1.36-4Zm5.33-27.63l4.18,1.18-1.93,13.64-4.06-1.95,.8-5.68,1.01-7.19Zm4.93-13.79l-.66,13.85-1.54-.44-2.61-.75,.62-13.06,1.05,.09,3.15,.3Zm8.26,.45l-.72,15.07-7.1-1.4,.09-2.05,.58-11.99,5.59,.3,1.55,.07Zm9.84,16.7l-9.46-1.44,.73-15.21,9.52,.3-.79,16.36Zm12.97-16.14l-.57,11.5-.3,6.15-10.07-1.23-.95-.12,.31-6.32,.5-10.16,2.22,.02,8.85,.15Zm25.12-.04l-.99,19.83-11.18-.8,.93-18.95,6.11-.05,5.12-.04Zm19.63,20.32l1.06-20.97,4.62-.37-1.06,20.99-1.88,.13-2.74,.21Zm-43.17,117.67l-3.71,.18,3.1-4.23,8.36-11.43,3.81-.2,.39-.02-11.5,15.68-.45,.02Zm-149.51,61.1l16.65-1.45,4.45,5.11-2.64,.22-14.51,1.24-2.96-3.83-.99-1.29Zm-37.53-3.94l-16.17-3.89-1.31-7.18,15.48,3.69,.2,.77,1.8,6.61Zm-17.04-2.99l2.26,4.41-15.92-5.68-1.85-4.23,15.51,5.5Zm-33.26-13.83l1.34,3.7-14.46-8.78-.99-3.48,14.12,8.55Zm-41.11-38.21l12.1,10.98-.99,5.48-12.57-11.43,1.47-5.03Zm-12.02-13.02l11.11,12.16-1.44,4.96-11.53-12.64,1.87-4.47Zm-.82-.93l-1.83,4.41-10.41-13.76,2.21-3.89,10.03,13.23Zm-19.99-27.95l.35-.47,2.78,4.45,6.1,9.75-2.18,3.86-9.21-14.74,2.15-2.84Zm-4.23-19.3l2.48-1.79,7.25,14.2-4.93,4.53-7.62-14.95,2.81-2Zm-20.47-122l-2.07,16.95-.76-.2-2.57-.7,2.14-17.56,3.25,1.51Zm14.96-52.38l.56,.66-6.23,15.54-3.04-2.77,6.46-16.13,2.26,2.7Zm8.62-15.25l-7.53,14.81-2.86-3.39,7.81-15.39,2.59,3.97ZM178.55,54.35l-.31,.8-7.69,3.39-7.37,3.26,1.49-4.83,15.46-6.86-1.58,4.22Zm16.77-4.68l-13.83,4.42-1.89,.6,1.48-3.91,.47-1.25,16.16-5.19-2.39,5.33Zm17.6-3.63l-6.1,1.24-10.14,2.08,2.44-5.45,16.72-3.44-2.92,5.57Zm-.51,9.11l-.7,.07,2.02-8.17,16.68-1.55-2.74,8.28-15.26,1.37Zm3.78,10.68l-5.45,.47,.76-9.95,9.65-.88,6.27-.57-1.64,10.08-9.58,.84Zm-2.73,24.38l-1.98-10.82,13.91-1.17,1.03,10.95-12.96,1.04Zm11.84,25.11l-3.19-4.03,10.87-.82,3.86,5.56-10.37,.76-1.16-1.47Zm-10.33,3.55l-4.91-5.46,10.73-2,2.46,3.11,1.95,2.47-4.79,.88-5.44,1.01Zm-9.94,4.07l6.54-1.94,3.11-.93,2.41,1.47,2.07,1.27-9.4,2.78-4.73-2.64Zm-10.85,4.4l9.39-3.94,2.58,1.44,2.27,1.27-9.14,3.82-3.04-1.54-2.06-1.05Zm-20.09,12.15l8.57-5.93,5.51,2.52-8.35,5.76-5.74-2.35Zm-9.7,18.25l.34-.35,6.64-6.9,4.08,.13-6.95,7.23-4.1-.11Zm-7.38,9.13l2.4-3.03,3.97-5.01,4.21,.11-6.34,8-4.25-.06Zm-.83,1.1l4.33,.06-5.64,8.72-4.35-.02,5.67-8.75Zm-15.87,30.25l4.08-9.9,4.48-.04-4.06,9.85-4.51,.08Zm-3.73,83.4l-.27-1.28-2.11-9.47,4.62-.45,2.37,10.7-4.61,.5Zm8.16,10.99l-1.32,.17-3.25,.4-.12-.37-3.16-10.1,1.87-.21,2.72-.3,.7,2.22,2.57,8.18Zm-.02,11.72l-4.15-10.09,1.21-.14,3.35-.41,4.14,10.02-4.54,.63Zm5.49,10.63l-3.39-6.53-1.58-3.06,4.51-.62,4.97,9.54-4.49,.66Zm39.66,42.48l-8.15-5.88,4.01-.79,8.11,5.85-3.97,.82Zm36.5,20.84l-4.09-.9-5.84-1.3,4.54-3.39,9.69,2.12-4.29,3.48Zm22.41,2.45l-3.35,6.22-10.9-.05,3.86-6.2h2.02l8.37,.02Zm23.1-3.56l-2.27,5.94-9.7,2.12-.97,.2,2.32-5.04,.45-.98,7.21-1.58,2.96-.65Zm9.33,3.24l-.35,8.08-11.38,3.8,.04-.24,1.02-8.05,1.37-.46,9.31-3.12Zm22.33-12.9l-9.52,5.7,1.23-5.24,9.1-5.48-.8,5.01Zm19.7-16.5l-8.28,7.72,.38-4.42,7.92-7.39-.02,4.09Zm11.69-3.02l-8.4,9.59-1.27-3.73-.84-2.47,7.89-9.04,2.22,4.79,.39,.85Zm26.46-67.19l3.21,1.55-3.15,13.28-3.9-2.72,2.97-12.53,.88,.41Zm72.17-6.91l-.59-.02-9.18-.4,.99-19.92,9.8-.21-1.03,20.56Zm8.63,.04h-7.52l1.03-20.63,7.55-.31-1.05,20.93Zm-22.51,62.41l6.6-19.03,2.03,.18,5.29,.47-6.73,19.34-7.19-.96Zm-1.73,20.37l-7.01-1.23,8.31-18.07,7.17,.95-8.47,18.36Zm-9.04,17.65l9.69-16.49,4.34-.25-10.07,17.09-4.29,.22,.33-.58Zm-13.86,17.36l-1.44-.37-5.1-1.35,10.46-14.33,.91-1.24,2.4,.52,4.35,.96-6.75,9.21-4.83,6.6Zm-28.69,28.8l-5.95-2.08,13.83-12.48,6.2,1.89-9.96,8.95-4.12,3.71Zm-29.62,4.23l1.88-1.37,12.5-9.13,7.23,4.45-14.86,10.8-6.75-4.74Zm-.98,.67l6.71,4.71-15.67,9.01-6.21-4.96,15.17-8.76Zm-10.08,14.25l-16.32,7.16-5.64-5.1,15.8-6.98,2.38,1.9,3.78,3.02Zm-161.89-8.49l-.04-3.96-.04-2.51,14.48,6.85,.67,6.79-15.08-7.17Zm-28.74-26.91l2.95-7.27,8.69,6.46,3.63,2.7-2.29,7.81-4.22-3.16-8.75-6.53Zm-35.6-38.77l4.54-5.29,9.51,12.51-4.04,5.97-5.96-7.87-4.04-5.33Zm-18.85-50.68l6.03,14.86-5.29,3.77-6.33-15.62,5.58-3Zm-18.45-50.86l-3.29,.31-.83-17.76,3.3,.3,.82,17.16Zm6-72.38l-3.18-2.14,5.05-16.75,3.02,2.73-4.88,16.16Zm29.69-62.74l4.62,5.87-7.94,12.56-.39,.62-5.05-5.13,1.6-2.54,7.16-11.37Zm15.51-8.2l-2.12-3.35-2.06-3.25,11.05-11.84,3.63,7.24-10.5,11.2Zm19.78-29.89l3.03,7.85-6.59,5.77-4.87,4.27-3.35-6.69-.3-.58,12.08-10.62Zm-.37-1.16l-9.11,8.01-2.98,2.64-1.55-5.8,12.57-11.11,.86,5.06,.2,1.19Zm62.26-38.66l-1.31,7.88-13.38,4.25-1.79,.57,.65-7.63,5.5-1.76,10.33-3.3Zm25.18,59.46l-10.93,2.03-2.74-4.6-1.96-3.28,8.37-1.58,3.25-.62,3.35,6.74,.66,1.3Zm-43.96,16.95l9.69-5.35,5.97,5.19-9.24,5.07-6.42-4.92Zm-44.06,69.9l2.19-5.33,2.03-4.94,6.85,1.23-4.12,9.99-.85-.12-6.1-.83Zm-2.32,11.9l-1.4-.12,3.31-10.7,6.14,.83,.84,.11-3.23,10.41-5.67-.52Zm-4.06,11.99l2.38-11.03,1.71,.17,5.36,.48-2.32,10.72-6-.28-1.14-.05Zm5.57,12.36h-7.19l1.21-9.53,.21-1.73,7.16,.33-.88,6.86-.51,4.07Zm5.65,.82l-.44,10.95-4.62,.33,.07-1.9,.35-9.11h.12l4.52-.27Zm-3,35.46l-1.45-10.94,4.62-.39,1.44,10.88-4.61,.45Zm21.47,55.57l-3.23,1.18-3.3,1.21-5.97-9.37,2.78-.89,3.9-1.23,3.69,5.76,2.13,3.34Zm8.33,9.04l-6.48-8.35,4.38-.71,6.45,8.3-4.34,.76Zm40.17,37.66l-9.49-4.31,5.23-3.29,9.23,4.18-4.97,3.42Zm5.24,10.75l-4.46-1.5-6.02-2.03,5.45-5.94,9.99,3.34-4.97,6.14Zm60.15,1.51l-1.05,8.34-11.65,2.52,.02-.13,1.75-8.34,6.3-1.38,4.62-1.01Zm23.62-1.34l-11,5.06,.35-8.03,10.31-4.77,.33,7.74Zm20.95-21.87l.65,2.78,.93,4.04-9.91,7.45-.97-7.26,4.38-3.31,4.92-3.7Zm21.61-12.11l4.98,6.95-9.2,10.47-4.33-7.65,4.7-5.37,3.86-4.4Zm13.91-5.49l-8.22,11.52-4.96-6.92,7.64-10.74,5.54,6.14Zm7.83-32.1l6.42,4.36-5.98,13.27-2.47-2.16-3.52-3.1,5.44-12.12,.12-.25Zm16.23-32.29l-.7,4.98-2.09-.72-4.87-1.68,1.95-13.85,7.11,1.41-1.4,9.86Zm21.59,10.67l-10.83-2.5,.5-3.54,1.81-12.71,11.01,1.34-2.48,17.41Zm37.82-11.15l-2.41,16.64-2.41-.26-7.25-.78,2.84-19.63,9.76,.41-.52,3.62Zm1.64-3.58h7.51l-3,20.65-7.45-.34,2.95-20.31Zm-6.99,37.2l3.84-15.79,.44,.02,6.99,.32-4.91,20.11-7.33-.66,.97-4Zm-9,23.92l-9.25-2.24,4.12-11.89,2.26-6.52,9.47,1.66-5.52,15.9-1.08,3.09Zm-11.26,38.77l-6.8-1.49,3.21-5.48,6.71-11.44,6.98,1.23-6.87,11.69-3.22,5.49Zm-32.22,30.15l12.68-14.1,6.48,1.7-12.89,14.31-6.27-1.92Zm-88.78,42.29l10.92-3.47,5.35-1.69,5.59,5.05-16.77,5.28-5.09-5.17Zm-17.76,3.64l16.55-3.3,5.03,5.11-17.06,3.36-4.52-5.17Zm-22.11-7.12l7.07-.63,8.91-.8,4.19,7.71-16.7,1.47-3.47-7.75Zm-19.11-10.96l15.06,.25,2.52,9.66-15.93-.31-1.64-9.6Zm-3.41-.35l2.27,.28,1.51,8.85,.12,.73-15.77-2.02-.78-9.43,12.64,1.58Zm-13,7.62l-15.46-3.7,.05-9.14,14.63,3.45,.65,7.76,.13,1.63Zm-96.67-66.56l10.53,11.5-3.51,6.62-11.08-12.12,4.07-6Zm-39.61-56.84l-4.99-16.17,5.81-2.2,4.75,15.38-1.74,.93-3.83,2.06Zm-2.92-35.22l3.44,15.78-5.8,2.19-3.62-16.58,4.9-1.14,1.08-.25Zm-6.16,.28l-2.21-16.87,6.07-.56,2.11,16.04-.3,.07-5.67,1.31Zm-3.11-34.95l6.11,.27,.76,16.16-6.08,.56s-.79-16.98-.79-16.98Zm8.76-34.07l-1.96,15.98-6.09-1.1,2.06-16.81,6,1.93Zm9.33-53.24l5.37,4.34-5.91,14.69-5.67-3.56,3.97-9.92,2.24-5.55Zm13-10.69l-7.14,14-5.39-4.36,7.51-14.75,5.03,5.11Zm19.03-27.36l-9.45,12.24-4.65-5.89,9.94-12.93,4.16,6.58Zm11.86-11.09l5.49,8.03-1.12,1.21-8.69,9.23-6.11-7.32,9.89-10.56,.56-.58Zm22.07-34.1l.26,3.19-13.03,9.32-1.06-6.33,13.55-9.73,.28,3.55Zm15.2-9.82l-.02,4.45-13.85,7.91-.56-6.81,14.44-8.28v2.73Zm15.72-3.34l-.07,.85-6.99,3.08-7.58,3.32,.02-3.91v-3.32l15.2-6.72-.58,6.71Zm34.9,27.19l-12.73,2.44-2.73-9.9-.19-.69,1.94-.39,11.72-2.28,1.03,5.62,.96,5.2Zm-4.21,22.35l-10.64,3.19-5.41-7.66,11.32-3.45,1.74,2.9,2.99,5.03Zm-9.8,4.1l10.48-3.15,4.94,5.51-9.99,2.97-5.43-5.33Zm-25.41,22.12l-6.87-4.62,9.14-6.36,6.47,4.94-3.47,2.4-5.28,3.64Zm-41.88,58.11l-8.79-2,4.45-10.88,8.59,2.52-1.51,3.7-2.73,6.66Zm1.22,56.48l-.31-6.82,.71-.06,3.91-.27,.25,5.33,.26,5.63-4.62,.39-.2-4.2Zm.64,16.37l-7.14,.95-1.49-11.3,3.25-.28,3.93-.34,.56,4.19,.9,6.79Zm9.5,47.48l-5.16-9.95,6.84-1.85,5.03,9.66-6.71,2.13Zm22.18,28.84l-5.05-5.41-2.39-2.57,2.95-1.22,3.35-1.38,7.25,7.74-6.1,2.84Zm38.52,26.65l-2.31,2.52-3.18,3.45-2.2-1.01-7.92-3.63,5.95-5.74,.28,.13,9.38,4.27Zm5.5,10.88l-4.71,8.34-11.3-3.83,5.38-8.08,2.87,.96,7.75,2.61Zm12.53,1.73l-7.16-1.58-3.57-.8,4.94-6.09,10.22,2.26-4.44,6.22Zm36.46,.24l-10.83,1.15,3.3-6.15,10.34-1.11-2.8,6.11Zm68.59-26.14l4.35,7.68-10.09,9.33-3.63-8.29,4.21-3.93,5.16-4.79Zm42.69-58.82l-3.1,9.11-1.66,4.84-6.4-4.35,4.4-12.99,6.75,3.39Zm3.75-15.56l-3.45,14.48-4.02-2.02-2.7-1.37,3.19-13.5,.2,.07,6.78,2.34Zm10.56,1.82l-9.28-2.58,2.12-15,9.46,1.44-2.29,16.13Zm24.45,5.19l-10.94-2.09-.5-.09,2.51-17.52,11.59,1.12-2.66,18.58Zm12.12,1.88l-3.15-.48-7.88-1.21,1.01-7.05,1.67-11.63,11.18,.8-2.83,19.56Zm-40.53,91.84l10.99-15.12,8.57,3.26-11.37,15.58-8.2-3.73Zm-13.79,15.43l7.72,4.1-11.69,10.55-2.18,1.96-7.26-4.47,13.4-12.15Zm-36.74,15.72l13.68-10.05,7.83,6.54-14.35,10.49-7.17-6.98Zm-15.41,9.05l3.71-2.16,10.75-6.24,.48,.46,6.66,6.49-15.15,8.75-4.87-5.51-1.58-1.79Zm-27.75,20.32l-4.97-7.69,15.54-4.97,2.86,3.77,2.83,3.74-5.24,1.66-11.02,3.49Zm-6.09-7.38l4.94,7.65-16.57,3.31-4.21-7.76,15.84-3.21Zm-33.39,3.75l-2.52-9.7,15.06-1.4,3.41,9.66-9.46,.85-6.48,.58Zm-66.72-11.97l.85-8.79,14.23,4.98v.28l-.05,8.82-7.91-2.79-7.12-2.51Zm-13.94-15.67l13.71,6.46-.84,8.74-14.45-6.84,1.58-8.36Zm-23.34-25.46l1.16-2.03,11.52,8.52-2.25,5-1.74,3.9-12.27-9.11,3.57-6.28Zm-37.28-30.29l6.55-6.13,2.37,3.1,6.53,8.56-.78,.9-5.2,6-1.64-2.15-7.82-10.28Zm-35.7-126.87l-.51,13.51-6.11-.27,.64-16.96,6.08,1.1-.09,2.63Zm5.65-36.51l-.92,4.33-2.39,11.35-6.02-1.93,3.48-16.51,5.85,2.76Zm4.91-16.35l-4.62,15.26-4.19-1.96-1.69-.79,4.85-16.06,5.65,3.56Zm24.65-43.11l5.59,5.5-7.79,12.3-7.12-5.71,8.28-13.1,1.04,1.02Zm15.09-6.82l-8.84,11.41-6.66-6.54,9.39-12.17,2.87,3.42,3.23,3.88Zm22.11-21.4l-10.73,9.34-5.5-8.05,11.4-9.99,4.83,8.7Zm52.19-44.75l.06,6.08-14.33,4.49-.9-9.37,15.14-4.8,.04,3.6Zm1.17,5.81l-.07-6.66-.02-3.05,15.6-3.15-.76,9.92-14.75,2.93Zm3.7,23.68l-12.38,3.81-3.82-10.28,13.28-4.13,1.21,4.36,1.71,6.23Zm1.45,.79l12.61-2.42,3.16,9.85-11.76,2.22-2.53-6.09-1.48-3.56Zm-51.93,70.79l-8.02-3.47,7.07-9,1.51,.76,6.2,3.15-2.33,2.95-4.44,5.62Zm-6.61,10.18l-8.33-3,6.26-9.72,8.03,3.48-2.08,3.23-3.88,6.02Zm-18.39,58.62l-9.14-.34,1.16-9.24,.33-2.64,9.07,.91-.57,4.54-.85,6.77Zm8.21,1.15l-.44,11.05-3.74,.15-3.47,.14,.45-11.37,6.81,.02h.38Zm-7.11,23.83l-.14-3.15-.38-8.23,1.51-.06,5.69-.24,.51,11.06-4.23,.37-2.96,.25Zm4.25,24.6l-2.45-11.11,7.13-.93,2.39,10.79-7.07,1.25Zm3.68,11.89l-3.38-10.81,7.06-1.25,3.3,10.51-6.98,1.55Zm41.32,59.15l-7.96-7.05,6.07-2.83,7.87,6.94-5.85,3.03-.12-.09Zm23.51,25.65l-5.39,8.1-7.49-3.44-3.42-1.57,6.06-7.76,3.25,1.48,6.99,3.19Zm23.64,6.75l-3.99,8.5-11.58-2.61,4.68-8.31,9.06,2.02,1.82,.4Zm21.94,10.17l-11.84-.07,3.24-8.56,11.12,.04-2.52,8.6Zm12.82-1.28l-11.64,1.19,2.51-8.55,11.07-1.17-1.79,8.52h-.15Zm12.95-1.58l.41,10.01-1.6,.33-11.08,2.35,.46-10.15,5.18-1.12,6.62-1.42Zm13.92,5.59l-3.81,1.25-8.6,2.84-.4-9.98,11.53-3.84,.14,1.05,1.14,8.68Zm22.67-22.16l2.9,8.88-11.48,6.82-2.09-9.33,1.31-.78,9.37-5.59Zm11.03-8.21l2.6,5.93,1.05,2.4-6.73,5.04-4.12,3.06-2.89-8.86,5.37-4.02,4.71-3.55Zm34.35-24.73l7.64,6.71-8.97,12.5-.51-.54-6.47-7.01,7.61-10.67,.7-.98Zm19.62-43.06l7.31,2.98,1.71,.7-5.17,15.15-8.66-4.73,2.14-6.27,2.66-7.83Zm13.09-13.12l-.93,3.91-2.83,11.82-9.01-3.68,3.48-14.63,1.09,.31,8.21,2.27Zm11.91,2.77l-4.07,16.97-10.55-3.62,3.1-12.94,.69-2.91,.67,.15,10.16,2.34Zm2.89,39.4l6.03-17.53,10.8,2.54-6.35,18.34-10.48-3.36Zm3.12,22.2l8.02-17.5,9.24,2.24-8.31,18.04-8.94-2.77Zm-49.81,60.4l-7.85-6.56,12.75-11.63,8.48,6.06-1.25,1.14-12.12,11Zm-53.91,20.5l15.09-6.71,6.42,7.27-15.8,6.98-5.71-7.55Zm-85.32-14.06l13.9,1.69,.12,3.54,.24,7.2-14.84-1.87,.59-10.56Zm-16.26,6.92l1.5-10.29,13.65,3.17-.58,10.56-12.66-2.99-1.92-.45Zm-43.93-20.49l4-8.93,12.22,7.3-3.21,9.44-12.34-7.4-.67-.4Zm-20.06-28.42l10.73,9.65-4.72,8.3-11.41-10.33,5.41-7.63Zm-10.66-11.5l3.87,4.2,5.98,6.51-5.39,7.63-10.47-11.43,6.01-6.91Zm-8.79-13.26l8.02-6.39,8.26,10.8-5.26,5.07-2.18,2.11-2.51-3.29-6.33-8.3Zm-9.36-12.69l2.46,3.9,5.42,8.61-6.54,6.1-8.35-13.32,7.01-5.3Zm-12.42-29.51l9.28-3.76,5.23,12.84-8.92,4.66-3.43-8.42-2.16-5.32Zm-13.87-12.31l8.03-2.64,4.45,14.35-7.76,3.54-4.72-15.25Zm10.35-133.46l.08,.06,7.42,4.78-5.52,13.71-3.36-1.69-4.48-2.26,5.87-14.6Zm50.69-37.15l-9.13,9.65-5.64-5.5-1.9-1.86,9.76-10.37,6.92,8.08Zm12.27-37.23l4.08,9.3-11.53,8.16-4.84-8.72,12.29-8.74Zm-2.78-9.5l.99,3.56,1.37,4.86-12.34,8.79-3.04-7.89,13.01-9.32Zm14.81-8.54l1.66,8.92-13.12,7.44-.85-3.06-1.53-5.39,.34-.2,13.5-7.7Zm33.07-1.64l14.68-2.92,.64,10.86-13.76,2.68-1.56-10.62Zm-3.45,36.76l-4.84-9.37,12.28-3.77,4.02,9.66-11.46,3.48Zm-16.66,18.75l-6.2-6.47,.95-.53,9.47-5.26,6.11,7.4-9.82,5.42-.52-.56Zm-19.23,29.21l-7.68-3.9,7.83-8.21,4.44,2.6,2.9,1.7-3.22,3.35-4.27,4.46Zm-37.17,52.19l2.8-9.1,.69-2.22,8.79,2-3.32,10.77-8.95-1.45Zm-2.35,12.76l-.44-.04,2.51-11.65,8.95,1.45-2.39,11.09-8.63-.86Zm11.28,63.06l-6.02,1.29-2.92,.63-1.36-6.13-1.23-5.59,9.06-1.36,1.69,7.63,.78,3.54Zm19.67,45.38l-7.08,3.5-.82-1.28-5.49-8.63,8.3-3.49,6.02,9.44-.93,.46Zm5.16,11.08l-4.46,2.57-7.13-9.23,8.01-3.96,6.79,8.78-3.21,1.85Zm4.15,11.87l-7.88-8.46,7.65-4.39,7.52,8.03-7.3,4.81Zm25.9,10.29l-6.46,5.49-6.19-4.51-2.97-2.16,6.86-5.17,8.75,6.35Zm4.22,11.79l-8.13-4.77-1.57-.91,6.43-5.48,9.25,5.39-1.73,1.67-4.26,4.09Zm29.77,22.37l-3.11,10.09-12.55-2.87,3.96-9.85,3.21,.72,8.49,1.92Zm38.7,10.62l-11.37,1.14-1.47,.15,1.36-10.23,11.95-1.23-.47,10.17Zm40.38-13.2l-12,5.48-1.27-9.7,11.17-5.13,2.11,9.36Zm35.87-25.29l2.02,2.68,4.26,5.69-10.98,10.1-2.14-3.52-3.35-5.51,10.18-9.44Zm17.1-3.81l-10.03,11.37-6.28-8.35,9.31-10.59,7,7.57Zm11.98-32.12l6.07,4.26-7.65,13.29-.14,.24-7.63-6.69,7.23-12.6,2.13,1.5Zm45.84-28.69l2.44-10.08,11.02,1.69-4.61,19.04-10.81-2.54,1.96-8.11Zm-40.8,96.38l-8.5-6.06,11.66-13.08,9.07,5.48-12.23,13.66Zm-37.34,16.32l-6.92-8.65,8.44-6.24,4.39-3.24,1.92,2.01,5.8,6.1-4.61,3.38-9.01,6.64Zm-21.42-.08l13.58-7.95,6.91,8.63-14.42,8.37-6.07-9.06Zm-47.12,14.29l-.05-.26-2.22-10.54,13.85-2.89,2.02,6.61,1.23,4.03-6.95,1.43-7.88,1.61Zm-93.72-16.38l3.22-9.46,12.8,5.97-2.38,9.9-10.15-4.77-3.49-1.64Zm-54.13-62.44l-7.82-12.42,.79-.52,7.72-5.03,4.78,7.57,2.53,4.01-6.23,4.97-1.77,1.42Zm-30.5-72.03l.62,2.77,2.61,11.95-7.37,2.41-.65,.21-3.42-15.64,.65-.14,7.56-1.56Zm-2.89-15.98l.72-.07,1.98,14.96-8.21,1.69-2.09-15.9,7.61-.69Zm.48-32.41l-.44,11.73-.13,3.32-8.39-.2,.6-16,8.35,1.15Zm1.94-16.01l-1.85,14.9-8.36-1.15,1.95-15.85,8.26,2.09Zm14.26-46.81l-5.14-3.32-2.38-1.51,7.11-13.92,7.11,5.7-6.69,13.06Zm99-97.6l.37,2.47,1.19,8.13-13.36,4.15-.67-2.81-1.77-7.45,14.25-4.48Zm-34.87,55.4l8.66-6.06,5.77,6.02,.98,1.02-9.26,6.43-7.32-6.59,1.17-.83Zm-36.66,41.87l9.23,4.32-5.41,10.43-9.57-3.63,5.75-11.12Zm-10.98,23.8l4.75-11.67,9.58,3.63-4.48,10.96-9.85-2.92Zm5.97,15.36l-10.07-2.18,3.73-12.13,1.41,.41,8.44,2.5-3.05,9.86-.46,1.54Zm-4.48,25.83l-10.3-.64,1.06-8.53,.52-4.2,5.52,.77,4.7,.65-.48,3.83-1.02,8.11Zm14.32,76.67l-4.52-11.01,8.76-2.46,4.32,10.49-8.56,2.98Zm5.91,11.53l-2.27-4.38-3.17-6.14,8.55-2.99,5.19,10.02-8.3,3.49Zm5.88,11.41l-8.78,5.24-6.74-10.64,9.18-4.58,1.41,2.21,4.93,7.77Zm49.78,60.67l-2.51,4.99-11.79-5.46,5.57-9.13,11.01,5.06-2.28,4.54Zm10.75,9.6l-4.1-1.41-8.11-2.79,4.78-9.53,11.4,3.87-3.96,9.86Zm29.12-6.53l-10.85-1.25,3.97-8.48,11.05,1.24-3.25,8.6-.92-.11Zm13.55,2.5l-1.21,9.1-12.86-.13,2.25-10.2,11.97,.08-.15,1.15Zm14.82,19.65l-.93-10.95,12.81-2.72,1.89,10.8-13.77,2.87Zm38.65-24.02l3.76,10.14-.08,.05-12.96,5.85-2.85-10.51,12.13-5.52Zm12.6-7.4l4.66,9.65-12.5,7.37-2.11-5.68-1.66-4.46,5.1-3.03,6.51-3.86Zm17.39,.25l-6.29,4.68-5.5,4.09-4.66-9.64,10.96-8.2,5.49,9.06Zm77.14-74.93l-6.01,17.43-10.8-4.21,5.65-16.45,7.04,2.03,4.12,1.19Zm-2.89,39.62l-10.09-4.13,7.61-16.65,10.48,3.35-8,17.43Zm-19.68,12.48l9.08-15.61,5.55,2.26,4.53,1.86-9.53,16.33-9.63-4.84Zm-.59,.93l9.6,4.84-10.96,15.08-9.08-5.5,10.44-14.42Zm-67.98,60.25l-15.03,6.68-5.2-9.38,5.18-2.32,8.99-4.03,5.77,8.6,.3,.45Zm-21.28-2.28l2.48,4.47,2.71,4.88-15.49,4.94-4.31-9.59,14.61-4.71Zm-18.25-6.98l13.57-4.44,1.15,2.81,3.06,7.58-14.54,4.7-1.8-5.91-1.44-4.74Zm27.76-10.79l5.14,10.03-14.09,6.32-.63-1.54-3.58-8.86,6.58-2.97,6.58-2.98Zm6.13,9.52l-2.01-3.93-3.12-6.1,12.58-7.43,6.04,9.56-13.02,7.63-.47,.27Zm20.27-26.92l6.91,8.98-12.75,9.43-3.93-6.2-2.12-3.36,4.29-3.19,7.59-5.65Zm19.65-2.6l-1.31,1.19-10.56,9.67-6.91-8.98,11.07-10.2,2.93,3.16,4.78,5.14Zm13.39-33.67l8.63,6.3-5.14,7.13-4.57,6.34-8.43-7.52,9.04-12.6,.47,.34Zm17.67-9.21l-8.44,14.58-.43-.32-8.67-6.33,7.85-13.64,9.69,5.7Zm7.57-16.53l-7.06,15.54-7.05-4.15-2.64-1.55,6.59-14.52,10.16,4.68Zm.41-1.03l-7.57-3.49-2.59-1.19,5.2-15.28,10.56,3.62-5.61,16.35Zm.45,21.8l2.87,1.44-9.02,15.53-9.79-6,8.49-14.68,7.45,3.7Zm8.21-10.09l-4.83,10.54-3.78-1.88-6.55-3.25,7.12-15.65,10.8,4.21-2.76,6.03Zm-25.36,42.34l-6.47-4.8-2.7-1.99,8.07-11.19,1.7-2.38,.17,.11,9.62,5.9-4.02,5.57-6.36,8.78Zm-12.18-3.31l2.33-2.61,9.15,6.79-11.6,13.02-8.48-7.5,8.6-9.7Zm-17.09,.62l10.11-11.45,1.23,1.1,7.21,6.42-5.32,5.98-5.54,6.24-1.85-1.99-5.85-6.32Zm-96.98,43.49l.04-11.01,12.94-1.29,.93,10.95-12.08,1.17-1.83,.18Zm-15.04-.14l.35-3.94,.64-7.01,12.96,.13v5.65l-.02,5.36-6.54-.09-7.39-.09Zm-13.19-11.44l.21-1.11,12.86,1.53-.35,3.93-.63,7.03-13.81-1.69,1.73-9.67Zm-81.59-47.48l6.19,6.69-6.81,7.91-9.79-10.64,7.45-7.18,2.97,3.22Zm-11.06-15.53l7.98-5.52,.8-.56,2.19,2.86,5.49,7.13-8.26,6.81-6.93-9.06-1.28-1.67Zm-25.9-53.25l4.13,13.29-9.27,3.76-4.41-14.24,9.56-2.81Zm-13.51-76.8l9.78,2.05-1.03,8.31-.69,5.51-9.9-1.08,1.56-12.6,.27-2.2Zm13.68-45.48l9,4.85-5.14,12.7-8.11-3.43-1.24-.52,2.01-4.96,3.49-8.65Zm7.1-13.98l8.59,5.72-3.23,6.28-2.99,5.82-9.01-4.86,4.35-8.49,2.29-4.47Zm16.39-6.61l-7.25,11.38-8.6-5.74,7.75-12.22,8.1,6.58Zm29.49-31.35l-9.96,8.62-6.93-8.08,10.66-9.3,6.23,8.75Zm13.14-7.89l11.27-6.32,5.65,9.01-10.53,5.85-6.4-8.55Zm-22.96,35.07l8.41-8.84,7.89,6.11-7.91,8.28-8.39-5.56Zm-1.54,14.33l-6.78-3.8,1.85-2.35,5.74-7.34,8.4,5.56-7.13,9.08-2.07-1.15Zm-10.2,1.43l2.77-4.33,8.85,4.96-6.3,9.8-9.23-4.31,3.91-6.13Zm-3.89,76.01l-.35,9-9.15,.22,.46-11.99,9.14,.33-.09,2.44Zm-8.95,22.34l-.26-5.69-.3-6.32,6.48-.17,2.68-.07,.25,5.38,.28,6.06-9.14,.8Zm3.65,27.16l3.58,11.5-9.8,3.17-3.81-12.23,5.11-1.24,4.92-1.19Zm4.65,11.17l-.88-2.83-2.68-8.59,8.94-1.92,3.39,10.87-8.78,2.46Zm19.62,48.67l-3.44,2.41-7.62-9.91,8.78-5.24,7.18,9.3-4.9,3.44Zm5.72,12.35l-8.44-9.08,8.34-5.85,7.94,8.53-7.83,6.41Zm20.69,16.87l-9.84-7.19,7.29-6.93,9.25,6.74-6.69,7.38Zm3.54-2.25l4.09-4.52,9.79,5.75-6.06,7.77-10.42-6.14,2.59-2.86Zm13.96,26.06l-3.74,10.17-12.73-5.95,4.59-9.72,10.81,5,1.06,.5Zm-2.71,10.6l3.75-10.18,12.31,4.23-2.85,10.53-13.21-4.58Zm-10.86-17.03l.71,.41-4.59,9.72-12.13-7.24,5.39-9.2,10.62,6.3Zm-32.31-25.22l5.58-5.46,2.08-2.03,2.38,2.12,6.87,6.13-7.01,8.11-1.27-1.12-8.63-7.74Zm17.67-.05l-9.17-8.2,7.82-6.41,8.63,7.66-7.29,6.94Zm-18.46-.75l-9.08-9.83,8.24-6.82,8.5,9.17-4.98,4.87-2.68,2.61Zm28.48,9.5l-6.32,8.67-10.62-7.82,7.03-8.1,8.52,6.22,1.4,1.03Zm-5.38,9.28l6.32-8.67,10.5,6.2-5.57,9.14-11.25-6.67Zm-39.75-57.9l6.79,10.72-8.78,6.08-7.26-11.5,9.25-5.3Zm-11.74-25.23l3.24,7.91,1.63,3.99-7.77,3.6-1.88,.88-5.2-12.74,9.98-3.63Zm-14.45-10.62l10.24-2.74,.75,2.38,3.1,9.95-9.98,3.62-2.18-6.98-1.93-6.22Zm-16.49-60.59l2.99,.33,6.91,.75-.54,13.96-9.91-.09,.56-14.94Zm24.57,42.85l-1.68-12.76,2.9-.25,7.39-.66,1.58,11.99-10.2,1.68Zm-.9,1.28l2.78,12.64-10.24,2.76-2.97-13.54,10.43-1.86Zm8.85-28.14l.57,12.09-10.3,.91-.59-12.87,4.29-.05,6.03-.08Zm-21.29,15.14l10.55-.95,1.69,12.86-10.42,1.85-1.66-12.55-.17-1.21Zm-.75-14.99h10.6l.28,6.09,.32,6.85-10.55,.93-.39-8.3-.26-5.57Zm10.74-5.12l-.15,4h-6.86l-3.73,.02,.37-9.72,.15-4.14,10.57,.9-.35,8.94Zm20.91,84.45l-9.25,5.3-6.26-12.17,9.65-4.48,5.85,11.35Zm-.33-27.79l4.55,11.08-6.32,2.59-3.21,1.31-4.84-11.8,9.8-3.18Zm6.29,24.79l-4.98,2.48-1.67-3.23-4.15-8.05,8.43-3.45,1.09-.44,5.48,10.59-4.2,2.11Zm-15.12-89.65l-.21,5.46-.25,6.6-2.99,.05-7.33,.08,.48-12.84,1.64,.11,8.66,.54Zm-20.18-16.45l6.26,1.09,4.2,.72-.54,4.36-1.05,8.44-10.56-.9,1.31-10.61,.39-3.11Zm36.05-61.64l-6.73,10.53-9.32-5.25,7.19-11.3,3,2.03,5.85,3.99Zm-18.32,35.46l-10.04-3.6,5.11-12.61,5.77,2.64,3.95,1.8-1.5,3.69-3.29,8.08Zm-15.77,11.32l-2.87,13.57-9.79-2.06,3.08-14.52,9.59,3.02Zm8.68,15.58l-10.47-1.81,1.1-5.14,1.76-8.33,4.35,1.15,5.94,1.57-.15,.72-2.53,11.84Zm-3.32-29.44l10.04,3.58-3.76,12.22-.5-.13-9.78-2.58,2.2-7.24,1.8-5.85Zm17.15,19.3l-2.52,11.73-10.21-1.42,2.61-12.22,.05-.26,.92,.19,9.14,1.98Zm4.29-40.72l-5.78,11.19-9.72-4.44,6.19-12,1.85,1.04,7.47,4.21Zm15.56-22.16l-3.47,4.45-4.16,5.31-8.87-6.02,8.17-10.49,8.33,6.75Zm2.26-17.93l9.88-8.57,7.11,8.02-8.76,7.56-.47,.4-7.23-6.91-.52-.5Zm21.38-16.74l6.4,8.55-9.92,6.94-7.1-8.02,5.07-3.57,5.55-3.9Zm-5.16-10.86l12.17-6.86,4.67,9.84-3.48,1.95-7.88,4.41-1.5-2.55-3.99-6.79Zm-9.95,35.14l.66,.63-8.47,8.92-8.34-6.75,9.06-9.58,7.08,6.79Zm-55.93,49.62l3.38,1.43,5.96,2.52-3.73,12.19-.31,.99-5.35-1.68-4.26-1.32,.46-1.51,3.83-12.62Zm-9.59,77.72l-.7-14.95,5.71,.06,4.21,.04,.65,13.97-4.94,.45-4.93,.44Zm2.06,15.94l-1.96-14.83,9.88-.89,1.83,13.86-7.23,1.38-2.52,.47Zm12.93,12.88l-9.54,2.81-3.19-14.6,9.75-1.86,.62,2.77,2.38,10.87Zm116.02,126.81l-13.57-3.16,2.85-10.53,12.66,2.9-1.94,10.79Zm18.31-20.38l-2.24,10.21-5.51-.65-7.26-.86,3.12-10.07,2.18,.25,9.71,1.12Zm-113.35-111.84l-8.57,2.08-2.76-12.55,10.18-1.68,2.6,11.79-1.45,.35Zm43.73-147.46l-3.95,3.41-7.49-5.8-.4-.31,9.17-7.9,7.33,6.6-4.66,4Zm30.86-30.64l-11.03,4.7-4.1-6.53-1.55-2.48,11.83-5.06,2.96,5.69,1.9,3.69Zm-9.12-20.66l3.82,10.27-11.92,5.11-4.68-9.85,5.19-2.25,7.59-3.28Zm-16.49-5.35l13.71-5.97,2.45,10.25-12.87,5.56-.3-.89-2.99-8.95Zm-14.06,7.92l13.06-7.4,3.29,9.8-12.25,6.91-1.88-4.28-2.21-5.03Zm-7.79,19.02l11.46-8.13,5.48,9.34-6.75,4.75-3.95,2.78-1.81-2.54-4.42-6.21Zm-23.48,39.88l-8.11-6.58,8.79-11.34,7.55,7.36-8.22,10.56Zm-16.31,189.77l-6.73-13.14,7.58-3.96,1.35-.71,6.3,12.27-3.23,2.11-5.28,3.44Zm39.78,47.77l-10.66-9.6,6.82-7.91,9.96,8.93-.51,.7-5.62,7.89Zm4.85-4.88l2.14-3,10.69,7.87-5.38,9.19-11.45-8.46,4-5.59Zm46.72,44.75l-14.17-4.97,2.39-9.91,6.54,2.26,6.74,2.34-.14,.98-1.36,9.3Zm63.77,4.73l-14.97,1.4-1.31-10.83,14-1.35,1.37,6.46,.91,4.33Zm84.13-25.09l-5.35-5.63-2.37-2.5,11.93-10.94,.88,.76,7.59,6.74-12.69,11.57Zm-72.51-.93l12.53-4.14,2.84,10.53-13.47,4.4-.27-1.56-1.62-9.23Zm-105.5-57.02l8.17,7.23-3.04,2.27-3.86,2.91-8.56-7.61,3.37-2.22,3.91-2.58Zm-40.02-76.55l-8.78,1.32-1.57-11.92,9.13-.79,1.5,11.35-.28,.04Zm-43.75-90.81l4.99,2.52,2.84,1.43-4.33,14.23-8.09-3.03,3.09-10.17,1.5-4.98Zm-8.14,31.79l3.28-15.56,8.08,3.03-3.09,14.63-.51-.13-7.76-1.96Zm-2.06,51.19l-.75-16.01,2.15,.05,6.22,.14,.28,5.83,.43,9.25-5.54,.5-2.8,.25Zm325.54,27.89l11.44,2.19-1.77,7.36-2.6,10.75-6.81-1.98-4.34-1.25,3.04-12.68,1.05-4.39Zm-28.6,26.73l5.95,3.26-5.65,12.49-.86,1.92-8.18-5.75,6.04-13.41,2.71,1.49ZM128.15,181.31l4.42-8.52,5.29,1.92,3.05,1.1-5.13,9.85-8.59-2.52,.96-1.83Zm43.88-41.66l-4.34,3.71-3.8,3.25-7.3-4.29,8.53-7.32,4.75,3.19,2.15,1.45Zm24.4-23.35l-8.2,3.45-2.07,.88-6.09-7.38,10.93-4.65,3.6,5.1,1.83,2.6Zm-18.98-51.01l.89,9.25-2.63,1.15-11.15,4.86-1.67-8.95,14.55-6.39v.08Zm53.37,366.56l-3.57-.06-.35-10.75,14.03,.18,1.31,10.82-11.41-.19Zm29.57,1.53l-.66-1.86,8.5-1.75,6.41-1.31,4.29,9.56-15.79,3.19-2.76-7.83Zm126.32-42.86l-12.69,14.11-4.79-2.54-2.97-1.57,6.94-7.75,5.33-5.96,4.25,1.93,3.93,1.79Zm22.64-34.31l-9.91,16.9-8.59-3.28,9.57-16.39,7.97,2.48,.96,.28Zm-115.57,18.46l9.86-5.91,.97,7.32-10.5,6.27-.33-7.68Zm-108.65-14.62l-1.96,1.12-8.63-6.26,5.81-3.02,8.41,6.07-3.62,2.08Zm-35.47-31.4l6.49-2.38,6.58,8.46-4.48,1.86-1.85,.77-4.71-6.07-2.03-2.64Zm-6.65-23.93l-6.22,1.68-3.1-7.53-1.19-2.9,6.97-1.55,4.19,10.14-.64,.17Zm-55.4,24.34l-5.97-14.74,7.76-3.55,.45,1.1,5.18,12.76-3.25,1.94-4.16,2.48Zm.8,.82l7.08-4.23,6.78,13.23-6.17,4.66-.84,.64-7.19-14.1,.34-.2Zm60.6,84.76l1.35-4.58,.96-3.28,.66,.4,12.4,7.44-.41,2.16-1.17,6.15-7.1-4.28-6.68-4.02Zm281.3-118.29l-3.78,15.53-1.02,4.2-9.49-1.66,.37-1.54,4.27-17.59,5.11,.56,4.54,.5Zm-85.75,40.02l6.65-11.6,2.32,2.03,3.7,3.24-7.14,12.45-.98-1.09-4.54-5.04Zm-26.29,29.04l-1.79,1.66-.76-3.26-.8-3.5,8.65-8.05,2.12,6.27-7.42,6.9Zm-83.03,18.27l-1.99,3.18-10.87-1.23,4.4-6.17,10.36,1.15-1.9,3.08Zm-36.63-19.86l-.24,.15-5.05,3.16-9.11-5.3,1.77-1.02,3.76-2.15,7.43,4.32,1.43,.84Zm-49.36-187.18l-6.66-1.5,5.91-9.17,6.51,1.76-3.1,4.79-2.66,4.12Zm12.95-18.11l-6.52,8.23-6.47-1.75,3.17-4.02,3.51-4.45,3.18,1.01,3.12,.98Zm-3.29-2.2l-2.2-.7,7.39-7.7,6.06,2.21-7.19,7.47-4.06-1.29Zm19.94-13.71l-7.82,6.66-1.7-.63-4.29-1.56,8.02-6.85,1.18,.48,4.61,1.89Zm14.12-15.99l-5.63-4.88-.32-.27,10.14-4.27,5.48,5.38-5.93,2.48-3.74,1.56Zm-94.15,237.92l-8.84-14.13,2.5-2.29,2.45-2.25,8.41,13.4-3.83,4.48-.69,.79Zm23.28,28.01l.9-1.73,2.63-4.93,11.47,10.37-2.93,7.24-3.86-3.5-8.21-7.45Zm40.59,37.98l-14.36-8.69,.5-6.03,6.1,3.69,7.69,4.64,.02,2.81,.05,3.58Zm33.05,13.9l-15.68-5.57-.67-6.86,4.46,1.57,10.59,3.74,1.31,7.12Zm-47.06-266.79l-4.96,9.5-6.82-1.23,5.09-9.77,6.26,1.41,.44,.09Zm77.01-111.53l-.33,11-14.02,1.17-.63-10.87,5.71-.5,9.26-.8Zm-13.15-18.86l-.64,2.58-1.38,5.55-15.62,3.15,1.32-7.94,6.06-1.23,10.27-2.11Zm18.39,396.41l14.35,.28,3.43,7.69-16.68-.37-2.72-7.64,1.62,.04Zm168.74-190.04l11.66,.05-.93,18.84-11.6-1.14,.59-11.92,.28-5.83Zm-51.84,67.16l2.55,3.18-5.89,10.29-.64,1.11-2.59-4.23-.43-.69,6.14-10.74,.85,1.08Zm-93.14,55.51l9.52-1.04-3.15,3.16-9.76,1.05,3.38-3.17Zm-14.15,.99l-2.64,2.31-9.34-1.04-.66-.07,4.19-3.38,9.73,1.06-1.28,1.12Zm-45.44-19.78l8.46,4.91-2.25,.48-1.54,.32-8.49-4.93,2.42-.5,1.4-.28Zm-18.1-14.38l7.65,6.74-1.61,.31-2.52,.5-7.69-6.79,1.64-.3,2.52-.46Zm-8.03-8.52l7.1,7.56-3.28,.6-.98,.18-7.12-7.61,1.76-.3,2.52-.44Zm-13.7-19.28l5.74,8.98-4.41,.71-4.55-7.11-1.21-1.92,1.79-.26,2.65-.4ZM221.09,100.81l-4.19,.32-3.15-9.84,12.83-1.03,2.28,9.95-7.78,.6Zm-72.45-34.62l14.63-8.42-.11,.34-1.34,4.33-14.26,8.17,.3-1.21,.78-3.22Zm-42.72,42.52l.99,2.66,.95,2.51-6.94,9.02-3.02,3.93-2.32-4.64,10.01-13.05,.33-.44Zm-44.83,99.1l3.61-17.22,1.79,1.19,1.37,.92-3.49,16.63-3.12-1.45-.15-.07Zm-3.05,37.58l.65-17.74,3.3,.9-.64,17.14-3.3-.3h-.01Zm3.25,37.61l-2.31-17.62,3.28-.32,2.24,17.03-2.61,.75-.59,.17Zm9.46,36.45l-3.18-10.33-2.02-6.58,3.1-1.51,5.04,16.31-1.86,1.34-1.08,.77Zm145.55,135.19l-16.46-4-2.33-4.54,16.01,3.86,1.82,3.06,.96,1.62Zm133.98-22.42l-5.62-2.19,14.78-10.76,5.3,1.85,.58,.2-5.04,3.64-10.01,7.26Zm34.11-25.31l-1.55,.07,12.71-14.09h.22l3.8-.2-12.74,14.11-2.45,.11Zm-23.68-142.77l.59-12.35,.89,.24-.6,12.67-.4-.25-.47-.31Zm-77.85,113.96l1.56-5.09,9.08-4.21,.46-.21-1.27,5.38-10.01,4.62,.17-.5Zm-7.66-5.11l-1.09,1.16-1.62,1.75-1.51,.33-7.92,1.74,2.95-2.95,7.87-1.74,1.34-.3Zm-61.5-5.85l-3.55,.79-8.7-3.94,3.58-.77,4.42,2,4.25,1.92ZM119.56,89.35l1.47-1.29,11.19-9.9-.52,3.08-.13,.73-12.37,10.92,.07-.64,.3-2.9Zm-31.91,45.39l7.21-11.47,2.29,4.57-8.79,13.94-2.61-4.02,1.89-3.02Zm170.58,325.28l-2.13-1.27,16.65-1.42,3.78,2.09-16.89,1.43-1.42-.84Zm172.29-118.55l-6.92,14.99-.99,.06-3.42,.2,8.44-18.29,3.88-.24,.54-.04-1.54,3.31Zm-71.93-62.74l.95,1.01-.13,.56-2.71,11.43-.5-.79-.35-.57,2.74-11.63Zm-3.18,13.01l.92,1.47-2.46,7.24-1.43,4.23-.52-1.19-.27-.64,3.76-11.11Zm-4.36,12.51l.85,1.96-1.15,2.57-3.73,8.31-.69-2.34,4.71-10.5Zm-5.46,11.87l.72,2.5-5.82,10.21-.51-2.87,5.61-9.83Zm-6.51,11.13l.27,1.51,.27,1.54-2.46,3.45-4.25,6-.25-3.02-.04-.39,.73-1.04,5.71-8.05Zm-93.96,47.43l-2,.48-7.92-.86,2.02-.47,7.9,.85Zm-10.46-1.4l-2.74,.65-2.11-.47-6.41-1.4,2.78-.64,8.48,1.86Zm-76.32-57.28l5.58,8.72-1.61-.5-3.99-6.23-1.53-2.39,.21,.06,1.32,.34Zm-17.29-46.75h-1.28l-.44-3.28-1.02-7.64,1.69-.14,1.47,11.06h-.43ZM200.65,40.95l-2.21,1.99-15.14,4.86,2.03-1.9,15.32-4.94Zm-32.49,12.55l14.12-6.27-1.21,1.14-.27,.25-14,6.22,.78-.77,.58-.57Zm-16.33,9.39l12.49-7.19-.45,.44-10.2,5.87-2.25,1.29,.08-.07,.32-.33ZM57.43,227.07l.17,.12-.62,16.69-.06,1.27-.24-.07,.67-18.06,.07,.06Zm-.72,19.17l.08,.02,.13,.04,.84,18.08s-.2,.02-.2,.02l-.85-18.17Zm77.77,168.55l-.46-2.25,13.26,9.92,.93,3.29-13.55-10.17-.18-.79ZM452.51,251.15s-.06-.09-.11-.13c-.01-.02-.05-.02-.06-.04-.04-.04-1.01-.56-1.01-.56-.06-.04-.13-.06-.2-.07l-4.26-.5-7.14-.45-9.49-.34-11.13-.25-11.99-.11h-12.03l-11.25,.18-9.7,.27-7.45,.39-4.59,.46s-.09,.01-.14,.04l-1.38,.51c-.07,.05-.11,.05-.14,.07-.04,.04-.06,.07-.09,.12-.01,.01-.02,.02-.04,.05-.06,.07-.08,.17-.09,.26l-.63,13.32-1.85,13.13-3.03,12.81-4.2,12.37-5.28,11.78-6.33,11.09-5.18,7.31-7.77,8.91-8.67,8.13s-9.43,7.12-9.43,7.12l-9.96,6-10.43,4.85-9.76,3.3-7.01,1.55-11.11,1.22h-11.22l-11.12-1.21-10.94-2.39-9.56-3.17-7.33-3.31-9.99-5.78s-9.51-6.86-9.51-6.86l-8.82-7.76-8.11-8.65-7.33-9.43-6.48-10.12-5.58-10.73-4.64-11.24-3.67-11.63-2.64-11.96-1.62-12.15-.56-12.24,.48-12.22,1.54-12.11,2.58-11.89,3.6-11.54,4.58-11.11,5.55-10.59,6.45-9.95,7.31-9.21,8.11-8.41,8.84-7.51,7.1-4.88,8.35-4.57,10.34-4.31,10.73-3.17,10.99-2,11.21-.8c.08,0,.15-.02,.22-.06,.01-.01,4.98-2.81,4.98-2.81,.07-.04,.13-.09,.17-.15l4.36-5.74s.05-.08,.07-.12l3.48-8.33,2.32-10.18,1.01-11.33-.34-11.71-1.7-11.3-2.95-10.1-3.95-8.08s-.04-.08-.07-.12l-4.72-5.54c-.05-.06-.11-.11-.18-.14l-5.16-2.54c-.12-.05-.21-.07-.31-.06l-18.91,1.82-5.17,.67s-18.51,3.83-18.51,3.83c-.06,.02-17.98,5.8-17.98,5.8-.05,.01-17.26,7.65-17.26,7.65-.06,.02-16.4,9.44-16.4,9.44-.05,.02-15.4,11.09-15.4,11.09-.02,.01-.04,.02-.06,.04l-14.24,12.6s-2.89,3-2.89,3c0,.01-12.81,13.78-12.81,13.78-.04,.04-11.54,15.06-11.54,15.06-.02,.05-10.15,16.17-10.15,16.17-.02,.05-8.69,17.13-8.69,17.13-.01,.05-7.17,17.94-7.17,17.94-.02,.04-5.61,18.58-5.61,18.58-.01,.05-4,19.08-4,19.08-.01,.05-2.38,19.42-2.38,19.42,0,.05-.72,19.6-.72,19.6,0,.04,.92,19.6,.92,19.6,0,.05,2.55,19.46,2.55,19.46,0,.05,4.18,19.16,4.18,19.16,.01,.05,5.76,18.69,5.76,18.69,.01,.05,7.3,18.07,7.3,18.07,.02,.05,8.8,17.3,8.8,17.3,.04,.05,10.23,16.38,10.23,16.38,.04,.05,11.59,15.32,11.59,15.32,.04,.05,12.86,14.12,12.86,14.12,.04,.04,14.03,12.77,14.03,12.77,.04,.04,15.09,11.31,15.09,11.31l3.38,2.52,16.26,9.86s17.14,8.18,17.14,8.18c.06,.02,17.82,6.36,17.82,6.36,.06,.01,18.36,4.47,18.36,4.47,.07,0,18.73,2.5,18.73,2.5h.06l18.88,.46s5.28-.19,5.28-.19l18.94-1.6c.06-.01,18.83-3.69,18.83-3.69,.06-.01,18.47-5.76,18.47-5.76,.06-.02,17.92-7.82,17.92-7.82,.05-.04,17.17-9.83,17.17-9.83,.05-.04,16.24-11.76,16.24-11.76,.04-.02,3.54-2.95,3.54-2.95l14.88-13.36s13.65-15.1,13.65-15.1c.04-.05,12.21-16.65,12.21-16.65,.02-.04,10.61-18.02,10.61-18.02,.04-.05,8.91-19.22,8.91-19.22,.01-.05,7.06-20.21,7.06-20.21,.01-.05,5.13-20.98,5.13-20.98,.01-.06,3.15-21.54,3.15-21.54,.01-.05,1.12-21.83,1.12-21.83,0-.09-.02-.19-.06-.27-.01-.01-.02-.02-.04-.05"/></g></svg>