<?xml version="1.0" encoding="UTF-8"?><svg id="a" xmlns="http://www.w3.org/2000/svg" viewBox="0 0 500 500"><defs><style>.c{fill:none;stroke:#231f20;stroke-miterlimit:10;strokeWidth:5px;}</style></defs><g id="b"><path class="c" d="M351.16,106.82h0c2.82,.76,4.49,3.66,3.73,6.48-.48,1.76-1.83,3.16-3.58,3.69h-.16c-35.81,2.49-64.32,30.99-66.81,66.81h0c-.72,2.84-3.6,4.57-6.44,3.84-1.89-.48-3.37-1.96-3.84-3.84h0c-2.65-35.67-31.1-63.99-66.79-66.45h0c-2.9-.78-4.62-3.77-3.84-6.67,.51-1.88,1.97-3.34,3.84-3.84h0c35.8-2.47,64.31-30.95,66.81-66.76h0c.73-2.83,3.63-4.54,6.46-3.81,1.87,.49,3.03,1.3,3.93,3.6l.24,1.55c.53,40.29,35.38,61.79,66.45,65.4h0Z"/><path class="c" d="M300.72,322.99h0c4.94,1.19,7.97,6.16,6.78,11.09-.78,3.26-3.28,5.83-6.52,6.71h-.27c-62.26,4.34-111.81,53.88-116.14,116.14h0c-1.27,4.95-6.31,7.92-11.25,6.65-3.27-.84-5.81-3.38-6.65-6.65h0c-4.52-62.11-54.02-111.46-116.14-115.76h-.1c-5.03-1.36-8.01-6.55-6.64-11.58,.89-3.27,3.46-5.82,6.74-6.67h0c62.26-4.34,111.81-53.88,116.14-116.14h0c1.27-4.94,6.3-7.91,11.23-6.63,3.26,.84,5.8,3.38,6.63,6.63l.6,2.31c1.63,68.89,61.54,107.61,115.58,113.9h0Z"/><path class="c" d="M471.16,264.29h0c2.07,.49,3.36,2.57,2.87,4.65-.33,1.38-1.38,2.47-2.75,2.84h-.12c-26.18,1.79-47.03,22.64-48.82,48.84h0c-.55,2.08-2.68,3.33-4.76,2.78-1.36-.36-2.42-1.42-2.78-2.78h0c-1.87-26.12-22.69-46.86-48.82-48.65h0c-2.12-.55-3.39-2.72-2.84-4.84,.36-1.39,1.45-2.48,2.84-2.84h0c26.19-1.78,47.04-22.64,48.84-48.84h0c.56-2.07,2.71-3.31,4.78-2.74,1.33,.36,2.38,1.4,2.74,2.74l.23,.98c.69,28.94,25.87,45.2,48.58,47.85h0Z"/></g></svg>