<?xml version="1.0" encoding="UTF-8"?><svg id="a" xmlns="http://www.w3.org/2000/svg" viewBox="0 0 500 500"><defs><style>.b{stroke-miterlimit:10;}.b,.c{strokeWidth:5.19px;}.b,.c,.d{fill:none;stroke:#231f20;}.c,.d{strokeLinecap:round;strokeLinejoin:round;}.d{strokeWidth:5.19px;}</style></defs><path class="b" d="M72.88,154.93c-10.55,0-17.49,7.83-17.49,17.49v128.71c0,9.66,7.83,17.49,17.49,17.49h213.14"/><path class="b" d="M324.48,200.11v-27.69c0-9.66-7.83-17.49-17.49-17.49H72.17"/><circle class="b" cx="368.06" cy="390.45" r="10.26"/><rect class="b" x="286.58" y="199.77" width="155.4" height="207.2" rx="14.94" ry="14.94"/><polyline class="c" points="140.3 262.26 172 291.26 235.08 225.79"/><polyline class="c" points="323.43 291.26 349.6 312.79 399.53 262.26"/><line class="b" x1="286.58" y1="373.56" x2="441.31" y2="373.56"/><line class="c" x1="196.3" y1="371.37" x2="196.3" y2="318.62"/><rect class="d" x="141.05" y="371.37" width="110.51" height="35.73" rx="17.22" ry="17.22"/></svg>