<?xml version="1.0" encoding="UTF-8"?><svg id="a" xmlns="http://www.w3.org/2000/svg" viewBox="0 0 500 500"><defs><style>.b{stroke-miterlimit:10;}.b,.c{fill:none;stroke:#231f20;strokeWidth:5px;}.c{strokeLinecap:round;strokeLinejoin:round;}</style></defs><polygon class="b" points="126.51 182.61 252.45 110.7 377.07 182.61 379.34 329.09 252.45 401.38 126.51 328.33 126.51 182.61"/><polyline class="b" points="126.51 182.61 252.45 256.04 377.07 182.61"/><line class="b" x1="252.45" y1="256.04" x2="252.45" y2="401.38"/><g><polyline class="c" points="80.71 319.06 70.49 361.26 199.75 285.38"/><line class="c" x1="112.13" y1="373.99" x2="70.49" y2="361.26"/></g><g><polyline class="c" points="426.65 319.92 436.87 362.12 307.62 286.23"/><line class="c" x1="394.82" y1="372.57" x2="436.87" y2="362.12"/></g><g><polyline class="c" points="285.1 79.28 252.33 49.35 252.33 193.28"/><line class="c" x1="221.83" y1="79.57" x2="252.33" y2="49.35"/></g><circle class="b" cx="81.56" cy="163.07" r="30.6"/><circle class="b" cx="252.88" cy="450.39" r="30.6"/><circle class="b" cx="423.98" cy="163.07" r="30.6"/></svg>