<?xml version="1.0" encoding="UTF-8"?><svg id="a" xmlns="http://www.w3.org/2000/svg" viewBox="0 0 500 500"><defs><style>.b{strokeWidth:2.02px;}.b,.c,.d{stroke-miterlimit:10;}.b,.c,.d,.e{fill:none;stroke:#231f20;}.c,.d,.e{strokeWidth:5.06px;}.d,.e{strokeLinecap:round;}.e{strokeLinejoin:round;}</style></defs><path class="c" d="M353.98,182.53c36.22-4.79,70-15.19,91.46-28.96,2.32-1.49,5.37,.15,5.37,2.91v161.58c0,.84-.3,1.66-.86,2.3-20.59,23.47-50.43,30.3-95.11,35.81-2.07,.26-3.89-1.36-3.89-3.45V185.97c0-1.75,1.3-3.21,3.03-3.44Z"/><path class="e" d="M152.07,185.09c-38.4-5.38-88.9-17.63-95.19-42.24-.06-.23-.39-.19-.39,.05l-1.35,181s0,0,0,.01c28.33,22.58,53.82,29.61,98.74,35.2,2.16,.27,4.08-1.41,4.08-3.59V191.84c0-3.41-2.51-6.28-5.89-6.75Z"/><path class="d" d="M57.38,142.05c32.56-29.93,96.77-39.01,192.52-40.84,97.12-.03,196.77,18.2,200.64,53.76"/><path class="c" d="M96.74,149.86s46.97-16.42,91.2-17.78"/><line class="c" x1="278.68" y1="132.08" x2="340.24" y2="134.81"/><path class="c" d="M289.62,153.96s66.12-1.14,79.8,8.21"/><polygon class="c" points="249.95 125.01 216.67 181.32 284.84 180.41 249.95 125.01"/><path class="c" d="M287.43,261.8c18.02,.81,45.89,4.01,63.52,6.11"/><path class="c" d="M156.71,267.91c17.67-1.66,48.52-4.63,65.95-5.51"/><line class="c" x1="433.03" y1="385.37" x2="404.98" y2="416.15"/><line class="c" x1="404.98" y1="385.37" x2="433.03" y2="416.15"/><circle class="c" cx="108.14" cy="412.05" r="7.87"/><circle class="c" cx="404.98" cy="235.13" r="24.17"/><path class="c" d="M350.95,312.19c33.13-3.49,59.96-9.66,78.2-19.49"/><line class="c" x1="89.45" y1="169.69" x2="89.45" y2="262.93"/><line class="c" x1="265.81" y1="256.1" x2="285.01" y2="247.57"/><line class="c" x1="225.5" y1="248.3" x2="245.08" y2="255.73"/><path class="c" d="M223.24,236.48c-.87,.05-1.84,.3-2.87,.64-.53,.18-.96-.45-.61-.88,2.37-3.02,5.26-5.44,8.7-7.24,.51-.27,.39-1.04-.18-1.14-1.14-.2-2.3-.32-3.49-.37-.66-.02-.94-.85-.42-1.26,9.44-7.54,24.13-12.77,46.48-6.71,7.7,2.09,12.07,7.93,14.08,15.29l.51,34.11c-.91,15.05-5.26,24.65-12.12,32.84-5.81,6.94-20.59,11.23-31.18,4.83-7.18-4.33-11.23-13.56-14.62-24.05-2.71-12.24-2.76-26.65-2.5-44.37,.01-.97-.81-1.75-1.78-1.69Z"/><path class="b" d="M285.91,265.47c2.19,0,3.94,.64,4.4,2.31,2.41,8.89-1.15,14.5-6.53,16.04"/><path class="b" d="M225.04,265.47c-2.19,0-3.94,.64-4.4,2.31-2.41,8.89,1.41,14.25,7.13,16.04"/><path class="c" d="M235.7,300.45c.31,7.6-2.63,14.74-7.94,18.4-8.13,4.59-33.42,8.82-38.31,17.65-2.48,4.63-1.71,80.82-2.21,95.71"/><path class="c" d="M275.41,299.11c-.31,7.6,2.64,16.09,7.95,19.75,8.13,4.59,33.42,8.82,38.31,17.65,1.35,5.54,1.67,80.82,2.17,95.71"/><path class="c" d="M232.65,313.49c11.33,10.01,39.95,7.69,45.57-.89"/><path class="c" d="M208.09,326.45c40.59,21.86,67.12,19.94,94.39-.85"/><rect class="b" x="245.33" y="254.59" width="20.3" height="2.9"/><path class="e" d="M209.87,370.1c-.11-.28,2.87,5.29,5.01,9.97,1.46,3.21,3.29,6.24,3.29,9.77v41.77"/><path class="e" d="M299.61,372.61l-5.42,8.37c-1.77,2.74-2.74,6.15-2.74,9.67l1.21,42.71"/></svg>