<?xml version="1.0" encoding="UTF-8"?><svg id="a" xmlns="http://www.w3.org/2000/svg" viewBox="0 0 500 500"><defs><style>.b{strokeWidth:5px;}.b,.c{fill:none;stroke:#231f20;stroke-miterlimit:10;}.c{strokeWidth:3px;}</style></defs><path class="b" d="M143.75,341.9c-5.81-15.01-10.18-31.31-12.85-48.53"/><path class="b" d="M232.62,74.17c.84-.22,1.69-.42,2.54-.61,6.52-1.47,13.2-2.24,20.01-2.24,70.3,0,127.29,81.63,127.29,182.33s-56.99,182.33-127.29,182.33c-24.12,0-46.67-9.61-65.89-26.3"/><path class="b" d="M128.72,232.4c3.04-37.54,14.04-71.6,30.53-98.64"/><path class="b" d="M313.2,71.39c1.23-.05,2.47-.08,3.72-.08,70.5,0,127.65,81.63,127.65,182.33,0,94.85-50.7,172.78-115.5,181.51"/><path class="b" d="M241.36,106.67c1.18-1.24,2.37-2.45,3.58-3.63,9.3-9.09,19.49-16.46,30.33-21.8"/><path class="b" d="M191.64,289.46c-.9-7.89-1.91-17.78-2.25-27.27"/><path class="b" d="M266.55,421.23c-21.12-12.97-39.3-33.84-52.71-60.01"/><path class="b" d="M313.8,435.92c-3.74-.13-7.44-.49-11.09-1.06"/><rect class="b" x="157.69" y="97.27" width="55.41" height="24.96" rx="7.57" ry="7.57"/><rect class="b" x="175.17" y="71.32" width="53.41" height="75" rx="15.83" ry="15.83"/><path class="b" d="M204.37,280.85l-14.98-67.39-24.02,46c-.92,1.76-2.44,3.14-4.29,3.89l-52.05,21c-7.52-.49-13.55-2.57-15.97-8.52-2.24-9.26,.32-15.46,6.74-19.19l44.2-11.98,26.85-61.91c2.76-6.36,8.05-11.28,14.59-13.58l52.33-18.37c8.01-2.81,16.9-1.53,23.79,3.43l53.63,38.63c4.35,3.13,7.4,7.75,8.58,12.98l10.99,48.95c2.45,8.26,1.16,16.81-6.33,18.8-7.86,2-18.35,.62-20.16-6.99l-9-42.07c-1.14-5.33-4.42-9.96-9.06-12.82l-17.85-10.95c-2.27-1.39-5.12,.52-4.69,3.15l8.65,53.06c1.7,10.46,3.06,24.82-4.28,32.46l-82.74,77.5-32.07,81.12c-4.15,8.04-13.34,9.97-21.96,6.49-10.34-5.07-15.14-12.91-11.48-24.96l37.44-87.7,60.9-59.56"/><path class="b" d="M364.91,161.22c13.42-3.42,23.63-9.39,31.4-18.77"/><line class="b" x1="425.01" y1="253.64" x2="382.45" y2="253.64"/><path class="b" d="M365.86,347.37c12.11,2.37,23.42,10.83,30.45,18.35"/><rect class="c" x="100.04" y="108.82" width="7.86" height="12.17"/><rect class="c" x="100.04" y="135.52" width="7.86" height="12.17"/><rect class="c" x="113.45" y="122.54" width="7.86" height="12.17" transform="translate(-11.24 246.01) rotate(-90)"/><rect class="c" x="87.68" y="122.54" width="7.86" height="12.17" transform="translate(-37.01 220.24) rotate(-90)"/><rect class="c" x="55.32" y="322.47" width="7.86" height="12.17"/><rect class="c" x="55.32" y="349.17" width="7.86" height="12.17"/><rect class="c" x="68.74" y="336.19" width="7.86" height="12.17" transform="translate(-269.61 414.94) rotate(-90)"/><rect class="c" x="42.96" y="336.19" width="7.86" height="12.17" transform="translate(-295.38 389.17) rotate(-90)"/><path class="b" d="M215.16,342.71l13.35,25.2c2.43,4.44,6.53,7.73,11.4,9.14l78.78,19.87"/><path class="b" d="M244.67,314.85l11.48,29.15c1.96,4.98,6.17,8.74,11.34,10.12,0,0,34.95,8.26,48.7,11.5,1.86,.44,3.61,1.32,4.98,2.65,8.64,8.43,4.65,30.25-2.82,28.55"/></svg>