<?xml version="1.0" encoding="UTF-8"?><svg id="a" xmlns="http://www.w3.org/2000/svg" viewBox="0 0 500 500"><defs><style>.b,.c{strokeWidth:4.5px;}.b,.c,.d{fill:none;stroke:#231f20;}.b,.d{stroke-miterlimit:10;}.c{strokeLinecap:round;strokeLinejoin:round;}.d{strokeWidth:2px;}</style></defs><path class="b" d="M363.95,130.28c-1.41-2.98-4.69-5.34-7.96-4.99-14.35,1.55-29.71,21.04-54.02,34.25-15.52,7.31-32.2,7.5-43.54,17.63-3.77,3.37-5.78,8.29-5.59,13.34,.58,15.94-.99,30.15-4.79,42.57-.26,.85-1.5,.78-1.67-.09-3.78-19.29-13.17-28.44-26.75-23.93-16.34,5.44-14.54,22.13-3.47,45.07,1.56,3.23,2.22,6.83,1.82,10.39-1.53,13.59-10.25,24.41-21.92,34.1-18.47,18.93-49.88,43.46-66.41,72.64-1.87,3.3-5.8,14.92-6.03,18.71l-.5,50.55c-.03,3.01,1.07,5.93,3.08,8.17,21.76,24.28,69.41,28.86,109.43,20.73,76.78-19.85,166.78-88.17,182.31-118.08,1.03-1.98,1.55-4.19,1.53-6.42l-.46-46.5c-5.08-22.89-39.1-45-71.43-41.77"/><path class="b" d="M296.46,58.68c-7.37-2.92-22.31-5.38-34.73-1.54-38.49,17.34-61.51,38.1-74.48,61.09-10.86,19.98-9.2,61.91-1.36,97.95,6.12,28.12,19.88,45.77,39.08,61.39,25.73,22.43,51.01,27.54,53.63,27.83,21.63,4.07,38.79-3,43.44-7.76,25.57-26.12,42.37-81.87,42.28-138.48,.4-26.51-.17-51.46-9.31-62.84-11.25-13.38-36.6-29.22-58.56-37.64Z"/><line class="d" x1="263.51" y1="57.84" x2="362.36" y2="115.73"/><line class="d" x1="246.08" y1="65.06" x2="350.78" y2="126.58"/><line class="d" x1="231.66" y1="73.62" x2="336.15" y2="135.13"/><line class="d" x1="218.89" y1="82.35" x2="323.8" y2="144.61"/><line class="d" x1="207.69" y1="92.06" x2="309.88" y2="154.71"/><line class="d" x1="196.22" y1="104.8" x2="295.36" y2="162.26"/><line class="d" x1="187.74" y1="117.38" x2="275.95" y2="168.12"/><line class="d" x1="182.82" y1="130.3" x2="260.69" y2="175.34"/><line class="d" x1="180.34" y1="147.31" x2="252.84" y2="189.67"/><line class="d" x1="179.89" y1="164.39" x2="252.84" y2="206.09"/><line class="d" x1="181.34" y1="181.28" x2="226.63" y2="207.34"/><line class="d" x1="183.14" y1="199.51" x2="210.54" y2="215.77"/><line class="d" x1="186.35" y1="217.96" x2="208.36" y2="232.25"/><path class="c" d="M200.96,294.32c31.3,27.05,55.05,56.66,60,87.69,5.24,35.49,14.48,57.6,29.94,66.47,5.53-32.87,10.76-66.79,9.17-87.23-.3-3.91-2.33-7.74-4.69-11.58"/><path class="b" d="M314.03,341.07c-1.51,7.35-.88,16.28,1.26,26.32l4.73,64.97c16.16-13.96,29.5-73.88,30.53-89.66,2-30.62-1.64-56.12-9.85-72.15"/><path class="c" d="M245.08,342.28s45.58,18.4,46.13,18.39c.52,0,12.3-35.66,12.3-35.66l13.35,20.39c.83,1.29,2.71,1.31,3.56,.03l28.94-43.29"/><path class="b" d="M220.13,312.19c23.58,8.8,62.76,24.42,84.59,12.19,31.69-17.76,32.39-30.87,37.95-49.62"/><line class="d" x1="211.17" y1="303.52" x2="262.67" y2="392.36"/><line class="d" x1="191.14" y1="303.52" x2="280.64" y2="453.26"/><line class="d" x1="180.79" y1="312.9" x2="266.55" y2="459.21"/><line class="d" x1="169.32" y1="324.11" x2="253.03" y2="464.19"/><line class="d" x1="158.91" y1="334.34" x2="237.82" y2="468.84"/><line class="d" x1="148.94" y1="344.99" x2="222.57" y2="471.58"/><line class="d" x1="138.79" y1="357.4" x2="206.27" y2="472.96"/><line class="d" x1="129.31" y1="372" x2="188.6" y2="472.96"/><line class="d" x1="123.64" y1="389.96" x2="170.08" y2="470.49"/><line class="d" x1="123.34" y1="420.34" x2="149.55" y2="464.47"/><line class="d" x1="385.09" y1="263.29" x2="419.21" y2="316.64"/><line class="d" x1="365.05" y1="257.22" x2="419.48" y2="345.8"/><line class="d" x1="349.14" y1="257.22" x2="410.29" y2="362.42"/><line class="d" x1="348.65" y1="294.32" x2="400.33" y2="373.26"/><line class="d" x1="351.15" y1="321.13" x2="389.05" y2="383.82"/><line class="d" x1="349.37" y1="351.62" x2="378.04" y2="393.13"/><line class="d" x1="340.39" y1="390.69" x2="353.38" y2="411.64"/><line class="d" x1="344.84" y1="372.37" x2="365.05" y2="402.65"/><line class="d" x1="299.87" y1="382.4" x2="317.24" y2="391.73"/><line class="d" x1="298.19" y1="399.07" x2="318.22" y2="410.66"/><line class="d" x1="296.59" y1="414.91" x2="319.53" y2="428.31"/><line class="d" x1="293.87" y1="430.36" x2="308.54" y2="439.03"/><line class="d" x1="261.55" y1="382.4" x2="297.6" y2="404.65"/><line class="d" x1="273.26" y1="425.15" x2="291.87" y2="434.7"/><line class="d" x1="314.97" y1="364.75" x2="343.08" y2="380.65"/><line class="d" x1="326.26" y1="335.95" x2="349.14" y2="350.73"/><line class="d" x1="317.68" y1="400.11" x2="333.39" y2="410.21"/><path class="c" d="M300.1,359.43c4.88,4,10.51,2.44,13.11-2.34"/></svg>