<?xml version="1.0" encoding="UTF-8"?><svg id="a" xmlns="http://www.w3.org/2000/svg" viewBox="0 0 500 500"><defs><style>.c{stroke-miterlimit:10;}.c,.d{fill:none;stroke:#231f20;strokeWidth:5px;}.d{strokeLinecap:round;strokeLinejoin:round;}</style></defs><g id="b"><path class="d" d="M383.44,269.99H111.95c-.55,0-1.11,.02-1.66,.13-12.2,2.25-14.07,13.18-26.9,17.09-11.56,3.52-25.19-5.52-25.19-18.07l-1.12-142.92c-1.29-33.71,24.21-61.74,57.95-61.74H398.91c31.93,0,57.95,25.63,58.43,57.56l1.3,86.4c.51,33.84-26.79,61.55-60.63,61.55"/><path class="c" d="M177.7,143.12l11-21.82c2.99-5.94,11.5-5.87,14.4,.12l10.63,22c1.15,2.38,3.4,4.04,6.01,4.44l24.15,3.71c6.58,1.01,9.14,9.12,4.34,13.73l-17.64,16.91c-1.91,1.83-2.79,4.48-2.37,7.09l3.93,24.12c1.07,6.57-5.85,11.51-11.72,8.37l-21.54-11.55c-2.33-1.25-5.12-1.27-7.47-.06l-21.72,11.19c-5.91,3.05-12.76-2.01-11.58-8.56l4.33-24.05c.47-2.6-.37-5.26-2.25-7.12l-17.36-17.2c-4.73-4.68-2.03-12.75,4.56-13.65l24.21-3.31c2.62-.36,4.89-1.98,6.08-4.34Z"/><path class="c" d="M302.07,143.12l11-21.82c2.99-5.94,11.5-5.87,14.4,.12l10.63,22c1.15,2.38,3.4,4.04,6.01,4.44l24.15,3.71c6.58,1.01,9.14,9.12,4.34,13.73l-17.64,16.91c-1.91,1.83-2.79,4.48-2.37,7.09l3.93,24.12c1.07,6.57-5.85,11.51-11.72,8.37l-21.54-11.55c-2.33-1.25-5.12-1.27-7.47-.06l-21.72,11.19c-5.91,3.05-12.76-2.01-11.58-8.56l4.33-24.05c.47-2.6-.37-5.26-2.25-7.12l-17.36-17.2c-4.73-4.68-2.03-12.75,4.56-13.65l24.21-3.31c2.62-.36,4.89-1.98,6.08-4.34Z"/><path class="c" d="M195.86,434.52c-8.9-26.22-33.7-45.1-62.92-45.1-27.66,0-51.37,16.91-61.37,40.95"/><circle class="c" cx="135.23" cy="363.72" r="25.26"/><path class="c" d="M128.11,312.63c.3-.03,.61-.05,.91-.08,2.05-.16,4.11-.25,6.2-.25,42.13,0,76.28,34.15,76.28,76.28s-34.15,76.28-76.28,76.28-76.28-34.15-76.28-76.28c0-35.14,23.77-64.73,56.1-73.58"/></g></svg>