<?xml version="1.0" encoding="UTF-8"?><svg id="a" xmlns="http://www.w3.org/2000/svg" viewBox="0 0 500 500"><defs><style>.c{fill:none;stroke:#231f20;stroke-miterlimit:10;strokeWidth:5px;}</style></defs><g id="b"><path class="c" d="M271.16,47.57c.49,.05,.98,.09,1.46,.14,45.62,4.56,87.69,24.45,120.39,54.69"/><path class="c" d="M113.59,100.97c32.42-29.89,74.51-49.46,121.04-53.48"/><path class="c" d="M48.3,233.54c3.47-39.48,18.13-75.74,40.79-105.61"/><path class="c" d="M88.91,375.32c-22.26-29.43-36.77-65.05-40.47-103.82-.04-.47-.09-.93-.13-1.4"/><path class="c" d="M234.51,455.99c-45.99-4-87.63-23.19-119.89-52.52-.4-.36-.79-.72-1.18-1.08"/><path class="c" d="M391.63,402.37c-31.95,29.52-73.31,49-119.08,53.44"/><path class="c" d="M456.76,269.98c-.05,.55-.1,1.11-.15,1.66-3.69,38.29-17.91,73.5-39.72,102.7"/><path class="c" d="M416.77,128.94c.21,.29,.43,.59,.64,.89,20.94,29.07,35.63,65.45,39.27,103.59,.06,.58,.11,1.16,.16,1.73"/><path class="c" d="M255.73,153.32c86.05-.26,166.83,58.58,183.33,98.41-24.3,50.75-115.22,98.86-186.63,98.46-103.52-4.83-160.86-57.71-186.63-98.46,43.51-69.43,129.92-99.32,189.93-98.41Z"/><circle class="c" cx="253.61" cy="251.75" r="69.75"/><circle class="c" cx="252.53" cy="251.75" r="23.65"/><circle class="c" cx="47.51" cy="252.56" r="18.29"/><circle class="c" cx="457.56" cy="252.56" r="18.29"/><path class="c" d="M339.8,332.05c-12.18,59.7-37.35,104.58-67.89,118.45"/><path class="c" d="M271.9,51.14c30.46,13.75,55.95,59.65,68.21,119.03"/><path class="c" d="M163.48,172.23c.29-1.51,.37-1.86,.67-3.35,12.65-61.32,39.02-106.86,70.82-118.97"/><path class="c" d="M234.9,452.33c-31.86-12.19-58.25-57.93-70.85-119.46-.22-1.08-.12-.3-.33-1.39"/><circle class="c" cx="253.61" cy="46.46" r="18.29"/><circle class="c" cx="253.61" cy="455.85" r="18.29"/><circle class="c" cx="406.75" cy="114.65" r="18.29"/><circle class="c" cx="100.45" cy="390.48" r="18.29"/><circle class="c" cx="404.89" cy="388.94" r="18.29"/><circle class="c" cx="100.46" cy="114.63" r="18.29"/><circle class="c" cx="262.46" cy="242.05" r="5.16"/></g></svg>