<?xml version="1.0" encoding="UTF-8"?><svg id="a" xmlns="http://www.w3.org/2000/svg" viewBox="0 0 500 500"><defs><style>.c{fill:none;stroke:#231f20;stroke-miterlimit:10;strokeWidth:5px;}</style></defs><g id="b"><path class="c" d="M199.07,80.67l13.52,2.13c3.14,.49,4.35,4.37,2.05,6.57l-9.91,9.43c-.91,.87-1.34,2.13-1.14,3.38l2.15,13.51c.5,3.14-2.82,5.49-5.61,3.98l-12.03-6.51c-1.11-.6-2.44-.62-3.57-.04l-12.19,6.22c-2.83,1.45-6.09-.98-5.51-4.11l2.47-13.46c.23-1.24-.17-2.52-1.06-3.41l-9.68-9.67c-2.25-2.25-.95-6.1,2.2-6.51l13.56-1.81c1.25-.17,2.34-.94,2.91-2.06l6.2-12.2c1.44-2.83,5.5-2.78,6.88,.08l5.91,12.34c.54,1.14,1.62,1.94,2.86,2.13Z"/><path class="c" d="M144.8,168.14l21.59,3.4c5.01,.79,6.95,6.99,3.27,10.49l-15.83,15.07c-1.46,1.39-2.14,3.41-1.83,5.4l3.44,21.58c.8,5.01-4.5,8.77-8.96,6.35l-19.22-10.4c-1.77-.96-3.9-.98-5.7-.07l-19.46,9.94c-4.52,2.31-9.73-1.57-8.81-6.56l3.95-21.49c.36-1.98-.27-4.02-1.7-5.44l-15.47-15.44c-3.59-3.59-1.51-9.74,3.52-10.41l21.66-2.88c2-.27,3.74-1.5,4.65-3.3l9.91-19.48c2.3-4.52,8.79-4.45,10.98,.13l9.44,19.71c.87,1.82,2.58,3.09,4.57,3.41Z"/><path class="c" d="M411.83,168.6l24.86,3.92c5.77,.91,8,8.04,3.76,12.07l-18.23,17.35c-1.68,1.6-2.47,3.93-2.1,6.22l3.96,24.85c.92,5.77-5.18,10.09-10.32,7.31l-22.13-11.97c-2.04-1.1-4.5-1.13-6.56-.08l-22.41,11.44c-5.21,2.66-11.2-1.81-10.14-7.56l4.55-24.75c.42-2.28-.31-4.63-1.95-6.27l-17.81-17.78c-4.14-4.13-1.74-11.21,4.05-11.98l24.94-3.32c2.3-.31,4.3-1.73,5.36-3.79l11.4-22.43c2.65-5.21,10.12-5.12,12.65,.15l10.87,22.7c1,2.09,2.97,3.56,5.26,3.92Z"/><path class="c" d="M316.62,81.9l14.51,2.29c3.37,.53,4.67,4.7,2.2,7.05l-10.64,10.13c-.98,.93-1.44,2.29-1.23,3.63l2.31,14.51c.54,3.37-3.02,5.89-6.03,4.27l-12.92-6.99c-1.19-.64-2.62-.66-3.83-.05l-13.08,6.68c-3.04,1.55-6.54-1.06-5.92-4.41l2.66-14.45c.25-1.33-.18-2.7-1.14-3.66l-10.4-10.38c-2.42-2.41-1.02-6.55,2.37-7l14.56-1.94c1.34-.18,2.51-1.01,3.13-2.22l6.66-13.1c1.55-3.04,5.91-2.99,7.38,.09l6.34,13.25c.59,1.22,1.73,2.08,3.07,2.29Z"/><path class="c" d="M434.09,69.03l12.74,2.01c2.96,.47,4.1,4.12,1.93,6.19l-9.34,8.89c-.86,.82-1.27,2.01-1.08,3.19l2.03,12.74c.47,2.96-2.66,5.17-5.29,3.75l-11.35-6.14c-1.05-.57-2.3-.58-3.36-.04l-11.49,5.87c-2.67,1.36-5.74-.93-5.2-3.87l2.33-12.69c.22-1.17-.16-2.37-1-3.21l-9.13-9.11c-2.12-2.12-.89-5.75,2.08-6.14l12.79-1.7c1.18-.16,2.21-.88,2.75-1.95l5.85-11.5c1.36-2.67,5.19-2.63,6.48,.08l5.57,11.64c.51,1.07,1.52,1.83,2.7,2.01Z"/><path class="c" d="M101.15,67.8l13.52,2.13c3.14,.49,4.35,4.37,2.05,6.57l-9.91,9.43c-.91,.87-1.34,2.13-1.14,3.38l2.15,13.51c.5,3.14-2.82,5.49-5.61,3.98l-12.03-6.51c-1.11-.6-2.44-.62-3.57-.04l-12.19,6.22c-2.83,1.45-6.09-.98-5.51-4.11l2.47-13.46c.23-1.24-.17-2.52-1.06-3.41l-9.68-9.67c-2.25-2.25-.95-6.1,2.2-6.51l13.56-1.81c1.25-.17,2.34-.94,2.91-2.06l6.2-12.2c1.44-2.83,5.5-2.78,6.88,.08l5.91,12.34c.54,1.14,1.62,1.94,2.86,2.13Z"/><path class="c" d="M226.22,156.29l51.53-2.25c11.52,.84,23.51,18.27,22.86,29.98l.18,32.04c6.47,1.94,8.24,7.47,6.18,15.93-1.51,6.48-3.72,11.99-10.87,15.55-7.48,20.24-21.01,30.92-39.53,33.73-17.6-.35-32.28-10.63-43.09-34.1-5.08-.54-8.61-6.11-11.05-15.18-1.55-9.42,1.32-13.67,6.75-14.57l-.56-36.02c.66-8.99,7.22-21.92,17.61-25.11Z"/><path class="c" d="M214.46,286.3l11.3-9.2c.97-.79,2.38-.73,3.28,.14l19.73,19c.79,.76,.89,1.99,.24,2.87l-11.89,16c-1.94,2.61-5.9,2.44-7.61-.32l-15.61-25.14c-.68-1.1-.44-2.54,.56-3.35Z"/><path class="c" d="M295.98,286.3l-11.3-9.2c-.97-.79-2.38-.73-3.28,.14l-19.73,19c-.79,.76-.89,1.99-.24,2.87l11.89,16c1.94,2.61,5.9,2.44,7.61-.32l15.61-25.14c.68-1.1,.44-2.54-.56-3.35Z"/><path class="c" d="M245.92,315.67l7.96-11.57c.49-.71,1.54-.7,2.02,.02l7.69,11.57c.54,.81-.04,1.9-1.02,1.9h-15.64c-.98,0-1.56-1.1-1.01-1.91Z"/><path class="c" d="M207.32,292.16l12.66,23.28c.53,.97-.17,2.15-1.28,2.15h-51.19c-1.23,0-1.98-1.37-1.32-2.41,7.6-11.91,18.77-21.19,37.99-24.51,1.26-.22,2.53,.37,3.14,1.5Z"/><path class="c" d="M303.29,292.16l-12.66,23.28c-.53,.97,.17,2.15,1.28,2.15h51.19c1.23,0,1.98-1.37,1.32-2.41-7.6-11.91-18.77-21.19-37.99-24.51-1.26-.22-2.53,.37-3.14,1.5Z"/><path class="c" d="M366.44,337.58l-15.57,112.71c-.78,5.68-5.63,9.9-11.36,9.9H171.19c-5.72,0-10.57-4.22-11.36-9.89l-15.72-112.71c-.96-6.9,4.4-13.06,11.36-13.06h199.61c6.96,0,12.32,6.15,11.36,13.04Z"/></g></svg>